<svg width="22" height="22" viewBox="0 0 22 22" fill="none" xmlns="http://www.w3.org/2000/svg">
<rect width="22" height="22" rx="11" fill="white"/>
<path d="M9.06953 15.8129H6.625C6.50897 15.8129 6.39769 15.7668 6.31564 15.6848C6.2336 15.6028 6.1875 15.4915 6.1875 15.3754V12.9309C6.1873 12.8741 6.19831 12.8178 6.21989 12.7653C6.24148 12.7127 6.27321 12.6649 6.31328 12.6247L12.8758 6.06216C12.9165 6.02082 12.965 5.98799 13.0185 5.96559C13.072 5.94318 13.1295 5.93164 13.1875 5.93164C13.2455 5.93164 13.303 5.94318 13.3565 5.96559C13.41 5.98799 13.4585 6.02082 13.4992 6.06216L15.9383 8.50122C15.9796 8.54193 16.0124 8.59045 16.0349 8.64397C16.0573 8.69749 16.0688 8.75492 16.0688 8.81294C16.0688 8.87096 16.0573 8.92839 16.0349 8.98191C16.0124 9.03543 15.9796 9.08395 15.9383 9.12466L9.37578 15.6872C9.33551 15.7272 9.28774 15.759 9.23519 15.7805C9.18264 15.8021 9.12634 15.8131 9.06953 15.8129V15.8129Z" stroke="#7992CA" stroke-linecap="round" stroke-linejoin="round"/>
<path d="M11.4375 7.5L14.5 10.5625" stroke="#7992CA" stroke-linecap="round" stroke-linejoin="round"/>
</svg>
