<svg width="24" height="24" viewBox="0 0 24 24" fill="none" xmlns="http://www.w3.org/2000/svg">
<g clip-path="url(#clip0_257_538)">
<path d="M18.7033 12.7504C18.7377 16.3824 21.9643 17.5908 22.0002 17.6061C21.9728 17.6916 21.4846 19.3282 20.3002 21.0198C19.2768 22.4817 18.2143 23.9382 16.54 23.9687C14.8955 23.9985 14.3666 23.016 12.4861 23.016C10.6057 23.016 10.0189 23.9389 8.46191 23.9985C6.84629 24.058 5.61582 22.4176 4.58379 20.9611C2.47519 17.9809 0.862692 12.5412 3.02754 8.8687C4.10254 7.04504 6.02441 5.89008 8.11035 5.86031C9.69707 5.83053 11.1939 6.90305 12.1643 6.90305C13.1346 6.90305 14.9533 5.61298 16.8666 5.80305C17.6674 5.83588 19.9158 6.11908 21.3588 8.18397C21.2424 8.2542 18.6768 9.71374 18.7041 12.7504M15.6127 3.83206C16.4705 2.81756 17.0478 1.40534 16.89 0C15.6533 0.048855 14.1588 0.805344 13.2721 1.81908C12.4775 2.71679 11.7814 4.1542 11.9689 5.5313C13.3471 5.63512 14.7549 4.84733 15.6127 3.83206Z" fill="#151B34"/>
</g>
<defs>
<clipPath id="clip0_257_538">
<rect width="20" height="24" fill="white" transform="translate(2)"/>
</clipPath>
</defs>
</svg>
