<svg width="40" height="40" viewBox="0 0 40 40" fill="none" xmlns="http://www.w3.org/2000/svg">
<path d="M12.4688 15.5781H4.96875V8.07812" stroke="#D0DAED" stroke-width="1.5" stroke-linecap="round" stroke-linejoin="round"/>
<path d="M10.2813 29.7188C12.2038 31.6429 14.6538 32.9535 17.3213 33.485C19.9889 34.0164 22.7541 33.7448 25.2672 32.7044C27.7804 31.6641 29.9285 29.9017 31.4399 27.6403C32.9512 25.3788 33.7579 22.72 33.7579 20C33.7579 17.28 32.9512 14.6212 31.4399 12.3598C29.9285 10.0983 27.7804 8.33596 25.2672 7.29559C22.7541 6.25521 19.9889 5.98357 17.3213 6.51503C14.6538 7.04649 12.2038 8.35716 10.2813 10.2813L4.96875 15.5781" stroke="#D0DAED" stroke-width="1.5" stroke-linecap="round" stroke-linejoin="round"/>
<path d="M14.9746 15.3809H17.4297V24H15.8008V16.9219H14.0254L14.9746 15.3809ZM21.7305 15.3809H25.7676V16.8926H22.9551L22.6035 18.4629C22.7012 18.4355 22.7969 18.416 22.8906 18.4043C22.9844 18.3887 23.0742 18.3809 23.1602 18.3809C23.9414 18.3809 24.5898 18.6484 25.1055 19.1836C25.625 19.7148 25.8848 20.3965 25.8848 21.2285C25.8848 22.0684 25.5977 22.7773 25.0234 23.3555C24.4531 23.9297 23.7578 24.2168 22.9375 24.2168C22.2031 24.2168 21.5723 24.0078 21.0449 23.5898C20.5176 23.1719 20.1719 22.5996 20.0078 21.873H21.7305C21.8633 22.1426 22.0371 22.3477 22.252 22.4883C22.4707 22.625 22.7109 22.6934 22.9727 22.6934C23.3359 22.6934 23.6445 22.5625 23.8984 22.3008C24.1523 22.0391 24.2793 21.7031 24.2793 21.293C24.2793 20.8945 24.1602 20.5684 23.9219 20.3145C23.6875 20.0566 23.4023 19.9277 23.0664 19.9277C22.8867 19.9277 22.709 19.9727 22.5332 20.0625C22.3613 20.1523 22.1914 20.2871 22.0234 20.4668L20.6875 20.168L21.7305 15.3809Z" fill="white"/>
</svg>
