<svg width="82" height="82" viewBox="0 0 82 82" fill="none" xmlns="http://www.w3.org/2000/svg">
<rect width="82" height="82" rx="41" fill="white"/>
<path d="M56.6999 39.5832L27.0166 21.2482C26.7667 21.0925 26.4802 21.007 26.1867 21.0004C25.8932 20.9939 25.6032 21.0665 25.3468 21.2109C25.0903 21.3553 24.8767 21.5661 24.7278 21.8217C24.579 22.0773 24.5003 22.3684 24.5 22.665V59.335C24.5003 59.6316 24.579 59.9227 24.7278 60.1783C24.8767 60.4339 25.0903 60.6447 25.3468 60.7891C25.6032 60.9335 25.8932 61.0061 26.1867 60.9996C26.4802 60.993 26.7667 60.9075 27.0166 60.7518L56.6999 42.4168C56.9436 42.2712 57.1456 42.064 57.2859 41.8155C57.4262 41.5671 57.5 41.286 57.5 41C57.5 40.714 57.4262 40.4329 57.2859 40.1845C57.1456 39.936 56.9436 39.7288 56.6999 39.5832Z" fill="#404F6F"/>
</svg>
