<svg width="40" height="40" viewBox="0 0 40 40" fill="none" xmlns="http://www.w3.org/2000/svg">
<path d="M13.9746 15.3809H16.4297V24H14.8008V16.9219H13.0254L13.9746 15.3809ZM20.7305 15.3809H24.7676V16.8926H21.9551L21.6035 18.4629C21.7012 18.4355 21.7969 18.416 21.8906 18.4043C21.9844 18.3887 22.0742 18.3809 22.1602 18.3809C22.9414 18.3809 23.5898 18.6484 24.1055 19.1836C24.625 19.7148 24.8848 20.3965 24.8848 21.2285C24.8848 22.0684 24.5977 22.7773 24.0234 23.3555C23.4531 23.9297 22.7578 24.2168 21.9375 24.2168C21.2031 24.2168 20.5723 24.0078 20.0449 23.5898C19.5176 23.1719 19.1719 22.5996 19.0078 21.873H20.7305C20.8633 22.1426 21.0371 22.3477 21.252 22.4883C21.4707 22.625 21.7109 22.6934 21.9727 22.6934C22.3359 22.6934 22.6445 22.5625 22.8984 22.3008C23.1523 22.0391 23.2793 21.7031 23.2793 21.293C23.2793 20.8945 23.1602 20.5684 22.9219 20.3145C22.6875 20.0566 22.4023 19.9277 22.0664 19.9277C21.8867 19.9277 21.709 19.9727 21.5332 20.0625C21.3613 20.1523 21.1914 20.2871 21.0234 20.4668L19.6875 20.168L20.7305 15.3809Z" fill="white"/>
<path d="M27.5312 15.5781H35.0313V8.07812" stroke="#D0DAED" stroke-width="1.5" stroke-linecap="round" stroke-linejoin="round"/>
<path d="M29.7189 29.7188C27.7963 31.6429 25.3464 32.9535 22.6788 33.485C20.0113 34.0164 17.246 33.7448 14.7329 32.7044C12.2197 31.6641 10.0716 29.9017 8.56026 27.6403C7.04889 25.3788 6.24219 22.72 6.24219 20C6.24219 17.28 7.04889 14.6212 8.56026 12.3598C10.0716 10.0983 12.2197 8.33596 14.7329 7.29559C17.246 6.25521 20.0113 5.98357 22.6788 6.51503C25.3464 7.04649 27.7963 8.35716 29.7189 10.2813L35.0314 15.5781" stroke="#D0DAED" stroke-width="1.5" stroke-linecap="round" stroke-linejoin="round"/>
</svg>
