<svg width="16" height="20" viewBox="0 0 16 20" fill="none" xmlns="http://www.w3.org/2000/svg">
<g opacity="0.5">
<path d="M7.30612 6.76187C8.92169 6.76187 10.2314 5.47203 10.2314 3.88094C10.2314 2.28984 8.92169 1 7.30612 1C5.69054 1 4.38086 2.28984 4.38086 3.88094C4.38086 5.47203 5.69054 6.76187 7.30612 6.76187Z" stroke="white" stroke-linecap="round" stroke-linejoin="round"/>
<path d="M5.66718 7.75342C4.61615 8.20945 3.82236 9.09978 3.49896 10.1856L3.14617 11.3582C3.07267 11.6116 2.89627 11.8359 2.66108 11.9662L1 12.2703" stroke="white" stroke-linecap="round" stroke-linejoin="round"/>
<path d="M9.67383 7.75342C10.7249 8.20945 11.5187 9.09978 11.842 10.1856L12.1948 11.3582C12.2683 11.6116 12.4447 11.8359 12.6799 11.9662L14.341 12.2703" stroke="white" stroke-linecap="round" stroke-linejoin="round"/>
<path d="M4.56444 12.625L3.32965 13.3271C2.57262 13.7542 2.62406 14.8545 3.41785 15.2092L6.47837 16.6986" stroke="white" stroke-linecap="round" stroke-linejoin="round"/>
<path d="M11.2015 12.625L12.4363 13.3271C13.1933 13.7542 13.1419 14.8545 12.3481 15.2092L7.88672 17.2215V18.4303" stroke="white" stroke-linecap="round" stroke-linejoin="round"/>
<path d="M13.5566 4.88037L13.5566 7.30461" stroke="white" stroke-linecap="round"/>
<path d="M14.7871 6.09253L12.3256 6.09253" stroke="white" stroke-linecap="round"/>
</g>
</svg>
