<svg width="16" height="16" viewBox="0 0 16 16" fill="none" xmlns="http://www.w3.org/2000/svg">
<g opacity="0.5">
<path d="M2.83767 11.0625C2.09322 9.80656 1.83282 8.32202 2.10536 6.88764C2.3779 5.45326 3.16462 4.16768 4.31784 3.27225C5.47107 2.37682 6.91148 1.93312 8.36866 2.02444C9.82584 2.11576 11.1996 2.73583 12.232 3.76823C13.2644 4.80064 13.8845 6.17438 13.9758 7.63156C14.0671 9.08874 13.6234 10.5292 12.728 11.6824C11.8325 12.8356 10.547 13.6223 9.11258 13.8949C7.6782 14.1674 6.19366 13.907 4.93767 13.1625V13.1625L2.86267 13.75C2.77765 13.7749 2.68752 13.7765 2.6017 13.7545C2.51589 13.7325 2.43756 13.6879 2.37493 13.6253C2.3123 13.5627 2.26767 13.4843 2.24572 13.3985C2.22377 13.3127 2.2253 13.2226 2.25017 13.1375L2.83767 11.0625Z" stroke="white" stroke-linecap="round" stroke-linejoin="round"/>
<path d="M8 8.625C8.34518 8.625 8.625 8.34518 8.625 8C8.625 7.65482 8.34518 7.375 8 7.375C7.65482 7.375 7.375 7.65482 7.375 8C7.375 8.34518 7.65482 8.625 8 8.625Z" fill="white"/>
<path d="M11 8.625C11.3452 8.625 11.625 8.34518 11.625 8C11.625 7.65482 11.3452 7.375 11 7.375C10.6548 7.375 10.375 7.65482 10.375 8C10.375 8.34518 10.6548 8.625 11 8.625Z" fill="white"/>
<path d="M5 8.625C5.34518 8.625 5.625 8.34518 5.625 8C5.625 7.65482 5.34518 7.375 5 7.375C4.65482 7.375 4.375 7.65482 4.375 8C4.375 8.34518 4.65482 8.625 5 8.625Z" fill="white"/>
</g>
</svg>
