<svg width="220" height="190" viewBox="0 0 220 190" fill="none" xmlns="http://www.w3.org/2000/svg">
<path d="M197.84 143.05C174.71 140.3 151.14 139.36 128.36 139.04C108.86 138.76 25.3701 140.05 25.3701 140.05" stroke="#231F20" stroke-linecap="round" stroke-linejoin="round"/>
<path d="M83.0098 103.06H42.5098V158.36H83.0098V103.06Z" fill="white" stroke="#231F20" stroke-linecap="round" stroke-linejoin="round"/>
<path d="M94.9102 103.06H54.4102V158.36H94.9102V103.06Z" fill="white" stroke="#231F20" stroke-linecap="round" stroke-linejoin="round"/>
<path d="M34.0898 158.37H103.45" stroke="#231F20" stroke-linecap="round" stroke-linejoin="round"/>
<path d="M33.9801 94.5099L24.2301 53.2899C23.8201 51.5599 24.3701 49.7099 25.7201 48.6299C26.4001 48.0899 27.2101 47.7799 28.0801 47.7799L55.0701 46.9299C56.5001 46.8799 57.8201 47.7099 58.4701 49.0499L61.1601 54.6399L95.4401 54.6699C97.9601 54.6699 100.6 58.1599 100.3 61.0999L103.22 95.4499C102.8 99.5899 99.1401 102.71 95.5901 102.71H41.4401C37.7201 102.71 34.5801 99.4699 33.9801 94.5199V94.5099Z" fill="#7A93CA"/>
<path d="M34.35 94.0005L31.97 51.9104C31.91 50.8904 32.71 50.0405 33.73 50.0205L94.07 49.1105C95.03 49.1005 95.84 49.8505 95.88 50.8105L97.95 93.0005C98 94.0104 97.2 94.8604 96.19 94.8804L36.17 95.7004C35.21 95.7104 34.41 94.9705 34.36 94.0105L34.35 94.0005Z" fill="#E1E1E1" stroke="#404F6F" stroke-miterlimit="10"/>
<path d="M36.2599 96.3198L35.4599 55.0298C35.4399 54.1498 36.1499 53.4298 37.0199 53.4298L99.2299 53.2998C100.1 53.2998 100.81 54.0098 100.8 54.8798L100.55 95.6698C100.55 96.5298 99.8499 97.2198 98.9999 97.2298L37.8399 97.8598C36.9799 97.8598 36.2699 97.1798 36.2599 96.3198Z" fill="#ECECEC" stroke="#404F6F" stroke-miterlimit="10"/>
<path d="M169.87 59.72C173.52 63.12 165.97 68.21 165.97 68.21L172.54 85.26L168.88 87.98L169.67 93.43L152.79 129.85L138.93 122.19L138.76 109.46C138.76 109.46 140.19 94.89 139.63 87.25C139.25 82.12 140.55 76.12 140.08 74.51C139.61 72.9 143.62 66.48 143.62 66.48L139.27 62.84V59.04L169.88 59.74L169.87 59.72Z" fill="white"/>
<path d="M138.72 114.58L136.79 123.31C134.64 133.03 133.97 143.02 134.79 152.94L134.85 153.72C135.11 156.92 137.79 159.38 140.99 159.38H142.19C145.4 159.38 148.07 156.92 148.33 153.72L149.06 144.86C149.51 139.33 150.92 133.93 153.21 128.88" fill="white"/>
<path d="M138.72 114.58L136.79 123.31C134.64 133.03 133.97 143.02 134.79 152.94L134.85 153.72C135.11 156.92 137.79 159.38 140.99 159.38H142.19C145.4 159.38 148.07 156.92 148.33 153.72L149.06 144.86C149.51 139.33 150.92 133.93 153.21 128.88" stroke="#231F20" stroke-linecap="round" stroke-linejoin="round"/>
<path d="M149.66 121.89C154.22 133.45 160.57 144.22 168.47 153.82L171.29 157.25C173.19 159.56 176.47 160.17 179.07 158.7C181.91 157.1 183.01 153.57 181.6 150.64L178.11 143.44C176.49 140.09 175.32 136.53 174.65 132.86L170.84 112.21C170.54 110.58 170.37 108.92 170.33 107.26C170.1 98.17 169.34 89.04 169.34 89.04" fill="white"/>
<path d="M149.66 121.89C154.22 133.45 160.57 144.22 168.47 153.82L171.29 157.25C173.19 159.56 176.47 160.17 179.07 158.7C181.91 157.1 183.01 153.57 181.6 150.64L178.11 143.44C176.49 140.09 175.32 136.53 174.65 132.86L170.84 112.21C170.54 110.58 170.37 108.92 170.33 107.26C170.1 98.17 169.34 89.04 169.34 89.04" stroke="#231F20" stroke-linecap="round" stroke-linejoin="round"/>
<path d="M165.98 68.3397C171.63 67.4697 177.41 75.0197 179.34 78.9197C186.73 93.8497 185.84 108.72 184.64 115.35C182.79 125.57 172.16 123 174 114.82C176.9 101.99 168.78 88.6097 168.72 87.4997" fill="white"/>
<path d="M165.98 68.3397C171.63 67.4697 177.41 75.0197 179.34 78.9197C186.73 93.8497 185.84 108.72 184.64 115.35C182.79 125.57 172.16 123 174 114.82C176.9 101.99 168.78 88.6097 168.72 87.4997" stroke="#231F20" stroke-linecap="round" stroke-linejoin="round"/>
<path d="M143.83 66.6301C140.39 64.0901 131.29 60.6901 131.29 44.5201C131.29 37.0201 136.78 31.1901 143.13 27.8001C146.79 25.8501 150.61 24.7501 154.78 24.6001C158.89 24.4501 163.91 24.9201 167.61 26.8301C174.84 30.5701 180.55 39.9001 179.21 49.4001C178.13 57.0401 172.56 64.4001 165.97 68.2001" fill="white"/>
<path d="M143.83 66.6301C140.39 64.0901 131.29 60.6901 131.29 44.5201C131.29 37.0201 136.78 31.1901 143.13 27.8001C146.79 25.8501 150.61 24.7501 154.78 24.6001C158.89 24.4501 163.91 24.9201 167.61 26.8301C174.84 30.5701 180.55 39.9001 179.21 49.4001C178.13 57.0401 172.56 64.4001 165.97 68.2001" stroke="#231F20" stroke-linecap="round" stroke-linejoin="round"/>
<path d="M137.69 42.5999C137.58 44.6499 137.61 46.6899 137.77 48.7399C137.85 49.7599 139.44 49.6499 139.36 48.6299C139.2 46.5799 139.17 44.5399 139.28 42.4899C139.33 41.4699 137.74 41.5899 137.69 42.5999Z" fill="#231F20"/>
<path d="M148.97 42.2603C148.83 44.1703 148.79 46.0703 148.93 47.9803C149 49.0003 150.6 48.8903 150.52 47.8703C150.39 46.1003 150.41 44.3403 150.53 42.5703C150.6 41.5603 149.04 41.2303 148.97 42.2603Z" fill="#231F20"/>
<path d="M138.72 114.581C138.72 111.811 138.61 105.521 139.8 86.5205L138.72 114.581Z" fill="white"/>
<path d="M138.72 114.581C138.72 111.811 138.61 105.521 139.8 86.5205" stroke="#231F20" stroke-linecap="round" stroke-linejoin="round"/>
<path d="M143.83 66.6297C140.36 66.7397 135.34 72.0097 130.27 75.5997C129.58 76.0897 125.31 70.8697 122.25 67.5597C111.84 56.3397 109.39 65.1197 112.62 71.5397C115.53 77.2997 126.64 89.0397 133.17 89.0397C136.87 89.0397 139.79 86.5197 139.79 86.5197" fill="white"/>
<path d="M143.83 66.6297C140.36 66.7397 135.34 72.0097 130.27 75.5997C129.58 76.0897 125.31 70.8697 122.25 67.5597C111.84 56.3397 109.39 65.1197 112.62 71.5397C115.53 77.2997 126.64 89.0397 133.17 89.0397C136.87 89.0397 139.79 86.5197 139.79 86.5197" stroke="#231F20" stroke-linecap="round" stroke-linejoin="round"/>
<path d="M119.16 73.8503L93.8699 72.5403C91.7999 72.4303 90.2099 70.7403 90.3599 68.7903L92.9199 34.8603C93.0399 33.2203 94.6299 32.1903 96.4699 32.5103L119.71 36.6403C121.31 36.9203 122.6 38.4103 122.58 39.9503L122.23 70.9003C122.21 72.6203 120.85 73.9403 119.16 73.8503Z" fill="white" stroke="#231F20" stroke-linecap="round" stroke-linejoin="round"/>
<path d="M98.5497 48.3002C98.5997 48.2102 98.6797 48.1702 98.7897 48.1802C98.8897 48.1902 99.0697 48.2902 99.3597 48.4702C100.93 49.4802 101.72 50.8702 101.72 52.6502C101.72 53.7202 101.38 54.5302 100.71 55.0802C100.47 55.2802 100.17 55.4502 99.8197 55.5702C99.4697 55.6902 99.1697 55.7402 98.9297 55.7102C98.7197 55.6802 98.5897 55.4502 98.5397 55.0202C98.4897 54.5902 98.4697 53.4202 98.4697 51.5002C98.4697 50.1102 98.4697 49.2402 98.4897 48.9002C98.4997 48.5602 98.5297 48.3602 98.5697 48.3002H98.5497ZM99.4497 49.2702C99.2797 49.1202 99.1597 49.0402 99.1097 49.0402C99.0497 49.0402 99.0197 49.1202 99.0197 49.2902C99.0197 49.4602 99.0197 49.6202 99.0297 49.7402C99.0297 49.8402 99.0297 50.0402 99.0497 50.3302C99.0597 50.6202 99.0697 50.9902 99.0897 51.4502C99.0997 51.9002 99.1097 52.2902 99.1197 52.6102C99.1397 54.0202 99.1697 54.7902 99.1997 54.9102C99.2197 54.9702 99.2597 55.0102 99.3197 55.0102C99.3797 55.0102 99.5397 54.9702 99.7897 54.8802C100.02 54.7902 100.24 54.6602 100.45 54.4702C100.66 54.2902 100.8 54.1102 100.88 53.9302C101.01 53.5402 101.08 53.1302 101.08 52.7002C101.08 52.0102 100.94 51.3602 100.65 50.7502C100.55 50.5502 100.38 50.3002 100.12 49.9802C99.8597 49.6602 99.6397 49.4202 99.4497 49.2702Z" fill="black"/>
<path d="M104.079 49.2901C104.099 49.0301 104.229 48.9201 104.449 48.9501C104.539 48.9601 104.599 48.9901 104.629 49.0301C104.659 49.0701 104.719 49.1901 104.799 49.3901C104.929 49.6901 105.109 50.2101 105.339 50.9301C105.569 51.6301 105.709 52.0501 105.779 52.1901C105.839 52.3301 106.049 53.0301 106.389 54.2801C106.729 55.5301 106.909 56.2101 106.909 56.3201C106.909 56.3901 106.879 56.4401 106.819 56.4901C106.759 56.5401 106.679 56.5501 106.589 56.5401C106.489 56.5301 106.409 56.4501 106.349 56.3001C106.299 56.1501 106.179 55.7201 105.999 55.0101C105.799 54.2201 105.669 53.7801 105.599 53.6701L105.489 53.5201L104.819 53.4701C104.359 53.4501 104.099 53.4601 104.049 53.5101C103.999 53.5601 103.889 53.9701 103.729 54.7301C103.599 55.3901 103.519 55.7801 103.459 55.9201C103.409 56.0601 103.339 56.1201 103.239 56.1101C103.149 56.1001 103.089 56.0701 103.039 56.0101C102.999 55.9601 102.979 55.8301 102.979 55.6201C102.979 55.1701 103.059 54.4401 103.229 53.4401C103.399 52.4401 103.599 51.4001 103.859 50.3301C103.999 49.7801 104.079 49.4301 104.099 49.2901H104.079ZM105.019 51.5901C104.759 50.8401 104.609 50.4701 104.569 50.4601L104.549 50.5101C104.519 50.6001 104.439 50.9701 104.319 51.6101C104.199 52.2601 104.139 52.6201 104.139 52.6801C104.139 52.7001 104.169 52.7101 104.219 52.7201C104.349 52.7401 104.559 52.7401 104.849 52.7401C105.139 52.7401 105.289 52.7201 105.309 52.7001C105.309 52.7001 105.319 52.6801 105.319 52.6501C105.319 52.5401 105.219 52.1901 105.019 51.5901Z" fill="black"/>
<path d="M108.44 49.4399C108.82 49.4399 109.39 49.4899 110.16 49.5799C110.7 49.6499 111.01 49.7099 111.11 49.7499C111.24 49.8099 111.3 49.8999 111.31 50.0399C111.31 50.0599 111.31 50.0699 111.31 50.0899C111.31 50.1099 111.31 50.1199 111.31 50.1299C111.31 50.2299 111.25 50.2899 111.13 50.2999C111.01 50.3099 110.75 50.2999 110.34 50.2399C109.96 50.1899 109.73 50.1699 109.65 50.1599C109.57 50.1599 109.5 50.1799 109.44 50.2299C109.38 50.2899 109.35 50.3699 109.35 50.4599C109.35 50.5299 109.35 50.5799 109.36 50.6299C109.38 50.9699 109.4 52.0299 109.42 53.8199C109.44 55.0599 109.44 55.7499 109.44 55.8599C109.44 56.2199 109.44 56.4799 109.41 56.6399C109.39 56.7999 109.37 56.8899 109.34 56.9099C109.31 56.9399 109.26 56.9399 109.19 56.9399C109.02 56.9199 108.91 56.7699 108.86 56.4999C108.83 56.3399 108.79 55.5799 108.74 54.1999C108.69 52.8199 108.66 51.7899 108.66 51.1099V50.0599H108.32C108.17 50.0399 107.92 50.0399 107.57 50.0399C107.5 50.0399 107.42 50.0399 107.32 50.0199C107.21 50.0099 107.13 49.9699 107.08 49.9099C107.02 49.8399 107 49.7699 107 49.6999C107 49.5799 107.08 49.5099 107.23 49.4799C107.38 49.4499 107.79 49.4399 108.43 49.4199L108.44 49.4399Z" fill="black"/>
<path d="M113.24 50.4503C113.26 50.1903 113.39 50.0803 113.61 50.1103C113.7 50.1203 113.76 50.1503 113.79 50.1903C113.82 50.2303 113.88 50.3503 113.96 50.5503C114.09 50.8503 114.27 51.3703 114.5 52.0903C114.73 52.7903 114.87 53.2103 114.94 53.3503C115 53.4903 115.21 54.1903 115.55 55.4403C115.89 56.6903 116.07 57.3703 116.07 57.4803C116.07 57.5503 116.04 57.6003 115.98 57.6503C115.92 57.7003 115.84 57.7103 115.75 57.7003C115.65 57.6903 115.57 57.6103 115.51 57.4603C115.46 57.3103 115.34 56.8803 115.16 56.1703C114.96 55.3803 114.83 54.9403 114.76 54.8303L114.65 54.6803L113.98 54.6303C113.52 54.6103 113.26 54.6203 113.21 54.6703C113.16 54.7203 113.05 55.1303 112.89 55.8903C112.76 56.5503 112.68 56.9403 112.62 57.0803C112.57 57.2203 112.5 57.2803 112.4 57.2703C112.31 57.2603 112.25 57.2303 112.2 57.1703C112.16 57.1203 112.14 56.9903 112.14 56.7803C112.14 56.3303 112.22 55.6003 112.39 54.6003C112.56 53.6003 112.76 52.5603 113.02 51.4903C113.16 50.9403 113.24 50.5903 113.26 50.4503H113.24ZM114.17 52.7503C113.91 52.0003 113.76 51.6303 113.72 51.6203L113.7 51.6703C113.67 51.7603 113.59 52.1303 113.47 52.7703C113.35 53.4203 113.29 53.7803 113.29 53.8403C113.29 53.8603 113.32 53.8703 113.37 53.8803C113.5 53.9003 113.71 53.9003 114 53.9003C114.29 53.9003 114.44 53.8803 114.46 53.8603C114.46 53.8603 114.47 53.8403 114.47 53.8103C114.47 53.7003 114.37 53.3503 114.17 52.7503Z" fill="black"/>
<path d="M34.6402 94.28L38.5302 62.53C38.8302 60.05 40.6002 58.21 42.6802 58.21H102.16C104.68 58.21 106.63 60.86 106.33 63.87L103.21 95.23C102.3 101.75 99.7902 102.69 96.2402 102.69H40.6602C36.9402 102.69 33.3402 101.76 34.6302 94.27L34.6402 94.28Z" fill="#7A93CA"/>
<g opacity="0.7">
<path d="M74.3001 74.9895L76.0101 78.4595C76.1501 78.7395 76.4201 78.9395 76.7301 78.9795L80.5601 79.5395C81.3401 79.6495 81.6501 80.6195 81.0901 81.1695L78.3201 83.8695C78.1001 84.0895 77.9901 84.3995 78.0501 84.7095L78.7001 88.5195C78.8301 89.2995 78.0201 89.8895 77.3201 89.5295L73.9001 87.7295C73.6201 87.5795 73.2901 87.5795 73.0101 87.7295L69.5901 89.5295C68.8901 89.8995 68.0701 89.2995 68.2101 88.5195L68.8601 84.7095C68.9101 84.3995 68.8101 84.0795 68.5901 83.8695L65.8201 81.1695C65.2501 80.6195 65.5701 79.6595 66.3501 79.5395L70.1801 78.9795C70.4901 78.9295 70.7601 78.7395 70.9001 78.4595L72.6101 74.9895C72.9601 74.2795 73.9701 74.2795 74.3201 74.9895H74.3001Z" fill="white"/>
</g>
<path d="M143.12 57.8304C143.12 57.8304 146.68 58.3004 148.84 57.4404L143.12 57.8304Z" fill="white"/>
<path d="M143.12 57.8304C143.12 57.8304 146.68 58.3004 148.84 57.4404" stroke="#231F20" stroke-linecap="round" stroke-linejoin="round"/>
</svg>
