<svg width="20" height="20" viewBox="0 0 20 20" fill="none" xmlns="http://www.w3.org/2000/svg">
<path d="M17.6172 10.6253H15.1172C14.7857 10.6253 14.4677 10.757 14.2333 10.9914C13.9989 11.2258 13.8672 11.5437 13.8672 11.8753V15.0003C13.8672 15.3318 13.9989 15.6497 14.2333 15.8841C14.4677 16.1186 14.7857 16.2503 15.1172 16.2503H16.3672C16.6987 16.2503 17.0167 16.1186 17.2511 15.8841C17.4855 15.6497 17.6172 15.3318 17.6172 15.0003V10.6253ZM17.6172 10.6253C17.6172 9.63507 17.4212 8.65466 17.0404 7.74063C16.6596 6.82659 16.1015 5.997 15.3984 5.29974C14.6954 4.60248 13.8612 4.05134 12.944 3.67813C12.0268 3.30491 11.0448 3.11701 10.0547 3.12526C9.06518 3.11805 8.08403 3.30671 7.16776 3.68039C6.2515 4.05407 5.41824 4.60537 4.716 5.30253C4.01376 5.99969 3.45642 6.82892 3.07609 7.74245C2.69576 8.65597 2.49997 9.63573 2.5 10.6253V15.0003C2.5 15.3318 2.6317 15.6497 2.86612 15.8841C3.10054 16.1186 3.41848 16.2503 3.75 16.2503H5C5.33152 16.2503 5.64946 16.1186 5.88388 15.8841C6.1183 15.6497 6.25 15.3318 6.25 15.0003V11.8753C6.25 11.5437 6.1183 11.2258 5.88388 10.9914C5.64946 10.757 5.33152 10.6253 5 10.6253H2.5" stroke="#7992CA" stroke-width="1.5" stroke-linecap="round" stroke-linejoin="round"/>
</svg>
