<svg width="21" height="20" viewBox="0 0 21 20" fill="none" xmlns="http://www.w3.org/2000/svg">
<path d="M14.25 10H18C18.1658 10 18.3247 10.0658 18.4419 10.1831C18.5592 10.3003 18.625 10.4592 18.625 10.625V15.625C18.625 15.7908 18.5592 15.9497 18.4419 16.0669C18.3247 16.1842 18.1658 16.25 18 16.25H3C2.83424 16.25 2.67527 16.1842 2.55806 16.0669C2.44085 15.9497 2.375 15.7908 2.375 15.625V10.625C2.375 10.4592 2.44085 10.3003 2.55806 10.1831C2.67527 10.0658 2.83424 10 3 10H6.75" stroke="#7992CA" stroke-width="1.5" stroke-linecap="round" stroke-linejoin="round"/>
<path d="M10.5 10V1.875" stroke="#7992CA" stroke-width="1.5" stroke-linecap="round" stroke-linejoin="round"/>
<path d="M6.75 5.625L10.5 1.875L14.25 5.625" stroke="#7992CA" stroke-width="1.5" stroke-linecap="round" stroke-linejoin="round"/>
<path d="M15.1875 13.9062C15.619 13.9062 15.9688 13.5565 15.9688 13.125C15.9688 12.6935 15.619 12.3438 15.1875 12.3438C14.756 12.3438 14.4062 12.6935 14.4062 13.125C14.4062 13.5565 14.756 13.9062 15.1875 13.9062Z" fill="#7992CA"/>
</svg>
