<svg width="24" height="24" viewBox="0 0 24 24" fill="none" xmlns="http://www.w3.org/2000/svg">
<g clip-path="url(#clip0_257_531)">
<path d="M23.8386 9.80859C23.8386 9.80859 24.0003 11.4867 24.0003 12.0422C24.0003 12.629 23.8386 14.3774 23.8386 14.3774C23.8383 14.3798 23.838 14.3825 23.8374 14.3852C23.4589 17.0065 22.4018 19.3672 20.4723 21.0641L16.507 18.1479C16.8083 17.9536 17.0945 17.7389 17.3633 17.505C18.3201 16.6732 18.7834 15.5999 18.9974 14.3852H12.3047V9.80859H23.8386Z" fill="#2683FB"/>
<path d="M20.5279 3.13874L17.0002 6.53003C15.7276 5.49399 14.1731 4.73423 12.3932 4.73423C9.12314 4.73423 6.34343 6.78528 5.32729 9.64294L1.30054 6.68198C3.32852 2.73544 7.51207 0 12.3047 0C15.4407 0 18.3548 1.23634 20.5202 3.13213C20.5227 3.13453 20.5254 3.13664 20.5279 3.13904V3.13874Z" fill="#EA4335"/>
<path d="M20.4723 21.0642C20.4594 21.0756 20.4462 21.087 20.4333 21.0984C18.2715 22.978 15.3575 23.9999 12.2365 23.9999C7.44142 23.9999 3.29046 21.3044 1.28369 17.3792L5.3172 14.4128C6.32474 17.2852 9.11213 19.3504 12.3933 19.3504C13.9127 19.3504 15.327 18.9083 16.5074 18.148L20.4726 21.0642H20.4723Z" fill="#34A853"/>
<path d="M5.31683 14.4132L1.28332 17.3795C0.462106 15.7729 0 13.9603 0 12.0423C0 10.1243 0.469178 8.29996 1.30054 6.68164L5.32698 9.6429C5.05949 10.3946 4.91437 11.2018 4.91437 12.0423C4.91437 12.8828 5.0558 13.6696 5.31653 14.4129L5.31683 14.4132Z" fill="#FFBC00"/>
</g>
<defs>
<clipPath id="clip0_257_531">
<rect width="24" height="24" fill="white"/>
</clipPath>
</defs>
</svg>
