<svg width="264" height="155" viewBox="0 0 264 155" fill="none" xmlns="http://www.w3.org/2000/svg">
<path d="M0.546875 34.5625L1.56738 27.3799H1.68457L4.60449 33.2734L7.49512 27.3799H7.6123L8.64258 34.5625H7.93457L7.23145 29.4258L4.69238 34.5625H4.51172L1.93848 29.3867L1.24023 34.5625H0.546875ZM12.4658 29.1133C13.2829 29.1133 13.96 29.4095 14.4971 30.002C14.9854 30.5423 15.2295 31.182 15.2295 31.9209C15.2295 32.6631 14.9707 33.3125 14.4531 33.8691C13.9388 34.4225 13.2764 34.6992 12.4658 34.6992C11.652 34.6992 10.9863 34.4225 10.4688 33.8691C9.95443 33.3125 9.69727 32.6631 9.69727 31.9209C9.69727 31.1852 9.94141 30.5472 10.4297 30.0068C10.9668 29.4111 11.6455 29.1133 12.4658 29.1133ZM12.4658 29.7822C11.8994 29.7822 11.4128 29.9922 11.0059 30.4121C10.599 30.832 10.3955 31.3398 10.3955 31.9355C10.3955 32.3197 10.4883 32.6777 10.6738 33.0098C10.8594 33.3418 11.11 33.599 11.4258 33.7812C11.7415 33.9603 12.0882 34.0498 12.4658 34.0498C12.8434 34.0498 13.1901 33.9603 13.5059 33.7812C13.8216 33.599 14.0723 33.3418 14.2578 33.0098C14.4434 32.6777 14.5361 32.3197 14.5361 31.9355C14.5361 31.3398 14.3311 30.832 13.9209 30.4121C13.514 29.9922 13.029 29.7822 12.4658 29.7822ZM16.5039 29.25H17.1875V30.2021C17.4609 29.8376 17.7637 29.5658 18.0957 29.3867C18.4277 29.2044 18.7891 29.1133 19.1797 29.1133C19.5768 29.1133 19.9284 29.2142 20.2344 29.416C20.5436 29.6178 20.7715 29.8896 20.918 30.2314C21.0645 30.5732 21.1377 31.1055 21.1377 31.8281V34.5625H20.459V32.0283C20.459 31.4163 20.4329 31.0078 20.3809 30.8027C20.2995 30.4512 20.1465 30.1875 19.9219 30.0117C19.6973 29.8327 19.4043 29.7432 19.043 29.7432C18.6296 29.7432 18.2585 29.8799 17.9297 30.1533C17.6042 30.4268 17.3893 30.7653 17.2852 31.1689C17.2201 31.4326 17.1875 31.9144 17.1875 32.6143V34.5625H16.5039V29.25Z" fill="#D0DAED"/>
<path d="M0.46875 50.3799H1.20605L2.66602 55.5557L4.72656 50.3799H4.87305L6.90918 55.5557L8.39844 50.3799H9.13086L7.07031 57.5625H6.93359L4.80469 52.1279L2.63184 57.5625H2.49512L0.46875 50.3799ZM14.3652 55.7998L14.9414 56.1025C14.7526 56.4736 14.5345 56.7731 14.2871 57.001C14.0397 57.2288 13.7614 57.403 13.4521 57.5234C13.1429 57.6406 12.793 57.6992 12.4023 57.6992C11.5365 57.6992 10.8594 57.416 10.3711 56.8496C9.88281 56.2799 9.63867 55.637 9.63867 54.9209C9.63867 54.2471 9.84538 53.6465 10.2588 53.1191C10.7829 52.4486 11.4844 52.1133 12.3633 52.1133C13.2682 52.1133 13.9909 52.4567 14.5312 53.1436C14.9154 53.6286 15.1107 54.234 15.1172 54.96H10.3418C10.3548 55.5785 10.5518 56.0863 10.9326 56.4834C11.3135 56.8773 11.7839 57.0742 12.3438 57.0742C12.6139 57.0742 12.876 57.027 13.1299 56.9326C13.387 56.8382 13.6051 56.7129 13.7842 56.5566C13.9632 56.4004 14.1569 56.1481 14.3652 55.7998ZM14.3652 54.3691C14.2741 54.0046 14.1406 53.7132 13.9648 53.4951C13.7923 53.277 13.5628 53.1012 13.2764 52.9678C12.9899 52.8343 12.6888 52.7676 12.373 52.7676C11.8522 52.7676 11.4046 52.9352 11.0303 53.2705C10.7568 53.5146 10.5501 53.8809 10.4102 54.3691H14.3652ZM21.6992 50.1992V57.5625H21.0254V56.6494C20.7389 56.9977 20.4167 57.2598 20.0586 57.4355C19.7038 57.6113 19.3148 57.6992 18.8916 57.6992C18.1396 57.6992 17.4967 57.4274 16.9629 56.8838C16.4323 56.3369 16.167 55.6729 16.167 54.8916C16.167 54.1266 16.4355 53.4723 16.9727 52.9287C17.5098 52.3851 18.1559 52.1133 18.9111 52.1133C19.3473 52.1133 19.7412 52.2061 20.0928 52.3916C20.4476 52.5771 20.7585 52.8555 21.0254 53.2266V50.1992H21.6992ZM18.9648 52.7725C18.584 52.7725 18.2324 52.8669 17.9102 53.0557C17.5879 53.2412 17.3307 53.5033 17.1387 53.8418C16.9499 54.1803 16.8555 54.5384 16.8555 54.916C16.8555 55.2904 16.9515 55.6484 17.1436 55.9902C17.3356 56.332 17.5928 56.599 17.915 56.791C18.2406 56.9798 18.5889 57.0742 18.96 57.0742C19.3343 57.0742 19.6891 56.9798 20.0244 56.791C20.3597 56.6022 20.6169 56.3467 20.7959 56.0244C20.9782 55.7021 21.0693 55.3392 21.0693 54.9355C21.0693 54.3203 20.8659 53.806 20.459 53.3926C20.0553 52.9792 19.5573 52.7725 18.9648 52.7725Z" fill="#D0DAED"/>
<path d="M0.874023 73.3799H4.47266V74.0879H1.58691V76.334H4.47266V77.042H1.58691V80.5625H0.874023V73.3799ZM5.35645 75.25H6.05469V76.0264C6.26302 75.7204 6.48275 75.4925 6.71387 75.3428C6.94499 75.1898 7.18587 75.1133 7.43652 75.1133C7.62533 75.1133 7.82715 75.1735 8.04199 75.2939L7.68555 75.8701C7.54232 75.8083 7.42188 75.7773 7.32422 75.7773C7.09635 75.7773 6.87663 75.8717 6.66504 76.0605C6.45345 76.2461 6.29232 76.5358 6.18164 76.9297C6.09701 77.2324 6.05469 77.8444 6.05469 78.7656V80.5625H5.35645V75.25ZM8.8623 73.0625C9.01855 73.0625 9.15202 73.1178 9.2627 73.2285C9.37337 73.3392 9.42871 73.4727 9.42871 73.6289C9.42871 73.7819 9.37337 73.9137 9.2627 74.0244C9.15202 74.1351 9.01855 74.1904 8.8623 74.1904C8.70931 74.1904 8.57747 74.1351 8.4668 74.0244C8.35612 73.9137 8.30078 73.7819 8.30078 73.6289C8.30078 73.4727 8.35612 73.3392 8.4668 73.2285C8.57747 73.1178 8.70931 73.0625 8.8623 73.0625ZM8.52051 75.25H9.20898V80.5625H8.52051V75.25Z" fill="#D0DAED"/>
<path d="M33.8086 2.37988L37.1582 9.5625H36.3867L35.2588 7.19922H32.1631L31.04 9.5625H30.2393L33.6328 2.37988H33.8086ZM33.7207 3.90332L32.4854 6.50586H34.9414L33.7207 3.90332ZM38.1738 4.25H38.8525V5.22656C39.1227 4.85547 39.4336 4.57715 39.7852 4.3916C40.1367 4.20605 40.529 4.11328 40.9619 4.11328C41.7171 4.11328 42.3633 4.38509 42.9004 4.92871C43.4375 5.47233 43.7061 6.12663 43.7061 6.8916C43.7061 7.67285 43.4391 8.33691 42.9053 8.88379C42.3747 9.42741 41.7334 9.69922 40.9814 9.69922C40.5583 9.69922 40.1693 9.61133 39.8145 9.43555C39.4596 9.25977 39.139 8.99772 38.8525 8.64941V11.5059H38.1738V4.25ZM40.9082 4.77246C40.3158 4.77246 39.8161 4.97917 39.4092 5.39258C39.0055 5.80599 38.8037 6.32031 38.8037 6.93555C38.8037 7.33919 38.8932 7.70215 39.0723 8.02441C39.2546 8.34668 39.5133 8.60221 39.8486 8.79102C40.1872 8.97982 40.5436 9.07422 40.918 9.07422C41.2858 9.07422 41.6309 8.97982 41.9531 8.79102C42.2786 8.59896 42.5374 8.33203 42.7295 7.99023C42.9215 7.64844 43.0176 7.29036 43.0176 6.91602C43.0176 6.53841 42.9215 6.18034 42.7295 5.8418C42.5407 5.50326 42.2852 5.24121 41.9629 5.05566C41.6406 4.86686 41.2891 4.77246 40.9082 4.77246ZM44.7314 4.25H45.4297V5.02637C45.638 4.72038 45.8577 4.49251 46.0889 4.34277C46.32 4.18978 46.5609 4.11328 46.8115 4.11328C47.0003 4.11328 47.2021 4.1735 47.417 4.29395L47.0605 4.87012C46.9173 4.80827 46.7969 4.77734 46.6992 4.77734C46.4714 4.77734 46.2516 4.87174 46.04 5.06055C45.8285 5.24609 45.6673 5.53581 45.5566 5.92969C45.472 6.23242 45.4297 6.8444 45.4297 7.76562V9.5625H44.7314V4.25Z" fill="#D0DAED"/>
<path d="M80.5469 9.5625L81.5674 2.37988H81.6846L84.6045 8.27344L87.4951 2.37988H87.6123L88.6426 9.5625H87.9346L87.2314 4.42578L84.6924 9.5625H84.5117L81.9385 4.38672L81.2402 9.5625H80.5469ZM95.2441 4.25V9.5625H94.5703V8.64941C94.2839 8.99772 93.9616 9.25977 93.6035 9.43555C93.2487 9.61133 92.8597 9.69922 92.4365 9.69922C91.6846 9.69922 91.0417 9.42741 90.5078 8.88379C89.9772 8.33691 89.7119 7.67285 89.7119 6.8916C89.7119 6.12663 89.9805 5.47233 90.5176 4.92871C91.0547 4.38509 91.7008 4.11328 92.4561 4.11328C92.8923 4.11328 93.2861 4.20605 93.6377 4.3916C93.9925 4.57715 94.3034 4.85547 94.5703 5.22656V4.25H95.2441ZM92.5098 4.77246C92.1289 4.77246 91.7773 4.86686 91.4551 5.05566C91.1328 5.24121 90.8757 5.50326 90.6836 5.8418C90.4948 6.18034 90.4004 6.53841 90.4004 6.91602C90.4004 7.29036 90.4964 7.64844 90.6885 7.99023C90.8805 8.33203 91.1377 8.59896 91.46 8.79102C91.7855 8.97982 92.1338 9.07422 92.5049 9.07422C92.8792 9.07422 93.234 8.97982 93.5693 8.79102C93.9046 8.60221 94.1618 8.34668 94.3408 8.02441C94.5231 7.70215 94.6143 7.33919 94.6143 6.93555C94.6143 6.32031 94.4108 5.80599 94.0039 5.39258C93.6003 4.97917 93.1022 4.77246 92.5098 4.77246ZM96.2158 4.25H96.9385L98.7646 8.3418L100.537 4.25H101.265L98.0957 11.5059H97.373L98.3984 9.16211L96.2158 4.25Z" fill="#D0DAED"/>
<path d="M133.223 2.37988H133.945V7.22852C133.945 7.97396 133.887 8.49316 133.77 8.78613C133.656 9.07585 133.464 9.30859 133.193 9.48438C132.923 9.6569 132.596 9.74316 132.212 9.74316C131.922 9.74316 131.636 9.6862 131.353 9.57227C131.073 9.46159 130.762 9.26465 130.42 8.98145L130.801 8.41016C131.175 8.67383 131.486 8.85938 131.733 8.9668C131.896 9.03841 132.056 9.07422 132.212 9.07422C132.417 9.07422 132.603 9.01237 132.769 8.88867C132.938 8.76497 133.055 8.60059 133.12 8.39551C133.188 8.19043 133.223 7.79329 133.223 7.2041V2.37988ZM135.498 4.25H136.187V6.73047C136.187 7.33594 136.219 7.7526 136.284 7.98047C136.382 8.30599 136.567 8.56315 136.841 8.75195C137.118 8.94076 137.446 9.03516 137.827 9.03516C138.208 9.03516 138.53 8.94401 138.794 8.76172C139.061 8.57617 139.245 8.33366 139.346 8.03418C139.414 7.8291 139.448 7.39453 139.448 6.73047V4.25H140.146V6.85742C140.146 7.58984 140.06 8.1416 139.888 8.5127C139.718 8.88379 139.461 9.17513 139.116 9.38672C138.774 9.59505 138.345 9.69922 137.827 9.69922C137.31 9.69922 136.877 9.59505 136.528 9.38672C136.183 9.17513 135.924 8.88216 135.752 8.50781C135.583 8.13021 135.498 7.5638 135.498 6.80859V4.25ZM141.67 4.25H142.354V5.20215C142.627 4.83757 142.93 4.56576 143.262 4.38672C143.594 4.20443 143.955 4.11328 144.346 4.11328C144.743 4.11328 145.094 4.21419 145.4 4.41602C145.71 4.61784 145.938 4.88965 146.084 5.23145C146.23 5.57324 146.304 6.10547 146.304 6.82812V9.5625H145.625V7.02832C145.625 6.41634 145.599 6.00781 145.547 5.80273C145.465 5.45117 145.312 5.1875 145.088 5.01172C144.863 4.83268 144.57 4.74316 144.209 4.74316C143.796 4.74316 143.424 4.87988 143.096 5.15332C142.77 5.42676 142.555 5.7653 142.451 6.16895C142.386 6.43262 142.354 6.91439 142.354 7.61426V9.5625H141.67V4.25Z" fill="#D0DAED"/>
<path d="M183.223 2.37988H183.945V7.22852C183.945 7.97396 183.887 8.49316 183.77 8.78613C183.656 9.07585 183.464 9.30859 183.193 9.48438C182.923 9.6569 182.596 9.74316 182.212 9.74316C181.922 9.74316 181.636 9.6862 181.353 9.57227C181.073 9.46159 180.762 9.26465 180.42 8.98145L180.801 8.41016C181.175 8.67383 181.486 8.85938 181.733 8.9668C181.896 9.03841 182.056 9.07422 182.212 9.07422C182.417 9.07422 182.603 9.01237 182.769 8.88867C182.938 8.76497 183.055 8.60059 183.12 8.39551C183.188 8.19043 183.223 7.79329 183.223 7.2041V2.37988ZM185.498 4.25H186.187V6.73047C186.187 7.33594 186.219 7.7526 186.284 7.98047C186.382 8.30599 186.567 8.56315 186.841 8.75195C187.118 8.94076 187.446 9.03516 187.827 9.03516C188.208 9.03516 188.53 8.94401 188.794 8.76172C189.061 8.57617 189.245 8.33366 189.346 8.03418C189.414 7.8291 189.448 7.39453 189.448 6.73047V4.25H190.146V6.85742C190.146 7.58984 190.06 8.1416 189.888 8.5127C189.718 8.88379 189.461 9.17513 189.116 9.38672C188.774 9.59505 188.345 9.69922 187.827 9.69922C187.31 9.69922 186.877 9.59505 186.528 9.38672C186.183 9.17513 185.924 8.88216 185.752 8.50781C185.583 8.13021 185.498 7.5638 185.498 6.80859V4.25ZM191.567 2.19922H192.251V9.5625H191.567V2.19922Z" fill="#D0DAED"/>
<path d="M233.809 2.37988L237.158 9.5625H236.387L235.259 7.19922H232.163L231.04 9.5625H230.239L233.633 2.37988H233.809ZM233.721 3.90332L232.485 6.50586H234.941L233.721 3.90332ZM238.076 4.25H238.765V6.73047C238.765 7.33594 238.797 7.7526 238.862 7.98047C238.96 8.30599 239.146 8.56315 239.419 8.75195C239.696 8.94076 240.024 9.03516 240.405 9.03516C240.786 9.03516 241.108 8.94401 241.372 8.76172C241.639 8.57617 241.823 8.33366 241.924 8.03418C241.992 7.8291 242.026 7.39453 242.026 6.73047V4.25H242.725V6.85742C242.725 7.58984 242.638 8.1416 242.466 8.5127C242.297 8.88379 242.039 9.17513 241.694 9.38672C241.353 9.59505 240.923 9.69922 240.405 9.69922C239.888 9.69922 239.455 9.59505 239.106 9.38672C238.761 9.17513 238.503 8.88216 238.33 8.50781C238.161 8.13021 238.076 7.5638 238.076 6.80859V4.25ZM248.823 4.25H249.512V8.4834C249.512 9.22884 249.447 9.77409 249.316 10.1191C249.137 10.6074 248.826 10.9834 248.384 11.2471C247.941 11.5107 247.409 11.6426 246.787 11.6426C246.331 11.6426 245.921 11.5775 245.557 11.4473C245.195 11.3203 244.901 11.1478 244.673 10.9297C244.445 10.7148 244.235 10.3991 244.043 9.98242H244.785C244.987 10.334 245.247 10.5944 245.566 10.7637C245.885 10.9329 246.281 11.0176 246.753 11.0176C247.218 11.0176 247.611 10.9297 247.93 10.7539C248.252 10.5814 248.481 10.3633 248.618 10.0996C248.755 9.83594 248.823 9.41113 248.823 8.8252V8.55176C248.566 8.87728 248.252 9.12793 247.881 9.30371C247.51 9.47624 247.116 9.5625 246.699 9.5625C246.211 9.5625 245.752 9.44206 245.322 9.20117C244.893 8.95703 244.561 8.62988 244.326 8.21973C244.092 7.80957 243.975 7.35872 243.975 6.86719C243.975 6.37565 244.097 5.91829 244.341 5.49512C244.585 5.06868 244.922 4.73177 245.352 4.48438C245.785 4.23698 246.24 4.11328 246.719 4.11328C247.116 4.11328 247.485 4.19629 247.827 4.3623C248.172 4.52507 248.504 4.79525 248.823 5.17285V4.25ZM246.807 4.77246C246.419 4.77246 246.06 4.86686 245.728 5.05566C245.396 5.24121 245.135 5.5 244.946 5.83203C244.757 6.16081 244.663 6.51725 244.663 6.90137C244.663 7.48405 244.858 7.96582 245.249 8.34668C245.64 8.72754 246.146 8.91797 246.768 8.91797C247.396 8.91797 247.9 8.72917 248.281 8.35156C248.665 7.97396 248.857 7.47754 248.857 6.8623C248.857 6.46191 248.77 6.10547 248.594 5.79297C248.418 5.47721 248.169 5.22819 247.847 5.0459C247.524 4.86361 247.178 4.77246 246.807 4.77246Z" fill="#D0DAED"/>
<g clip-path="url(#clip0_685_2445)">
<rect x="30" y="17.5625" width="8" height="8" rx="2" fill="#151B34"/>
<rect x="30" y="28.5625" width="8" height="8" rx="2" fill="#EEBC1C"/>
<rect x="30" y="39.5625" width="8" height="8" rx="2" fill="#151B34"/>
<rect x="30" y="50.5625" width="8" height="8" rx="2" fill="#151B34"/>
<rect x="30" y="61.5625" width="8" height="8" rx="2" fill="#151B34"/>
<rect x="30" y="72.5625" width="8" height="8" rx="2" fill="#151B34"/>
<rect x="30" y="83.5625" width="8" height="8" rx="2" fill="#151B34"/>
<rect x="41" y="17.5625" width="8" height="8" rx="2" fill="#151B34"/>
<rect x="41" y="28.5625" width="8" height="8" rx="2" fill="#EEBC1C"/>
<rect x="41" y="39.5625" width="8" height="8" rx="2" fill="#151B34"/>
<rect x="41" y="50.5625" width="8" height="8" rx="2" fill="#151B34"/>
<rect x="41" y="61.5625" width="8" height="8" rx="2" fill="#8BC751"/>
<rect x="41" y="61.5625" width="8" height="8" rx="2" fill="black" fill-opacity="0.2"/>
<rect x="41" y="72.5625" width="8" height="8" rx="2" fill="#8BC751"/>
<rect x="41" y="72.5625" width="8" height="8" rx="2" fill="black" fill-opacity="0.2"/>
<rect x="41" y="83.5625" width="8" height="8" rx="2" fill="#8BC751"/>
<rect x="41" y="83.5625" width="8" height="8" rx="2" fill="black" fill-opacity="0.2"/>
<rect x="52" y="17.5625" width="8" height="8" rx="2" fill="#EEBC1C"/>
<rect x="52" y="28.5625" width="8" height="8" rx="2" fill="#151B34"/>
<rect x="52" y="39.5625" width="8" height="8" rx="2" fill="#151B34"/>
<rect x="52" y="50.5625" width="8" height="8" rx="2" fill="#151B34"/>
<rect x="52" y="61.5625" width="8" height="8" rx="2" fill="#7992CA"/>
<rect x="52" y="72.5625" width="8" height="8" rx="2" fill="#151B34"/>
<rect x="52" y="83.5625" width="8" height="8" rx="2" fill="#8BC751"/>
<rect x="52" y="83.5625" width="8" height="8" rx="2" fill="black" fill-opacity="0.2"/>
<rect x="63" y="17.5625" width="8" height="8" rx="2" fill="#151B34"/>
<rect x="63" y="28.5625" width="8" height="8" rx="2" fill="#151B34"/>
<rect x="63" y="39.5625" width="8" height="8" rx="2" fill="#8BC751"/>
<rect x="63" y="39.5625" width="8" height="8" rx="2" fill="black" fill-opacity="0.2"/>
<rect x="63" y="50.5625" width="8" height="8" rx="2" fill="#151B34"/>
<rect x="63" y="61.5625" width="8" height="8" rx="2" fill="#151B34"/>
<rect x="63" y="72.5625" width="8" height="8" rx="2" fill="#151B34"/>
<rect x="63" y="83.5625" width="8" height="8" rx="2" fill="#151B34"/>
<rect x="74" y="17.5625" width="8" height="8" rx="2" fill="#151B34"/>
<rect x="74" y="28.5625" width="8" height="8" rx="2" fill="#7992CA"/>
<rect x="74" y="39.5625" width="8" height="8" rx="2" fill="#7992CA"/>
<rect x="74" y="50.5625" width="8" height="8" rx="2" fill="#151B34"/>
<rect x="74" y="61.5625" width="8" height="8" rx="2" fill="#151B34"/>
<rect x="74" y="72.5625" width="8" height="8" rx="2" fill="#EEBC1C"/>
<rect x="74" y="83.5625" width="8" height="8" rx="2" fill="#151B34"/>
<rect x="85" y="17.5625" width="8" height="8" rx="2" fill="#151B34"/>
<rect x="85" y="28.5625" width="8" height="8" rx="2" fill="#151B34"/>
<rect x="85" y="39.5625" width="8" height="8" rx="2" fill="#151B34"/>
<rect x="85" y="50.5625" width="8" height="8" rx="2" fill="#151B34"/>
<rect x="85" y="61.5625" width="8" height="8" rx="2" fill="#7992CA"/>
<rect x="85" y="72.5625" width="8" height="8" rx="2" fill="#151B34"/>
<rect x="85" y="83.5625" width="8" height="8" rx="2" fill="#151B34"/>
<rect x="96" y="17.5625" width="8" height="8" rx="2" fill="#151B34"/>
<rect x="96" y="28.5625" width="8" height="8" rx="2" fill="#151B34"/>
<rect x="96" y="39.5625" width="8" height="8" rx="2" fill="#EEBC1C"/>
<rect x="96" y="50.5625" width="8" height="8" rx="2" fill="#151B34"/>
<rect x="96" y="61.5625" width="8" height="8" rx="2" fill="#EEBC1C"/>
<rect x="96" y="72.5625" width="8" height="8" rx="2" fill="#151B34"/>
<rect x="96" y="83.5625" width="8" height="8" rx="2" fill="#151B34"/>
<rect x="107" y="17.5625" width="8" height="8" rx="2" fill="#151B34"/>
<rect x="107" y="28.5625" width="8" height="8" rx="2" fill="#151B34"/>
<rect x="107" y="39.5625" width="8" height="8" rx="2" fill="#151B34"/>
<rect x="107" y="50.5625" width="8" height="8" rx="2" fill="#8BC751"/>
<rect x="107" y="50.5625" width="8" height="8" rx="2" fill="black" fill-opacity="0.2"/>
<rect x="107" y="61.5625" width="8" height="8" rx="2" fill="#151B34"/>
<rect x="107" y="72.5625" width="8" height="8" rx="2" fill="#151B34"/>
<rect x="107" y="83.5625" width="8" height="8" rx="2" fill="#7992CA"/>
<rect x="118" y="17.5625" width="8" height="8" rx="2" fill="#7992CA"/>
<rect x="118" y="28.5625" width="8" height="8" rx="2" fill="#7992CA"/>
<rect x="118" y="39.5625" width="8" height="8" rx="2" fill="#7992CA"/>
<rect x="118" y="50.5625" width="8" height="8" rx="2" fill="#151B34"/>
<rect x="118" y="61.5625" width="8" height="8" rx="2" fill="#151B34"/>
<rect x="118" y="72.5625" width="8" height="8" rx="2" fill="#151B34"/>
<rect x="118" y="83.5625" width="8" height="8" rx="2" fill="#7992CA"/>
<rect x="129" y="17.5625" width="8" height="8" rx="2" fill="#151B34"/>
<rect x="129" y="28.5625" width="8" height="8" rx="2" fill="#151B34"/>
<rect x="129" y="39.5625" width="8" height="8" rx="2" fill="#151B34"/>
<rect x="129" y="50.5625" width="8" height="8" rx="2" fill="#7992CA"/>
<rect x="129" y="61.5625" width="8" height="8" rx="2" fill="#7992CA"/>
<rect x="129" y="72.5625" width="8" height="8" rx="2" fill="#7992CA"/>
<rect x="129" y="83.5625" width="8" height="8" rx="2" fill="#151B34"/>
<rect x="140" y="17.5625" width="8" height="8" rx="2" fill="#151B34"/>
<rect x="140" y="28.5625" width="8" height="8" rx="2" fill="#151B34"/>
<rect x="140" y="39.5625" width="8" height="8" rx="2" fill="#8BC751"/>
<rect x="140" y="39.5625" width="8" height="8" rx="2" fill="black" fill-opacity="0.2"/>
<rect x="140" y="50.5625" width="8" height="8" rx="2" fill="#7992CA"/>
<rect x="140" y="61.5625" width="8" height="8" rx="2" fill="#151B34"/>
<rect x="140" y="72.5625" width="8" height="8" rx="2" fill="#EEBC1C"/>
<rect x="140" y="83.5625" width="8" height="8" rx="2" fill="#EEBC1C"/>
<rect x="151" y="17.5625" width="8" height="8" rx="2" fill="#151B34"/>
<rect x="151" y="28.5625" width="8" height="8" rx="2" fill="#151B34"/>
<rect x="151" y="39.5625" width="8" height="8" rx="2" fill="#7992CA"/>
<rect x="151" y="50.5625" width="8" height="8" rx="2" fill="#151B34"/>
<rect x="151" y="61.5625" width="8" height="8" rx="2" fill="#151B34"/>
<rect x="151" y="72.5625" width="8" height="8" rx="2" fill="#151B34"/>
<rect x="151" y="83.5625" width="8" height="8" rx="2" fill="#151B34"/>
<rect x="162" y="17.5625" width="8" height="8" rx="2" fill="#151B34"/>
<rect x="162" y="28.5625" width="8" height="8" rx="2" fill="#151B34"/>
<rect x="162" y="39.5625" width="8" height="8" rx="2" fill="#151B34"/>
<rect x="162" y="50.5625" width="8" height="8" rx="2" fill="#8BC751"/>
<rect x="162" y="50.5625" width="8" height="8" rx="2" fill="black" fill-opacity="0.2"/>
<rect x="162" y="61.5625" width="8" height="8" rx="2" fill="#8BC751"/>
<rect x="162" y="61.5625" width="8" height="8" rx="2" fill="black" fill-opacity="0.2"/>
<rect x="162" y="72.5625" width="8" height="8" rx="2" fill="#151B34"/>
<rect x="162" y="83.5625" width="8" height="8" rx="2" fill="#151B34"/>
<rect x="173" y="17.5625" width="8" height="8" rx="2" fill="#151B34"/>
<rect x="173" y="28.5625" width="8" height="8" rx="2" fill="#7992CA"/>
<rect x="173" y="39.5625" width="8" height="8" rx="2" fill="#151B34"/>
<rect x="173" y="50.5625" width="8" height="8" rx="2" fill="#151B34"/>
<rect x="173" y="61.5625" width="8" height="8" rx="2" fill="#151B34"/>
<rect x="173" y="72.5625" width="8" height="8" rx="2" fill="#151B34"/>
<rect x="173" y="83.5625" width="8" height="8" rx="2" fill="#151B34"/>
<rect x="184" y="17.5625" width="8" height="8" rx="2" fill="#151B34"/>
<rect x="184" y="28.5625" width="8" height="8" rx="2" fill="#151B34"/>
<rect x="184" y="39.5625" width="8" height="8" rx="2" fill="#8BC751"/>
<rect x="184" y="39.5625" width="8" height="8" rx="2" fill="black" fill-opacity="0.2"/>
<rect x="184" y="50.5625" width="8" height="8" rx="2" fill="#151B34"/>
<rect x="184" y="61.5625" width="8" height="8" rx="2" fill="#151B34"/>
<rect x="184" y="72.5625" width="8" height="8" rx="2" fill="#151B34"/>
<rect x="184" y="83.5625" width="8" height="8" rx="2" fill="#151B34"/>
<rect x="195" y="17.5625" width="8" height="8" rx="2" fill="#EEBC1C"/>
<rect x="195" y="28.5625" width="8" height="8" rx="2" fill="#151B34"/>
<rect x="195" y="39.5625" width="8" height="8" rx="2" fill="#151B34"/>
<rect x="195" y="50.5625" width="8" height="8" rx="2" fill="#EEBC1C"/>
<rect x="195" y="61.5625" width="8" height="8" rx="2" fill="#EEBC1C"/>
<rect x="195" y="72.5625" width="8" height="8" rx="2" fill="#151B34"/>
<rect x="195" y="83.5625" width="8" height="8" rx="2" fill="#151B34"/>
<rect x="206" y="17.5625" width="8" height="8" rx="2" fill="#8BC751"/>
<rect x="206" y="17.5625" width="8" height="8" rx="2" fill="black" fill-opacity="0.2"/>
<rect x="206" y="28.5625" width="8" height="8" rx="2" fill="#151B34"/>
<rect x="206" y="39.5625" width="8" height="8" rx="2" fill="#8BC751"/>
<rect x="206" y="39.5625" width="8" height="8" rx="2" fill="black" fill-opacity="0.2"/>
<rect x="206" y="50.5625" width="8" height="8" rx="2" fill="#151B34"/>
<rect x="206" y="61.5625" width="8" height="8" rx="2" fill="#151B34"/>
<rect x="206" y="72.5625" width="8" height="8" rx="2" fill="#151B34"/>
<rect x="206" y="83.5625" width="8" height="8" rx="2" fill="#8BC751"/>
<rect x="206" y="83.5625" width="8" height="8" rx="2" fill="black" fill-opacity="0.2"/>
<rect x="217" y="17.5625" width="8" height="8" rx="2" fill="#151B34"/>
<rect x="217" y="28.5625" width="8" height="8" rx="2" fill="#151B34"/>
<rect x="217" y="39.5625" width="8" height="8" rx="2" fill="#151B34"/>
<rect x="217" y="50.5625" width="8" height="8" rx="2" fill="#7992CA"/>
<rect x="217" y="61.5625" width="8" height="8" rx="2" fill="#151B34"/>
<rect x="217" y="72.5625" width="8" height="8" rx="2" fill="#151B34"/>
<rect x="217" y="83.5625" width="8" height="8" rx="2" fill="#151B34"/>
<rect x="228" y="17.5625" width="8" height="8" rx="2" fill="#151B34"/>
<rect x="228" y="28.5625" width="8" height="8" rx="2" fill="#7992CA"/>
<rect x="228" y="39.5625" width="8" height="8" rx="2" fill="#7992CA"/>
<rect x="228" y="50.5625" width="8" height="8" rx="2" fill="#151B34"/>
<rect x="228" y="61.5625" width="8" height="8" rx="2" fill="#151B34"/>
<rect x="228" y="72.5625" width="8" height="8" rx="2" fill="#7992CA"/>
<rect x="228" y="83.5625" width="8" height="8" rx="2" fill="#151B34"/>
<rect x="239" y="17.5625" width="8" height="8" rx="2" fill="#151B34"/>
<rect x="239" y="28.5625" width="8" height="8" rx="2" fill="#151B34"/>
<rect x="239" y="39.5625" width="8" height="8" rx="2" fill="#8BC751"/>
<rect x="239" y="39.5625" width="8" height="8" rx="2" fill="black" fill-opacity="0.2"/>
<rect x="239" y="50.5625" width="8" height="8" rx="2" fill="#151B34"/>
<rect x="239" y="61.5625" width="8" height="8" rx="2" fill="#151B34"/>
<rect x="239" y="72.5625" width="8" height="8" rx="2" fill="#151B34"/>
<rect x="239" y="83.5625" width="8" height="8" rx="2" fill="#151B34"/>
<rect x="250" y="17.5625" width="8" height="8" rx="2" fill="#151B34"/>
<rect x="250" y="28.5625" width="8" height="8" rx="2" fill="#151B34"/>
<rect x="250" y="39.5625" width="8" height="8" rx="2" fill="#151B34"/>
<rect x="250" y="50.5625" width="8" height="8" rx="2" fill="#7992CA"/>
<rect x="250" y="61.5625" width="8" height="8" rx="2" fill="#151B34"/>
<rect x="250" y="72.5625" width="8" height="8" rx="2" fill="#EEBC1C"/>
<rect x="250" y="83.5625" width="8" height="8" rx="2" fill="#EEBC1C"/>
<rect x="261" y="17.5625" width="3" height="8" rx="1.5" fill="url(#paint0_linear_685_2445)"/>
<rect x="261" y="28.5625" width="3" height="8" rx="1.5" fill="url(#paint1_linear_685_2445)"/>
<rect x="261" y="39.5625" width="3" height="8" rx="1.5" fill="url(#paint2_linear_685_2445)"/>
<rect x="261" y="50.5625" width="3" height="8" rx="1.5" fill="url(#paint3_linear_685_2445)"/>
<rect x="261" y="61.5625" width="3" height="8" rx="1.5" fill="url(#paint4_linear_685_2445)"/>
<rect x="261" y="72.5625" width="3" height="8" rx="1.5" fill="url(#paint5_linear_685_2445)"/>
<rect x="261" y="83.5625" width="3" height="8" rx="1.5" fill="url(#paint6_linear_685_2445)"/>
</g>
<path d="M44.1289 111.25V110.691H47.2812V111.25H46V116.438H45.4141V111.25H44.1289ZM51.8359 112.188V116.438H51.2969V115.707C51.0677 115.986 50.8099 116.195 50.5234 116.336C50.2396 116.477 49.9284 116.547 49.5898 116.547C48.9883 116.547 48.474 116.329 48.0469 115.895C47.6224 115.457 47.4102 114.926 47.4102 114.301C47.4102 113.689 47.625 113.165 48.0547 112.73C48.4844 112.296 49.0013 112.078 49.6055 112.078C49.9544 112.078 50.2695 112.152 50.5508 112.301C50.8346 112.449 51.0833 112.672 51.2969 112.969V112.188H51.8359ZM49.6484 112.605C49.3438 112.605 49.0625 112.681 48.8047 112.832C48.5469 112.98 48.3411 113.19 48.1875 113.461C48.0365 113.732 47.9609 114.018 47.9609 114.32C47.9609 114.62 48.0378 114.906 48.1914 115.18C48.3451 115.453 48.5508 115.667 48.8086 115.82C49.069 115.971 49.3477 116.047 49.6445 116.047C49.944 116.047 50.2279 115.971 50.4961 115.82C50.7643 115.669 50.9701 115.465 51.1133 115.207C51.2591 114.949 51.332 114.659 51.332 114.336C51.332 113.844 51.1693 113.432 50.8438 113.102C50.5208 112.771 50.1224 112.605 49.6484 112.605ZM52.9883 110.547H53.5352V116.438H52.9883V110.547ZM54.668 110.547H55.2188V113.898L57.1836 112.188H57.9883L55.6562 114.215L58.125 116.438H57.3516L55.2188 114.527V116.438H54.668V110.547ZM62.2656 115.027L62.7266 115.27C62.5755 115.566 62.401 115.806 62.2031 115.988C62.0052 116.171 61.7826 116.31 61.5352 116.406C61.2878 116.5 61.0078 116.547 60.6953 116.547C60.0026 116.547 59.4609 116.32 59.0703 115.867C58.6797 115.411 58.4844 114.897 58.4844 114.324C58.4844 113.785 58.6497 113.305 58.9805 112.883C59.3997 112.346 59.9609 112.078 60.6641 112.078C61.388 112.078 61.9661 112.353 62.3984 112.902C62.7057 113.29 62.862 113.775 62.8672 114.355H59.0469C59.0573 114.85 59.2148 115.257 59.5195 115.574C59.8242 115.889 60.2005 116.047 60.6484 116.047C60.8646 116.047 61.0742 116.009 61.2773 115.934C61.4831 115.858 61.6576 115.758 61.8008 115.633C61.944 115.508 62.099 115.306 62.2656 115.027ZM62.2656 113.883C62.1927 113.591 62.0859 113.358 61.9453 113.184C61.8073 113.009 61.6237 112.868 61.3945 112.762C61.1654 112.655 60.9245 112.602 60.6719 112.602C60.2552 112.602 59.8971 112.736 59.5977 113.004C59.3789 113.199 59.2135 113.492 59.1016 113.883H62.2656ZM68.1328 110.547V116.438H67.5938V115.707C67.3646 115.986 67.1068 116.195 66.8203 116.336C66.5365 116.477 66.2253 116.547 65.8867 116.547C65.2852 116.547 64.7708 116.329 64.3438 115.895C63.9193 115.457 63.707 114.926 63.707 114.301C63.707 113.689 63.9219 113.165 64.3516 112.73C64.7812 112.296 65.2982 112.078 65.9023 112.078C66.2513 112.078 66.5664 112.152 66.8477 112.301C67.1315 112.449 67.3802 112.672 67.5938 112.969V110.547H68.1328ZM65.9453 112.605C65.6406 112.605 65.3594 112.681 65.1016 112.832C64.8438 112.98 64.638 113.19 64.4844 113.461C64.3333 113.732 64.2578 114.018 64.2578 114.32C64.2578 114.62 64.3346 114.906 64.4883 115.18C64.6419 115.453 64.8477 115.667 65.1055 115.82C65.3659 115.971 65.6445 116.047 65.9414 116.047C66.2409 116.047 66.5247 115.971 66.793 115.82C67.0612 115.669 67.2669 115.465 67.4102 115.207C67.556 114.949 67.6289 114.659 67.6289 114.336C67.6289 113.844 67.4661 113.432 67.1406 113.102C66.8177 112.771 66.4193 112.605 65.9453 112.605ZM71.0195 112.188H71.582L72.8828 115.273L74.2461 112.188H74.3438L75.7031 115.273L77.0273 112.188H77.5977L75.7539 116.438H75.6484L74.2969 113.395L72.9336 116.438H72.832L71.0195 112.188ZM78.4336 110.438C78.5586 110.438 78.6654 110.482 78.7539 110.57C78.8424 110.659 78.8867 110.766 78.8867 110.891C78.8867 111.013 78.8424 111.118 78.7539 111.207C78.6654 111.296 78.5586 111.34 78.4336 111.34C78.3112 111.34 78.2057 111.296 78.1172 111.207C78.0286 111.118 77.9844 111.013 77.9844 110.891C77.9844 110.766 78.0286 110.659 78.1172 110.57C78.2057 110.482 78.3112 110.438 78.4336 110.438ZM78.1602 112.188H78.7109V116.438H78.1602V112.188ZM80.3203 110.609H80.8711V112.188H81.7383V112.656H80.8711V116.438H80.3203V112.656H79.5742V112.188H80.3203V110.609ZM82.5547 110.547H83.1016V112.949C83.3229 112.658 83.5664 112.44 83.832 112.297C84.0977 112.151 84.3854 112.078 84.6953 112.078C85.013 112.078 85.2943 112.159 85.5391 112.32C85.7865 112.482 85.9688 112.699 86.0859 112.973C86.2031 113.243 86.2617 113.669 86.2617 114.25V116.438H85.7148V114.41C85.7148 113.921 85.6953 113.594 85.6562 113.43C85.5885 113.148 85.4648 112.938 85.2852 112.797C85.1081 112.654 84.875 112.582 84.5859 112.582C84.2552 112.582 83.9583 112.691 83.6953 112.91C83.4349 113.129 83.263 113.4 83.1797 113.723C83.1276 113.931 83.1016 114.316 83.1016 114.879V116.438H82.5547V110.547ZM93.8906 112.188V116.438H93.3516V115.707C93.1224 115.986 92.8646 116.195 92.5781 116.336C92.2943 116.477 91.9831 116.547 91.6445 116.547C91.043 116.547 90.5286 116.329 90.1016 115.895C89.6771 115.457 89.4648 114.926 89.4648 114.301C89.4648 113.689 89.6797 113.165 90.1094 112.73C90.5391 112.296 91.056 112.078 91.6602 112.078C92.0091 112.078 92.3242 112.152 92.6055 112.301C92.8893 112.449 93.138 112.672 93.3516 112.969V112.188H93.8906ZM91.7031 112.605C91.3984 112.605 91.1172 112.681 90.8594 112.832C90.6016 112.98 90.3958 113.19 90.2422 113.461C90.0911 113.732 90.0156 114.018 90.0156 114.32C90.0156 114.62 90.0924 114.906 90.2461 115.18C90.3997 115.453 90.6055 115.667 90.8633 115.82C91.1237 115.971 91.4023 116.047 91.6992 116.047C91.9987 116.047 92.2826 115.971 92.5508 115.82C92.819 115.669 93.0247 115.465 93.168 115.207C93.3138 114.949 93.3867 114.659 93.3867 114.336C93.3867 113.844 93.224 113.432 92.8984 113.102C92.5755 112.771 92.1771 112.605 91.7031 112.605ZM95.1328 112.188H95.6758V112.969C95.8919 112.672 96.1406 112.449 96.4219 112.301C96.7031 112.152 97.0169 112.078 97.3633 112.078C97.9674 112.078 98.4844 112.296 98.9141 112.73C99.3438 113.165 99.5586 113.689 99.5586 114.301C99.5586 114.926 99.3451 115.457 98.918 115.895C98.4935 116.329 97.9805 116.547 97.3789 116.547C97.0404 116.547 96.7292 116.477 96.4453 116.336C96.1615 116.195 95.9049 115.986 95.6758 115.707V117.992H95.1328V112.188ZM97.3203 112.605C96.8464 112.605 96.4466 112.771 96.1211 113.102C95.7982 113.432 95.6367 113.844 95.6367 114.336C95.6367 114.659 95.7083 114.949 95.8516 115.207C95.9974 115.465 96.2044 115.669 96.4727 115.82C96.7435 115.971 97.0286 116.047 97.3281 116.047C97.6224 116.047 97.8984 115.971 98.1562 115.82C98.4167 115.667 98.6237 115.453 98.7773 115.18C98.931 114.906 99.0078 114.62 99.0078 114.32C99.0078 114.018 98.931 113.732 98.7773 113.461C98.6263 113.19 98.4219 112.98 98.1641 112.832C97.9062 112.681 97.625 112.605 97.3203 112.605ZM100.594 112.188H101.137V112.969C101.353 112.672 101.602 112.449 101.883 112.301C102.164 112.152 102.478 112.078 102.824 112.078C103.428 112.078 103.945 112.296 104.375 112.73C104.805 113.165 105.02 113.689 105.02 114.301C105.02 114.926 104.806 115.457 104.379 115.895C103.954 116.329 103.441 116.547 102.84 116.547C102.501 116.547 102.19 116.477 101.906 116.336C101.622 116.195 101.366 115.986 101.137 115.707V117.992H100.594V112.188ZM102.781 112.605C102.307 112.605 101.908 112.771 101.582 113.102C101.259 113.432 101.098 113.844 101.098 114.336C101.098 114.659 101.169 114.949 101.312 115.207C101.458 115.465 101.665 115.669 101.934 115.82C102.204 115.971 102.49 116.047 102.789 116.047C103.083 116.047 103.359 115.971 103.617 115.82C103.878 115.667 104.085 115.453 104.238 115.18C104.392 114.906 104.469 114.62 104.469 114.32C104.469 114.018 104.392 113.732 104.238 113.461C104.087 113.19 103.883 112.98 103.625 112.832C103.367 112.681 103.086 112.605 102.781 112.605Z" fill="#D0DAED"/>
<rect x="30" y="109.438" width="8" height="8" rx="2" fill="#7992CA"/>
<path d="M44.6953 126.691H45.8398C46.4961 126.691 46.9388 126.72 47.168 126.777C47.4961 126.858 47.7643 127.025 47.9727 127.277C48.181 127.527 48.2852 127.842 48.2852 128.223C48.2852 128.605 48.1836 128.922 47.9805 129.172C47.7773 129.419 47.4974 129.586 47.1406 129.672C46.8802 129.734 46.3932 129.766 45.6797 129.766H45.2695V132.438H44.6953V126.691ZM45.2695 127.25V129.203L46.2422 129.215C46.6354 129.215 46.9232 129.18 47.1055 129.109C47.2878 129.036 47.431 128.921 47.5352 128.762C47.6393 128.6 47.6914 128.421 47.6914 128.223C47.6914 128.03 47.6393 127.854 47.5352 127.695C47.431 127.534 47.293 127.419 47.1211 127.352C46.9518 127.284 46.6732 127.25 46.2852 127.25H45.2695ZM53.5781 128.188V132.438H53.0391V131.707C52.8099 131.986 52.5521 132.195 52.2656 132.336C51.9818 132.477 51.6706 132.547 51.332 132.547C50.7305 132.547 50.2161 132.329 49.7891 131.895C49.3646 131.457 49.1523 130.926 49.1523 130.301C49.1523 129.689 49.3672 129.165 49.7969 128.73C50.2266 128.296 50.7435 128.078 51.3477 128.078C51.6966 128.078 52.0117 128.152 52.293 128.301C52.5768 128.449 52.8255 128.672 53.0391 128.969V128.188H53.5781ZM51.3906 128.605C51.0859 128.605 50.8047 128.681 50.5469 128.832C50.2891 128.98 50.0833 129.19 49.9297 129.461C49.7786 129.732 49.7031 130.018 49.7031 130.32C49.7031 130.62 49.7799 130.906 49.9336 131.18C50.0872 131.453 50.293 131.667 50.5508 131.82C50.8112 131.971 51.0898 132.047 51.3867 132.047C51.6862 132.047 51.9701 131.971 52.2383 131.82C52.5065 131.669 52.7122 131.465 52.8555 131.207C53.0013 130.949 53.0742 130.659 53.0742 130.336C53.0742 129.844 52.9115 129.432 52.5859 129.102C52.263 128.771 51.8646 128.605 51.3906 128.605ZM54.6055 128.188H55.1641V128.809C55.3307 128.564 55.5065 128.382 55.6914 128.262C55.8763 128.139 56.069 128.078 56.2695 128.078C56.4206 128.078 56.582 128.126 56.7539 128.223L56.4688 128.684C56.3542 128.634 56.2578 128.609 56.1797 128.609C55.9974 128.609 55.8216 128.685 55.6523 128.836C55.4831 128.984 55.3542 129.216 55.2656 129.531C55.1979 129.773 55.1641 130.263 55.1641 131V132.438H54.6055V128.188ZM57.6953 126.609H58.2461V128.188H59.1133V128.656H58.2461V132.438H57.6953V128.656H56.9492V128.188H57.6953V126.609ZM60.1211 126.438C60.2461 126.438 60.3529 126.482 60.4414 126.57C60.5299 126.659 60.5742 126.766 60.5742 126.891C60.5742 127.013 60.5299 127.118 60.4414 127.207C60.3529 127.296 60.2461 127.34 60.1211 127.34C59.9987 127.34 59.8932 127.296 59.8047 127.207C59.7161 127.118 59.6719 127.013 59.6719 126.891C59.6719 126.766 59.7161 126.659 59.8047 126.57C59.8932 126.482 59.9987 126.438 60.1211 126.438ZM59.8477 128.188H60.3984V132.438H59.8477V128.188ZM65.7656 128.188V132.438H65.2266V131.707C64.9974 131.986 64.7396 132.195 64.4531 132.336C64.1693 132.477 63.8581 132.547 63.5195 132.547C62.918 132.547 62.4036 132.329 61.9766 131.895C61.5521 131.457 61.3398 130.926 61.3398 130.301C61.3398 129.689 61.5547 129.165 61.9844 128.73C62.4141 128.296 62.931 128.078 63.5352 128.078C63.8841 128.078 64.1992 128.152 64.4805 128.301C64.7643 128.449 65.013 128.672 65.2266 128.969V128.188H65.7656ZM63.5781 128.605C63.2734 128.605 62.9922 128.681 62.7344 128.832C62.4766 128.98 62.2708 129.19 62.1172 129.461C61.9661 129.732 61.8906 130.018 61.8906 130.32C61.8906 130.62 61.9674 130.906 62.1211 131.18C62.2747 131.453 62.4805 131.667 62.7383 131.82C62.9987 131.971 63.2773 132.047 63.5742 132.047C63.8737 132.047 64.1576 131.971 64.4258 131.82C64.694 131.669 64.8997 131.465 65.043 131.207C65.1888 130.949 65.2617 130.659 65.2617 130.336C65.2617 129.844 65.099 129.432 64.7734 129.102C64.4505 128.771 64.0521 128.605 63.5781 128.605ZM66.918 126.547H67.4648V132.438H66.918V126.547ZM68.5195 126.547H69.0664V132.438H68.5195V126.547ZM69.7461 128.188H70.3242L71.7852 131.461L73.2031 128.188H73.7852L71.25 133.992H70.6719L71.4922 132.117L69.7461 128.188ZM80.8359 129.07L80.4023 129.34C80.0273 128.842 79.5156 128.594 78.8672 128.594C78.349 128.594 77.918 128.76 77.5742 129.094C77.2331 129.427 77.0625 129.832 77.0625 130.309C77.0625 130.618 77.1406 130.91 77.2969 131.184C77.4557 131.457 77.6719 131.669 77.9453 131.82C78.2214 131.971 78.5299 132.047 78.8711 132.047C79.4961 132.047 80.0065 131.798 80.4023 131.301L80.8359 131.586C80.6328 131.891 80.3594 132.128 80.0156 132.297C79.6745 132.464 79.2852 132.547 78.8477 132.547C78.1758 132.547 77.6185 132.333 77.1758 131.906C76.7331 131.479 76.5117 130.96 76.5117 130.348C76.5117 129.936 76.6146 129.555 76.8203 129.203C77.0286 128.849 77.3138 128.573 77.6758 128.375C78.0378 128.177 78.4427 128.078 78.8906 128.078C79.1719 128.078 79.4427 128.121 79.7031 128.207C79.9661 128.293 80.1888 128.405 80.3711 128.543C80.5534 128.681 80.7083 128.857 80.8359 129.07ZM83.9023 128.078C84.556 128.078 85.0977 128.315 85.5273 128.789C85.918 129.221 86.1133 129.733 86.1133 130.324C86.1133 130.918 85.9062 131.438 85.4922 131.883C85.0807 132.326 84.5508 132.547 83.9023 132.547C83.2513 132.547 82.7188 132.326 82.3047 131.883C81.8932 131.438 81.6875 130.918 81.6875 130.324C81.6875 129.736 81.8828 129.225 82.2734 128.793C82.7031 128.316 83.2461 128.078 83.9023 128.078ZM83.9023 128.613C83.4492 128.613 83.0599 128.781 82.7344 129.117C82.4089 129.453 82.2461 129.859 82.2461 130.336C82.2461 130.643 82.3203 130.93 82.4688 131.195C82.6172 131.461 82.8177 131.667 83.0703 131.812C83.3229 131.956 83.6003 132.027 83.9023 132.027C84.2044 132.027 84.4818 131.956 84.7344 131.812C84.987 131.667 85.1875 131.461 85.3359 131.195C85.4844 130.93 85.5586 130.643 85.5586 130.336C85.5586 129.859 85.3945 129.453 85.0664 129.117C84.7409 128.781 84.3529 128.613 83.9023 128.613ZM87.1289 128.188H87.6719V128.922C87.862 128.651 88.0573 128.453 88.2578 128.328C88.5339 128.161 88.8242 128.078 89.1289 128.078C89.3346 128.078 89.5299 128.118 89.7148 128.199C89.8997 128.28 90.0508 128.388 90.168 128.523C90.2852 128.656 90.3867 128.848 90.4727 129.098C90.6549 128.764 90.8828 128.512 91.1562 128.34C91.4297 128.165 91.724 128.078 92.0391 128.078C92.3333 128.078 92.5924 128.152 92.8164 128.301C93.043 128.449 93.2109 128.656 93.3203 128.922C93.4297 129.188 93.4844 129.586 93.4844 130.117V132.438H92.9258V130.117C92.9258 129.661 92.8932 129.349 92.8281 129.18C92.763 129.008 92.651 128.87 92.4922 128.766C92.3359 128.661 92.1484 128.609 91.9297 128.609C91.6641 128.609 91.4206 128.688 91.1992 128.844C90.9805 129 90.8203 129.208 90.7188 129.469C90.6172 129.729 90.5664 130.164 90.5664 130.773V132.438H90.0234V130.262C90.0234 129.749 89.9909 129.401 89.9258 129.219C89.8633 129.034 89.7526 128.887 89.5938 128.777C89.4349 128.665 89.2461 128.609 89.0273 128.609C88.7747 128.609 88.5378 128.686 88.3164 128.84C88.0977 128.991 87.9349 129.195 87.8281 129.453C87.724 129.711 87.6719 130.105 87.6719 130.637V132.438H87.1289V128.188ZM94.6484 128.188H95.1914V128.969C95.4076 128.672 95.6562 128.449 95.9375 128.301C96.2188 128.152 96.5326 128.078 96.8789 128.078C97.4831 128.078 98 128.296 98.4297 128.73C98.8594 129.165 99.0742 129.689 99.0742 130.301C99.0742 130.926 98.8607 131.457 98.4336 131.895C98.0091 132.329 97.4961 132.547 96.8945 132.547C96.556 132.547 96.2448 132.477 95.9609 132.336C95.6771 132.195 95.4206 131.986 95.1914 131.707V133.992H94.6484V128.188ZM96.8359 128.605C96.362 128.605 95.9622 128.771 95.6367 129.102C95.3138 129.432 95.1523 129.844 95.1523 130.336C95.1523 130.659 95.224 130.949 95.3672 131.207C95.513 131.465 95.7201 131.669 95.9883 131.82C96.2591 131.971 96.5443 132.047 96.8438 132.047C97.138 132.047 97.4141 131.971 97.6719 131.82C97.9323 131.667 98.1393 131.453 98.293 131.18C98.4466 130.906 98.5234 130.62 98.5234 130.32C98.5234 130.018 98.4466 129.732 98.293 129.461C98.1419 129.19 97.9375 128.98 97.6797 128.832C97.4219 128.681 97.1406 128.605 96.8359 128.605ZM100.02 126.547H100.566V132.438H100.02V126.547ZM105.281 131.027L105.742 131.27C105.591 131.566 105.417 131.806 105.219 131.988C105.021 132.171 104.798 132.31 104.551 132.406C104.303 132.5 104.023 132.547 103.711 132.547C103.018 132.547 102.477 132.32 102.086 131.867C101.695 131.411 101.5 130.897 101.5 130.324C101.5 129.785 101.665 129.305 101.996 128.883C102.415 128.346 102.977 128.078 103.68 128.078C104.404 128.078 104.982 128.353 105.414 128.902C105.721 129.29 105.878 129.775 105.883 130.355H102.062C102.073 130.85 102.23 131.257 102.535 131.574C102.84 131.889 103.216 132.047 103.664 132.047C103.88 132.047 104.09 132.009 104.293 131.934C104.499 131.858 104.673 131.758 104.816 131.633C104.96 131.508 105.115 131.306 105.281 131.027ZM105.281 129.883C105.208 129.591 105.102 129.358 104.961 129.184C104.823 129.009 104.639 128.868 104.41 128.762C104.181 128.655 103.94 128.602 103.688 128.602C103.271 128.602 102.913 128.736 102.613 129.004C102.395 129.199 102.229 129.492 102.117 129.883H105.281ZM107.383 126.609H107.934V128.188H108.801V128.656H107.934V132.438H107.383V128.656H106.637V128.188H107.383V126.609ZM113.195 131.027L113.656 131.27C113.505 131.566 113.331 131.806 113.133 131.988C112.935 132.171 112.712 132.31 112.465 132.406C112.217 132.5 111.938 132.547 111.625 132.547C110.932 132.547 110.391 132.32 110 131.867C109.609 131.411 109.414 130.897 109.414 130.324C109.414 129.785 109.579 129.305 109.91 128.883C110.329 128.346 110.891 128.078 111.594 128.078C112.318 128.078 112.896 128.353 113.328 128.902C113.635 129.29 113.792 129.775 113.797 130.355H109.977C109.987 130.85 110.145 131.257 110.449 131.574C110.754 131.889 111.13 132.047 111.578 132.047C111.794 132.047 112.004 132.009 112.207 131.934C112.413 131.858 112.587 131.758 112.73 131.633C112.874 131.508 113.029 131.306 113.195 131.027ZM113.195 129.883C113.122 129.591 113.016 129.358 112.875 129.184C112.737 129.009 112.553 128.868 112.324 128.762C112.095 128.655 111.854 128.602 111.602 128.602C111.185 128.602 110.827 128.736 110.527 129.004C110.309 129.199 110.143 129.492 110.031 129.883H113.195ZM119.062 126.547V132.438H118.523V131.707C118.294 131.986 118.036 132.195 117.75 132.336C117.466 132.477 117.155 132.547 116.816 132.547C116.215 132.547 115.701 132.329 115.273 131.895C114.849 131.457 114.637 130.926 114.637 130.301C114.637 129.689 114.852 129.165 115.281 128.73C115.711 128.296 116.228 128.078 116.832 128.078C117.181 128.078 117.496 128.152 117.777 128.301C118.061 128.449 118.31 128.672 118.523 128.969V126.547H119.062ZM116.875 128.605C116.57 128.605 116.289 128.681 116.031 128.832C115.773 128.98 115.568 129.19 115.414 129.461C115.263 129.732 115.188 130.018 115.188 130.32C115.188 130.62 115.264 130.906 115.418 131.18C115.572 131.453 115.777 131.667 116.035 131.82C116.296 131.971 116.574 132.047 116.871 132.047C117.171 132.047 117.454 131.971 117.723 131.82C117.991 131.669 118.197 131.465 118.34 131.207C118.486 130.949 118.559 130.659 118.559 130.336C118.559 129.844 118.396 129.432 118.07 129.102C117.747 128.771 117.349 128.605 116.875 128.605ZM122.52 128.188H123.062V128.922C123.253 128.651 123.448 128.453 123.648 128.328C123.924 128.161 124.215 128.078 124.52 128.078C124.725 128.078 124.921 128.118 125.105 128.199C125.29 128.28 125.441 128.388 125.559 128.523C125.676 128.656 125.777 128.848 125.863 129.098C126.046 128.764 126.273 128.512 126.547 128.34C126.82 128.165 127.115 128.078 127.43 128.078C127.724 128.078 127.983 128.152 128.207 128.301C128.434 128.449 128.602 128.656 128.711 128.922C128.82 129.188 128.875 129.586 128.875 130.117V132.438H128.316V130.117C128.316 129.661 128.284 129.349 128.219 129.18C128.154 129.008 128.042 128.87 127.883 128.766C127.727 128.661 127.539 128.609 127.32 128.609C127.055 128.609 126.811 128.688 126.59 128.844C126.371 129 126.211 129.208 126.109 129.469C126.008 129.729 125.957 130.164 125.957 130.773V132.438H125.414V130.262C125.414 129.749 125.382 129.401 125.316 129.219C125.254 129.034 125.143 128.887 124.984 128.777C124.826 128.665 124.637 128.609 124.418 128.609C124.165 128.609 123.928 128.686 123.707 128.84C123.488 128.991 123.326 129.195 123.219 129.453C123.115 129.711 123.062 130.105 123.062 130.637V132.438H122.52V128.188ZM133.609 131.027L134.07 131.27C133.919 131.566 133.745 131.806 133.547 131.988C133.349 132.171 133.126 132.31 132.879 132.406C132.632 132.5 132.352 132.547 132.039 132.547C131.346 132.547 130.805 132.32 130.414 131.867C130.023 131.411 129.828 130.897 129.828 130.324C129.828 129.785 129.993 129.305 130.324 128.883C130.743 128.346 131.305 128.078 132.008 128.078C132.732 128.078 133.31 128.353 133.742 128.902C134.049 129.29 134.206 129.775 134.211 130.355H130.391C130.401 130.85 130.559 131.257 130.863 131.574C131.168 131.889 131.544 132.047 131.992 132.047C132.208 132.047 132.418 132.009 132.621 131.934C132.827 131.858 133.001 131.758 133.145 131.633C133.288 131.508 133.443 131.306 133.609 131.027ZM133.609 129.883C133.536 129.591 133.43 129.358 133.289 129.184C133.151 129.009 132.967 128.868 132.738 128.762C132.509 128.655 132.268 128.602 132.016 128.602C131.599 128.602 131.241 128.736 130.941 129.004C130.723 129.199 130.557 129.492 130.445 129.883H133.609ZM139.477 126.547V132.438H138.938V131.707C138.708 131.986 138.451 132.195 138.164 132.336C137.88 132.477 137.569 132.547 137.23 132.547C136.629 132.547 136.115 132.329 135.688 131.895C135.263 131.457 135.051 130.926 135.051 130.301C135.051 129.689 135.266 129.165 135.695 128.73C136.125 128.296 136.642 128.078 137.246 128.078C137.595 128.078 137.91 128.152 138.191 128.301C138.475 128.449 138.724 128.672 138.938 128.969V126.547H139.477ZM137.289 128.605C136.984 128.605 136.703 128.681 136.445 128.832C136.188 128.98 135.982 129.19 135.828 129.461C135.677 129.732 135.602 130.018 135.602 130.32C135.602 130.62 135.678 130.906 135.832 131.18C135.986 131.453 136.191 131.667 136.449 131.82C136.71 131.971 136.988 132.047 137.285 132.047C137.585 132.047 137.868 131.971 138.137 131.82C138.405 131.669 138.611 131.465 138.754 131.207C138.9 130.949 138.973 130.659 138.973 130.336C138.973 129.844 138.81 129.432 138.484 129.102C138.161 128.771 137.763 128.605 137.289 128.605ZM140.91 126.438C141.035 126.438 141.142 126.482 141.23 126.57C141.319 126.659 141.363 126.766 141.363 126.891C141.363 127.013 141.319 127.118 141.23 127.207C141.142 127.296 141.035 127.34 140.91 127.34C140.788 127.34 140.682 127.296 140.594 127.207C140.505 127.118 140.461 127.013 140.461 126.891C140.461 126.766 140.505 126.659 140.594 126.57C140.682 126.482 140.788 126.438 140.91 126.438ZM140.637 128.188H141.188V132.438H140.637V128.188ZM142.797 126.609H143.348V128.188H144.215V128.656H143.348V132.438H142.797V128.656H142.051V128.188H142.797V126.609ZM149.266 128.188V132.438H148.727V131.707C148.497 131.986 148.24 132.195 147.953 132.336C147.669 132.477 147.358 132.547 147.02 132.547C146.418 132.547 145.904 132.329 145.477 131.895C145.052 131.457 144.84 130.926 144.84 130.301C144.84 129.689 145.055 129.165 145.484 128.73C145.914 128.296 146.431 128.078 147.035 128.078C147.384 128.078 147.699 128.152 147.98 128.301C148.264 128.449 148.513 128.672 148.727 128.969V128.188H149.266ZM147.078 128.605C146.773 128.605 146.492 128.681 146.234 128.832C145.977 128.98 145.771 129.19 145.617 129.461C145.466 129.732 145.391 130.018 145.391 130.32C145.391 130.62 145.467 130.906 145.621 131.18C145.775 131.453 145.98 131.667 146.238 131.82C146.499 131.971 146.777 132.047 147.074 132.047C147.374 132.047 147.658 131.971 147.926 131.82C148.194 131.669 148.4 131.465 148.543 131.207C148.689 130.949 148.762 130.659 148.762 130.336C148.762 129.844 148.599 129.432 148.273 129.102C147.951 128.771 147.552 128.605 147.078 128.605ZM150.977 126.609H151.527V128.188H152.395V128.656H151.527V132.438H150.977V128.656H150.23V128.188H150.977V126.609ZM153.402 126.438C153.527 126.438 153.634 126.482 153.723 126.57C153.811 126.659 153.855 126.766 153.855 126.891C153.855 127.013 153.811 127.118 153.723 127.207C153.634 127.296 153.527 127.34 153.402 127.34C153.28 127.34 153.174 127.296 153.086 127.207C152.997 127.118 152.953 127.013 152.953 126.891C152.953 126.766 152.997 126.659 153.086 126.57C153.174 126.482 153.28 126.438 153.402 126.438ZM153.129 128.188H153.68V132.438H153.129V128.188ZM156.824 128.078C157.478 128.078 158.02 128.315 158.449 128.789C158.84 129.221 159.035 129.733 159.035 130.324C159.035 130.918 158.828 131.438 158.414 131.883C158.003 132.326 157.473 132.547 156.824 132.547C156.173 132.547 155.641 132.326 155.227 131.883C154.815 131.438 154.609 130.918 154.609 130.324C154.609 129.736 154.805 129.225 155.195 128.793C155.625 128.316 156.168 128.078 156.824 128.078ZM156.824 128.613C156.371 128.613 155.982 128.781 155.656 129.117C155.331 129.453 155.168 129.859 155.168 130.336C155.168 130.643 155.242 130.93 155.391 131.195C155.539 131.461 155.74 131.667 155.992 131.812C156.245 131.956 156.522 132.027 156.824 132.027C157.126 132.027 157.404 131.956 157.656 131.812C157.909 131.667 158.109 131.461 158.258 131.195C158.406 130.93 158.48 130.643 158.48 130.336C158.48 129.859 158.316 129.453 157.988 129.117C157.663 128.781 157.275 128.613 156.824 128.613ZM160.055 128.188H160.602V128.949C160.82 128.658 161.062 128.44 161.328 128.297C161.594 128.151 161.883 128.078 162.195 128.078C162.513 128.078 162.794 128.159 163.039 128.32C163.286 128.482 163.469 128.699 163.586 128.973C163.703 129.246 163.762 129.672 163.762 130.25V132.438H163.219V130.41C163.219 129.921 163.198 129.594 163.156 129.43C163.091 129.148 162.969 128.938 162.789 128.797C162.609 128.654 162.375 128.582 162.086 128.582C161.755 128.582 161.458 128.691 161.195 128.91C160.935 129.129 160.763 129.4 160.68 129.723C160.628 129.934 160.602 130.319 160.602 130.879V132.438H160.055V128.188Z" fill="#D0DAED"/>
<rect x="30" y="125.438" width="8" height="8" rx="2" fill="#EEBC1C"/>
<path d="M50.0508 143.758L49.5977 144.105C49.3477 143.78 49.0469 143.534 48.6953 143.367C48.3464 143.198 47.9622 143.113 47.543 143.113C47.0846 143.113 46.6602 143.224 46.2695 143.445C45.8789 143.664 45.5755 143.96 45.3594 144.332C45.1458 144.702 45.0391 145.118 45.0391 145.582C45.0391 146.283 45.2786 146.867 45.7578 147.336C46.2396 147.805 46.8464 148.039 47.5781 148.039C48.3828 148.039 49.056 147.724 49.5977 147.094L50.0508 147.438C49.7643 147.802 49.4062 148.085 48.9766 148.285C48.5495 148.483 48.0716 148.582 47.543 148.582C46.5378 148.582 45.7448 148.247 45.1641 147.578C44.6771 147.013 44.4336 146.331 44.4336 145.531C44.4336 144.69 44.7279 143.983 45.3164 143.41C45.9076 142.835 46.6471 142.547 47.5352 142.547C48.0716 142.547 48.556 142.654 48.9883 142.867C49.4206 143.078 49.7747 143.375 50.0508 143.758ZM53.1289 144.078C53.7826 144.078 54.3242 144.315 54.7539 144.789C55.1445 145.221 55.3398 145.733 55.3398 146.324C55.3398 146.918 55.1328 147.438 54.7188 147.883C54.3073 148.326 53.7773 148.547 53.1289 148.547C52.4779 148.547 51.9453 148.326 51.5312 147.883C51.1198 147.438 50.9141 146.918 50.9141 146.324C50.9141 145.736 51.1094 145.225 51.5 144.793C51.9297 144.316 52.4727 144.078 53.1289 144.078ZM53.1289 144.613C52.6758 144.613 52.2865 144.781 51.9609 145.117C51.6354 145.453 51.4727 145.859 51.4727 146.336C51.4727 146.643 51.5469 146.93 51.6953 147.195C51.8438 147.461 52.0443 147.667 52.2969 147.812C52.5495 147.956 52.8268 148.027 53.1289 148.027C53.431 148.027 53.7083 147.956 53.9609 147.812C54.2135 147.667 54.4141 147.461 54.5625 147.195C54.7109 146.93 54.7852 146.643 54.7852 146.336C54.7852 145.859 54.6211 145.453 54.293 145.117C53.9674 144.781 53.5794 144.613 53.1289 144.613ZM56.3555 144.188H56.8984V144.922C57.0885 144.651 57.2839 144.453 57.4844 144.328C57.7604 144.161 58.0508 144.078 58.3555 144.078C58.5612 144.078 58.7565 144.118 58.9414 144.199C59.1263 144.28 59.2773 144.388 59.3945 144.523C59.5117 144.656 59.6133 144.848 59.6992 145.098C59.8815 144.764 60.1094 144.512 60.3828 144.34C60.6562 144.165 60.9505 144.078 61.2656 144.078C61.5599 144.078 61.819 144.152 62.043 144.301C62.2695 144.449 62.4375 144.656 62.5469 144.922C62.6562 145.188 62.7109 145.586 62.7109 146.117V148.438H62.1523V146.117C62.1523 145.661 62.1198 145.349 62.0547 145.18C61.9896 145.008 61.8776 144.87 61.7188 144.766C61.5625 144.661 61.375 144.609 61.1562 144.609C60.8906 144.609 60.6471 144.688 60.4258 144.844C60.207 145 60.0469 145.208 59.9453 145.469C59.8438 145.729 59.793 146.164 59.793 146.773V148.438H59.25V146.262C59.25 145.749 59.2174 145.401 59.1523 145.219C59.0898 145.034 58.9792 144.887 58.8203 144.777C58.6615 144.665 58.4727 144.609 58.2539 144.609C58.0013 144.609 57.7643 144.686 57.543 144.84C57.3242 144.991 57.1615 145.195 57.0547 145.453C56.9505 145.711 56.8984 146.105 56.8984 146.637V148.438H56.3555V144.188ZM63.875 144.188H64.418V144.969C64.6341 144.672 64.8828 144.449 65.1641 144.301C65.4453 144.152 65.7591 144.078 66.1055 144.078C66.7096 144.078 67.2266 144.296 67.6562 144.73C68.0859 145.165 68.3008 145.689 68.3008 146.301C68.3008 146.926 68.0872 147.457 67.6602 147.895C67.2357 148.329 66.7227 148.547 66.1211 148.547C65.7826 148.547 65.4714 148.477 65.1875 148.336C64.9036 148.195 64.6471 147.986 64.418 147.707V149.992H63.875V144.188ZM66.0625 144.605C65.5885 144.605 65.1888 144.771 64.8633 145.102C64.5404 145.432 64.3789 145.844 64.3789 146.336C64.3789 146.659 64.4505 146.949 64.5938 147.207C64.7396 147.465 64.9466 147.669 65.2148 147.82C65.4857 147.971 65.7708 148.047 66.0703 148.047C66.3646 148.047 66.6406 147.971 66.8984 147.82C67.1589 147.667 67.3659 147.453 67.5195 147.18C67.6732 146.906 67.75 146.62 67.75 146.32C67.75 146.018 67.6732 145.732 67.5195 145.461C67.3685 145.19 67.1641 144.98 66.9062 144.832C66.6484 144.681 66.3672 144.605 66.0625 144.605ZM69.2461 142.547H69.793V148.438H69.2461V142.547ZM74.5078 147.027L74.9688 147.27C74.8177 147.566 74.6432 147.806 74.4453 147.988C74.2474 148.171 74.0247 148.31 73.7773 148.406C73.5299 148.5 73.25 148.547 72.9375 148.547C72.2448 148.547 71.7031 148.32 71.3125 147.867C70.9219 147.411 70.7266 146.897 70.7266 146.324C70.7266 145.785 70.8919 145.305 71.2227 144.883C71.6419 144.346 72.2031 144.078 72.9062 144.078C73.6302 144.078 74.2083 144.353 74.6406 144.902C74.9479 145.29 75.1042 145.775 75.1094 146.355H71.2891C71.2995 146.85 71.457 147.257 71.7617 147.574C72.0664 147.889 72.4427 148.047 72.8906 148.047C73.1068 148.047 73.3164 148.009 73.5195 147.934C73.7253 147.858 73.8997 147.758 74.043 147.633C74.1862 147.508 74.3411 147.306 74.5078 147.027ZM74.5078 145.883C74.4349 145.591 74.3281 145.358 74.1875 145.184C74.0495 145.009 73.8659 144.868 73.6367 144.762C73.4076 144.655 73.1667 144.602 72.9141 144.602C72.4974 144.602 72.1393 144.736 71.8398 145.004C71.6211 145.199 71.4557 145.492 71.3438 145.883H74.5078ZM76.6094 142.609H77.1602V144.188H78.0273V144.656H77.1602V148.438H76.6094V144.656H75.8633V144.188H76.6094V142.609ZM82.4219 147.027L82.8828 147.27C82.7318 147.566 82.5573 147.806 82.3594 147.988C82.1615 148.171 81.9388 148.31 81.6914 148.406C81.444 148.5 81.1641 148.547 80.8516 148.547C80.1589 148.547 79.6172 148.32 79.2266 147.867C78.8359 147.411 78.6406 146.897 78.6406 146.324C78.6406 145.785 78.806 145.305 79.1367 144.883C79.556 144.346 80.1172 144.078 80.8203 144.078C81.5443 144.078 82.1224 144.353 82.5547 144.902C82.862 145.29 83.0182 145.775 83.0234 146.355H79.2031C79.2135 146.85 79.3711 147.257 79.6758 147.574C79.9805 147.889 80.3568 148.047 80.8047 148.047C81.0208 148.047 81.2305 148.009 81.4336 147.934C81.6393 147.858 81.8138 147.758 81.957 147.633C82.1003 147.508 82.2552 147.306 82.4219 147.027ZM82.4219 145.883C82.349 145.591 82.2422 145.358 82.1016 145.184C81.9635 145.009 81.7799 144.868 81.5508 144.762C81.3216 144.655 81.0807 144.602 80.8281 144.602C80.4115 144.602 80.0534 144.736 79.7539 145.004C79.5352 145.199 79.3698 145.492 79.2578 145.883H82.4219ZM88.2891 142.547V148.438H87.75V147.707C87.5208 147.986 87.263 148.195 86.9766 148.336C86.6927 148.477 86.3815 148.547 86.043 148.547C85.4414 148.547 84.9271 148.329 84.5 147.895C84.0755 147.457 83.8633 146.926 83.8633 146.301C83.8633 145.689 84.0781 145.165 84.5078 144.73C84.9375 144.296 85.4544 144.078 86.0586 144.078C86.4076 144.078 86.7227 144.152 87.0039 144.301C87.2878 144.449 87.5365 144.672 87.75 144.969V142.547H88.2891ZM86.1016 144.605C85.7969 144.605 85.5156 144.681 85.2578 144.832C85 144.98 84.7943 145.19 84.6406 145.461C84.4896 145.732 84.4141 146.018 84.4141 146.32C84.4141 146.62 84.4909 146.906 84.6445 147.18C84.7982 147.453 85.0039 147.667 85.2617 147.82C85.5221 147.971 85.8008 148.047 86.0977 148.047C86.3971 148.047 86.681 147.971 86.9492 147.82C87.2174 147.669 87.4232 147.465 87.5664 147.207C87.7122 146.949 87.7852 146.659 87.7852 146.336C87.7852 145.844 87.6224 145.432 87.2969 145.102C86.974 144.771 86.5755 144.605 86.1016 144.605ZM91.5781 148.438L92.3945 142.691H92.4883L94.8242 147.406L97.1367 142.691H97.2305L98.0547 148.438H97.4883L96.9258 144.328L94.8945 148.438H94.75L92.6914 144.297L92.1328 148.438H91.5781ZM102.68 147.027L103.141 147.27C102.99 147.566 102.815 147.806 102.617 147.988C102.419 148.171 102.197 148.31 101.949 148.406C101.702 148.5 101.422 148.547 101.109 148.547C100.417 148.547 99.875 148.32 99.4844 147.867C99.0938 147.411 98.8984 146.897 98.8984 146.324C98.8984 145.785 99.0638 145.305 99.3945 144.883C99.8138 144.346 100.375 144.078 101.078 144.078C101.802 144.078 102.38 144.353 102.812 144.902C103.12 145.29 103.276 145.775 103.281 146.355H99.4609C99.4714 146.85 99.6289 147.257 99.9336 147.574C100.238 147.889 100.615 148.047 101.062 148.047C101.279 148.047 101.488 148.009 101.691 147.934C101.897 147.858 102.072 147.758 102.215 147.633C102.358 147.508 102.513 147.306 102.68 147.027ZM102.68 145.883C102.607 145.591 102.5 145.358 102.359 145.184C102.221 145.009 102.038 144.868 101.809 144.762C101.579 144.655 101.339 144.602 101.086 144.602C100.669 144.602 100.311 144.736 100.012 145.004C99.793 145.199 99.6276 145.492 99.5156 145.883H102.68ZM108.547 142.547V148.438H108.008V147.707C107.779 147.986 107.521 148.195 107.234 148.336C106.951 148.477 106.639 148.547 106.301 148.547C105.699 148.547 105.185 148.329 104.758 147.895C104.333 147.457 104.121 146.926 104.121 146.301C104.121 145.689 104.336 145.165 104.766 144.73C105.195 144.296 105.712 144.078 106.316 144.078C106.665 144.078 106.98 144.152 107.262 144.301C107.546 144.449 107.794 144.672 108.008 144.969V142.547H108.547ZM106.359 144.605C106.055 144.605 105.773 144.681 105.516 144.832C105.258 144.98 105.052 145.19 104.898 145.461C104.747 145.732 104.672 146.018 104.672 146.32C104.672 146.62 104.749 146.906 104.902 147.18C105.056 147.453 105.262 147.667 105.52 147.82C105.78 147.971 106.059 148.047 106.355 148.047C106.655 148.047 106.939 147.971 107.207 147.82C107.475 147.669 107.681 147.465 107.824 147.207C107.97 146.949 108.043 146.659 108.043 146.336C108.043 145.844 107.88 145.432 107.555 145.102C107.232 144.771 106.833 144.605 106.359 144.605ZM109.98 142.438C110.105 142.438 110.212 142.482 110.301 142.57C110.389 142.659 110.434 142.766 110.434 142.891C110.434 143.013 110.389 143.118 110.301 143.207C110.212 143.296 110.105 143.34 109.98 143.34C109.858 143.34 109.753 143.296 109.664 143.207C109.576 143.118 109.531 143.013 109.531 142.891C109.531 142.766 109.576 142.659 109.664 142.57C109.753 142.482 109.858 142.438 109.98 142.438ZM109.707 144.188H110.258V148.438H109.707V144.188ZM111.867 142.609H112.418V144.188H113.285V144.656H112.418V148.438H111.867V144.656H111.121V144.188H111.867V142.609ZM118.336 144.188V148.438H117.797V147.707C117.568 147.986 117.31 148.195 117.023 148.336C116.74 148.477 116.428 148.547 116.09 148.547C115.488 148.547 114.974 148.329 114.547 147.895C114.122 147.457 113.91 146.926 113.91 146.301C113.91 145.689 114.125 145.165 114.555 144.73C114.984 144.296 115.501 144.078 116.105 144.078C116.454 144.078 116.77 144.152 117.051 144.301C117.335 144.449 117.583 144.672 117.797 144.969V144.188H118.336ZM116.148 144.605C115.844 144.605 115.562 144.681 115.305 144.832C115.047 144.98 114.841 145.19 114.688 145.461C114.536 145.732 114.461 146.018 114.461 146.32C114.461 146.62 114.538 146.906 114.691 147.18C114.845 147.453 115.051 147.667 115.309 147.82C115.569 147.971 115.848 148.047 116.145 148.047C116.444 148.047 116.728 147.971 116.996 147.82C117.264 147.669 117.47 147.465 117.613 147.207C117.759 146.949 117.832 146.659 117.832 146.336C117.832 145.844 117.669 145.432 117.344 145.102C117.021 144.771 116.622 144.605 116.148 144.605ZM120.047 142.609H120.598V144.188H121.465V144.656H120.598V148.438H120.047V144.656H119.301V144.188H120.047V142.609ZM122.473 142.438C122.598 142.438 122.704 142.482 122.793 142.57C122.882 142.659 122.926 142.766 122.926 142.891C122.926 143.013 122.882 143.118 122.793 143.207C122.704 143.296 122.598 143.34 122.473 143.34C122.35 143.34 122.245 143.296 122.156 143.207C122.068 143.118 122.023 143.013 122.023 142.891C122.023 142.766 122.068 142.659 122.156 142.57C122.245 142.482 122.35 142.438 122.473 142.438ZM122.199 144.188H122.75V148.438H122.199V144.188ZM125.895 144.078C126.548 144.078 127.09 144.315 127.52 144.789C127.91 145.221 128.105 145.733 128.105 146.324C128.105 146.918 127.898 147.438 127.484 147.883C127.073 148.326 126.543 148.547 125.895 148.547C125.243 148.547 124.711 148.326 124.297 147.883C123.885 147.438 123.68 146.918 123.68 146.324C123.68 145.736 123.875 145.225 124.266 144.793C124.695 144.316 125.238 144.078 125.895 144.078ZM125.895 144.613C125.441 144.613 125.052 144.781 124.727 145.117C124.401 145.453 124.238 145.859 124.238 146.336C124.238 146.643 124.312 146.93 124.461 147.195C124.609 147.461 124.81 147.667 125.062 147.812C125.315 147.956 125.592 148.027 125.895 148.027C126.197 148.027 126.474 147.956 126.727 147.812C126.979 147.667 127.18 147.461 127.328 147.195C127.477 146.93 127.551 146.643 127.551 146.336C127.551 145.859 127.387 145.453 127.059 145.117C126.733 144.781 126.345 144.613 125.895 144.613ZM129.125 144.188H129.672V144.949C129.891 144.658 130.133 144.44 130.398 144.297C130.664 144.151 130.953 144.078 131.266 144.078C131.583 144.078 131.865 144.159 132.109 144.32C132.357 144.482 132.539 144.699 132.656 144.973C132.773 145.246 132.832 145.672 132.832 146.25V148.438H132.289V146.41C132.289 145.921 132.268 145.594 132.227 145.43C132.161 145.148 132.039 144.938 131.859 144.797C131.68 144.654 131.445 144.582 131.156 144.582C130.826 144.582 130.529 144.691 130.266 144.91C130.005 145.129 129.833 145.4 129.75 145.723C129.698 145.934 129.672 146.319 129.672 146.879V148.438H129.125V144.188Z" fill="#D0DAED"/>
<rect x="30" y="141.438" width="8" height="8" rx="2" fill="#8BC751"/>
<rect x="30" y="141.438" width="8" height="8" rx="2" fill="black" fill-opacity="0.2"/>
<defs>
<linearGradient id="paint0_linear_685_2445" x1="261" y1="20.8634" x2="265.825" y2="20.8634" gradientUnits="userSpaceOnUse">
<stop stop-color="#151B34"/>
<stop offset="1" stop-color="#3A4159"/>
</linearGradient>
<linearGradient id="paint1_linear_685_2445" x1="261" y1="31.8634" x2="265.825" y2="31.8634" gradientUnits="userSpaceOnUse">
<stop stop-color="#151B34"/>
<stop offset="1" stop-color="#3A4159"/>
</linearGradient>
<linearGradient id="paint2_linear_685_2445" x1="261" y1="42.8634" x2="265.825" y2="42.8634" gradientUnits="userSpaceOnUse">
<stop stop-color="#151B34"/>
<stop offset="1" stop-color="#3A4159"/>
</linearGradient>
<linearGradient id="paint3_linear_685_2445" x1="261" y1="53.8634" x2="265.825" y2="53.8634" gradientUnits="userSpaceOnUse">
<stop stop-color="#151B34"/>
<stop offset="1" stop-color="#3A4159"/>
</linearGradient>
<linearGradient id="paint4_linear_685_2445" x1="261" y1="64.8634" x2="265.825" y2="64.8634" gradientUnits="userSpaceOnUse">
<stop stop-color="#151B34"/>
<stop offset="1" stop-color="#3A4159"/>
</linearGradient>
<linearGradient id="paint5_linear_685_2445" x1="261" y1="75.8634" x2="265.825" y2="75.8634" gradientUnits="userSpaceOnUse">
<stop stop-color="#151B34"/>
<stop offset="1" stop-color="#3A4159"/>
</linearGradient>
<linearGradient id="paint6_linear_685_2445" x1="261" y1="86.8634" x2="265.825" y2="86.8634" gradientUnits="userSpaceOnUse">
<stop stop-color="#151B34"/>
<stop offset="1" stop-color="#3A4159"/>
</linearGradient>
<clipPath id="clip0_685_2445">
<rect width="234" height="74" fill="white" transform="translate(30 17.5625)"/>
</clipPath>
</defs>
</svg>
