<svg width="24" height="24" viewBox="0 0 24 24" fill="none" xmlns="http://www.w3.org/2000/svg">
<path fill-rule="evenodd" clip-rule="evenodd" d="M18.2263 10.8529C18.8235 10.5066 19.5884 10.7101 19.9346 11.3073L22.0815 15.0105C22.4278 15.6077 22.2243 16.3726 21.627 16.7188C21.0298 17.0651 20.265 16.8616 19.9187 16.2644L17.7718 12.5612C17.4256 11.964 17.629 11.1991 18.2263 10.8529Z" fill="#404F6F"/>
<path fill-rule="evenodd" clip-rule="evenodd" d="M14.2394 12.7657C14.9193 12.646 15.5675 13.1 15.6873 13.7799L16.3529 17.558C16.4727 18.2379 16.0187 18.8862 15.3388 19.006C14.6589 19.1257 14.0106 18.6717 13.8908 17.9918L13.2252 14.2137C13.1054 13.5338 13.5595 12.8855 14.2394 12.7657Z" fill="#404F6F"/>
<path fill-rule="evenodd" clip-rule="evenodd" d="M9.75085 12.7564C10.4308 12.8759 10.8851 13.5239 10.7656 14.2039L10.1 17.9914C9.9805 18.6713 9.33243 19.1256 8.6525 19.0061C7.97256 18.8867 7.51823 18.2386 7.63773 17.5587L8.30335 13.7712C8.42285 13.0912 9.07091 12.6369 9.75085 12.7564Z" fill="#404F6F"/>
<path fill-rule="evenodd" clip-rule="evenodd" d="M5.76189 10.8515C6.35989 11.1965 6.56504 11.9609 6.2201 12.5589L4.07322 16.2807C3.72828 16.8787 2.96387 17.0839 2.36587 16.7389C1.76787 16.394 1.56272 15.6296 1.90767 15.0316L4.05454 11.3097C4.39948 10.7117 5.16389 10.5066 5.76189 10.8515Z" fill="#404F6F"/>
<path fill-rule="evenodd" clip-rule="evenodd" d="M2.21462 8.86184C2.75168 8.42807 3.53869 8.51179 3.97247 9.04885C5.40938 10.8279 7.974 12.9999 12 12.9999C16.0261 12.9999 18.5907 10.8279 20.0276 9.04885C20.4614 8.51179 21.2484 8.42807 21.7855 8.86184C22.3225 9.29562 22.4062 10.0826 21.9725 10.6197C20.2594 12.7407 17.049 15.4999 12 15.4999C6.95108 15.4999 3.7407 12.7407 2.02762 10.6197C1.59384 10.0826 1.67756 9.29562 2.21462 8.86184Z" fill="#404F6F"/>
</svg>
