<svg width="187" height="138" viewBox="0 0 187 138" fill="none" xmlns="http://www.w3.org/2000/svg">
<g clip-path="url(#clip0_942_1890)">
<path d="M184.26 118.98C161.13 116.23 137.56 115.29 114.78 114.97C95.28 114.69 11.79 115.98 11.79 115.98" stroke="#231F20" stroke-linecap="round" stroke-linejoin="round"/>
<path d="M2.56982 133.82H89.8698" stroke="#231F20" stroke-linecap="round" stroke-linejoin="round"/>
<path d="M93.38 41.8104L75.33 59.5804C73.85 61.0304 71.53 61.0604 70.19 59.6404L46.9 34.8304C45.78 33.6304 46.08 31.7604 47.57 30.6304L66.31 16.2804C67.6 15.2904 69.57 15.3404 70.69 16.4004L93.28 37.5604C94.53 38.7404 94.59 40.6304 93.38 41.8104Z" fill="white" stroke="#231F20" stroke-linecap="round" stroke-linejoin="round"/>
<path d="M19.5302 81.2601C18.8702 81.2601 18.2502 81.5601 17.8402 82.0701C17.4202 82.5801 17.2502 83.2401 17.3802 83.8901L26.6002 132.03C26.8002 133.08 27.7202 133.83 28.7902 133.83L66.0602 133.54C67.1202 133.54 68.0302 132.77 68.2202 131.72L77.0202 83.4401C77.1402 82.7901 76.9602 82.1201 76.5402 81.6201C76.1202 81.1201 75.4902 80.8301 74.8302 80.8301L19.5402 81.2601H19.5302ZM35.4202 130.55C34.2202 130.74 33.1002 129.92 32.9102 128.73L26.5802 89.0501C26.3902 87.8501 27.2002 86.7301 28.4002 86.5401C29.6002 86.3501 30.7202 87.1601 30.9102 88.3601L37.2402 128.04C37.4302 129.24 36.6102 130.36 35.4202 130.55ZM47.5602 130.71C46.3502 130.72 45.3502 129.74 45.3502 128.53L45.0302 88.3501C45.0302 87.1401 46.0002 86.1501 47.2102 86.1401C48.4302 86.1301 49.4202 87.1101 49.4202 88.3201L49.7402 128.5C49.7402 129.71 48.7702 130.7 47.5602 130.71ZM67.8902 88.7301L62.1802 128.5C62.0102 129.7 60.8902 130.53 59.6902 130.36C58.4902 130.19 57.6502 129.08 57.8302 127.88L63.5402 88.1101C63.7102 86.9101 64.8302 86.0801 66.0302 86.2501C67.2302 86.4201 68.0602 87.5301 67.8902 88.7301Z" fill="white" stroke="#231F20" stroke-linecap="round" stroke-linejoin="round"/>
<path d="M6.39018 111.2L8.65018 94.9803L7.19018 94.7803L4.93018 111L6.39018 111.2Z" fill="white" stroke="#231F20" stroke-linecap="round" stroke-linejoin="round"/>
<path d="M8.65003 94.9804L9.23003 90.8504L5.71004 90.3604C5.17004 90.2904 4.61003 90.4304 4.17004 90.7604C3.73004 91.0904 3.44003 91.5904 3.36003 92.1304L0.520035 112.47C0.450035 113.01 0.590035 113.57 0.920035 114.01C1.25004 114.45 1.75004 114.74 2.29004 114.82L5.81004 115.31L6.39004 111.19L4.93004 110.99L7.19004 94.7704L8.65003 94.9704V94.9804Z" fill="white" stroke="#231F20" stroke-linecap="round" stroke-linejoin="round"/>
<path d="M14.0898 136.67L23.0798 72.1903L16.5098 71.2803L15.6798 77.2603L12.2298 76.7803C11.9598 76.7403 11.6798 76.8203 11.4698 76.9803C11.2498 77.1403 11.1098 77.3903 11.0698 77.6603L9.22984 90.8503L8.64984 94.9803L6.38984 111.2L5.80984 115.32L4.09984 127.62C4.05984 127.89 4.12984 128.17 4.29984 128.38C4.45984 128.6 4.70984 128.74 4.97984 128.78L8.42984 129.26L7.51984 135.75L14.0798 136.66L14.0898 136.67Z" fill="#7A93CA" stroke="#231F20" stroke-linecap="round" stroke-linejoin="round"/>
<path d="M47.2099 86.1397C45.9999 86.1397 45.0199 87.1397 45.0299 88.3497L45.3499 128.53C45.3499 129.74 46.3499 130.72 47.5599 130.71C48.7699 130.71 49.7499 129.71 49.7399 128.5L49.4199 88.3197C49.4199 87.1097 48.4199 86.1297 47.2099 86.1397Z" fill="#7A93CA"/>
<path d="M63.5499 88.0999L57.8399 127.87C57.6699 129.07 58.4999 130.18 59.6999 130.35C60.9 130.52 62.0099 129.69 62.1899 128.49L67.9 88.7199C68.07 87.5199 67.24 86.4099 66.04 86.2399C64.84 86.0699 63.7299 86.8999 63.5499 88.0999Z" fill="#7A93CA"/>
<path d="M28.3998 86.5403C27.1998 86.7303 26.3798 87.8503 26.5798 89.0503L32.9098 128.73C33.0998 129.93 34.2298 130.74 35.4198 130.55C36.6198 130.36 37.4299 129.23 37.2399 128.04L30.9098 88.3603C30.7198 87.1603 29.5898 86.3503 28.3998 86.5403Z" fill="#7A93CA"/>
<path d="M72.1699 13.0601C72.1699 13.0601 80.6299 5.84012 86.2399 3.37012L72.1699 13.0601Z" fill="white"/>
<path d="M72.1699 13.0601C72.1699 13.0601 80.6299 5.84012 86.2399 3.37012" stroke="#231F20" stroke-linecap="round" stroke-linejoin="round"/>
<path d="M75.4902 15.5704C75.4902 15.5704 77.6002 13.7604 80.4202 11.6504L75.4902 15.5704Z" fill="white"/>
<path d="M75.4902 15.5704C75.4902 15.5704 77.6002 13.7604 80.4202 11.6504" stroke="#231F20" stroke-linecap="round" stroke-linejoin="round"/>
<path d="M170.79 35.64C174.44 39.04 166.89 44.13 166.89 44.13L173.46 61.18L169.8 63.9L170.59 69.35L153.71 105.77L139.85 98.11L139.68 85.38C139.68 85.38 141.3 70.09 140.73 62.45C140.35 57.32 141.46 52.04 140.99 50.43C140.52 48.82 141.98 39.46 141.98 39.46L140.18 38.76V34.96L170.79 35.66V35.64Z" fill="white"/>
<path d="M143.21 35.0802C134.31 21.0002 121.15 14.0202 114.86 11.5902C105.17 7.85019 101.83 18.2702 109.77 20.9502C122.23 25.1602 129.8 38.7102 130.35 39.6802C133.52 45.3102 140.89 54.5102 140.72 62.4402" fill="white"/>
<path d="M143.21 35.0802C134.31 21.0002 121.15 14.0202 114.86 11.5902C105.17 7.85019 101.83 18.2702 109.77 20.9502C122.23 25.1602 129.8 38.7102 130.35 39.6802C133.52 45.3102 140.89 54.5102 140.72 62.4402" stroke="#231F20" stroke-linecap="round" stroke-linejoin="round"/>
<path d="M139.64 90.5L137.71 99.23C135.56 108.95 134.89 118.94 135.71 128.86L135.77 129.64C136.03 132.84 138.71 135.3 141.91 135.3H143.11C146.32 135.3 148.99 132.84 149.25 129.64L149.98 120.78C150.43 115.25 151.84 109.85 154.13 104.8" fill="white"/>
<path d="M139.64 90.5L137.71 99.23C135.56 108.95 134.89 118.94 135.71 128.86L135.77 129.64C136.03 132.84 138.71 135.3 141.91 135.3H143.11C146.32 135.3 148.99 132.84 149.25 129.64L149.98 120.78C150.43 115.25 151.84 109.85 154.13 104.8" stroke="#231F20" stroke-linecap="round" stroke-linejoin="round"/>
<path d="M150.59 97.81C155.15 109.37 161.5 120.14 169.4 129.74L172.22 133.17C174.12 135.48 177.4 136.09 180 134.62C182.84 133.02 183.94 129.49 182.53 126.56L179.04 119.36C177.42 116.01 176.25 112.45 175.58 108.78L171.77 88.13C171.47 86.5 171.3 84.84 171.26 83.18C171.03 74.09 170.27 64.96 170.27 64.96" fill="white"/>
<path d="M150.59 97.81C155.15 109.37 161.5 120.14 169.4 129.74L172.22 133.17C174.12 135.48 177.4 136.09 180 134.62C182.84 133.02 183.94 129.49 182.53 126.56L179.04 119.36C177.42 116.01 176.25 112.45 175.58 108.78L171.77 88.13C171.47 86.5 171.3 84.84 171.26 83.18C171.03 74.09 170.27 64.96 170.27 64.96" stroke="#231F20" stroke-linecap="round" stroke-linejoin="round"/>
<path d="M166.91 44.2596C172.56 43.3896 178.34 50.9396 180.27 54.8396C187.66 69.7696 186.77 84.6396 185.57 91.2696C183.72 101.49 173.09 98.9196 174.93 90.7396C177.83 77.9096 169.71 64.5296 169.65 63.4196" fill="white"/>
<path d="M166.91 44.2596C172.56 43.3896 178.34 50.9396 180.27 54.8396C187.66 69.7696 186.77 84.6396 185.57 91.2696C183.72 101.49 173.09 98.9196 174.93 90.7396C177.83 77.9096 169.71 64.5296 169.65 63.4196" stroke="#231F20" stroke-linecap="round" stroke-linejoin="round"/>
<path d="M144.76 42.5501C141.32 40.0101 132.22 36.6101 132.22 20.4401C132.22 12.9401 137.71 7.11006 144.06 3.72006C147.72 1.77006 151.54 0.670057 155.71 0.520057C159.82 0.370057 164.84 0.840057 168.54 2.75006C175.77 6.49006 181.48 15.8201 180.14 25.3201C179.06 32.9601 173.49 40.3201 166.9 44.1201" fill="white"/>
<path d="M144.76 42.5501C141.32 40.0101 132.22 36.6101 132.22 20.4401C132.22 12.9401 137.71 7.11006 144.06 3.72006C147.72 1.77006 151.54 0.670057 155.71 0.520057C159.82 0.370057 164.84 0.840057 168.54 2.75006C175.77 6.49006 181.48 15.8201 180.14 25.3201C179.06 32.9601 173.49 40.3201 166.9 44.1201" stroke="#231F20" stroke-linecap="round" stroke-linejoin="round"/>
<path d="M138.61 18.5199C138.5 20.5699 138.53 22.6099 138.69 24.6599C138.77 25.6799 140.36 25.5699 140.28 24.5499C140.12 22.4999 140.09 20.4599 140.2 18.4099C140.25 17.3899 138.66 17.5099 138.61 18.5199Z" fill="#231F20"/>
<path d="M149.901 18.1803C149.761 20.0903 149.721 21.9903 149.861 23.9003C149.931 24.9203 151.531 24.8103 151.451 23.7903C151.321 22.0203 151.341 20.2603 151.461 18.4903C151.531 17.4803 149.971 17.1503 149.901 18.1803Z" fill="#231F20"/>
<path d="M139.64 90.5004C139.64 87.7304 139.53 81.4404 140.72 62.4404L139.64 90.5004Z" fill="white"/>
<path d="M139.64 90.5004C139.64 87.7304 139.53 81.4404 140.72 62.4404" stroke="#231F20" stroke-linecap="round" stroke-linejoin="round"/>
<path d="M144.05 33.7504C144.05 33.7504 147.61 34.2204 149.77 33.3604L144.05 33.7504Z" fill="white"/>
<path d="M144.05 33.7504C144.05 33.7504 147.61 34.2204 149.77 33.3604" stroke="#231F20" stroke-linecap="round" stroke-linejoin="round"/>
<path d="M146.24 47.6798C146.44 45.6898 146.18 43.7298 144.75 42.5498L146.24 47.6798Z" fill="white"/>
<path d="M146.24 47.6798C146.44 45.6898 146.18 43.7298 144.75 42.5498" stroke="#231F20" stroke-linecap="round" stroke-linejoin="round"/>
</g>
<defs>
<clipPath id="clip0_942_1890">
<rect width="186.87" height="137.17" fill="white"/>
</clipPath>
</defs>
</svg>
