<svg width="287" height="214" viewBox="0 0 287 214" fill="none" xmlns="http://www.w3.org/2000/svg">
<path d="M162.54 153.33C162.54 133.15 178.9 116.78 199.09 116.78C219.28 116.78 235.64 133.14 235.64 153.33C235.64 156.82 235.15 160.19 234.24 163.38" fill="url(#paint0_linear_726_1812)"/>
<path d="M162.54 153.33C162.54 133.15 178.9 116.78 199.09 116.78C219.28 116.78 235.64 133.14 235.64 153.33C235.64 156.82 235.15 160.19 234.24 163.38" stroke="#D0DAED" stroke-width="1.1" stroke-linecap="round" stroke-linejoin="round"/>
<path d="M17.5698 169.8C17.5698 169.8 75.4298 159.83 101.11 160.83C127.27 161.85 151.3 158.1 179.5 157.69C203.64 157.35 267.58 167.19 267.58 167.19" fill="white"/>
<path d="M17.5698 169.8C17.5698 169.8 75.4298 159.83 101.11 160.83C127.27 161.85 151.3 158.1 179.5 157.69C203.64 157.35 267.58 167.19 267.58 167.19" stroke="#7992CA" stroke-width="1.26" stroke-linecap="round" stroke-linejoin="round"/>
<path d="M47.3899 166.3C47.3899 166.3 46.3699 162.97 47.3399 160.36C47.3399 162.35 49.3599 166.57 49.3599 166.57" fill="white"/>
<path d="M47.3899 166.3C47.3899 166.3 46.3699 162.97 47.3399 160.36C47.3399 162.35 49.3599 166.57 49.3599 166.57" stroke="#7992CA" stroke-width="1.26" stroke-linecap="round" stroke-linejoin="round"/>
<path d="M45.3598 167.2C45.3598 167.2 42.6798 163.43 42.8198 159.74C43.6698 162.25 47.9598 166.72 47.9598 166.72" fill="white"/>
<path d="M45.3598 167.2C45.3598 167.2 42.6798 163.43 42.8198 159.74C43.6698 162.25 47.9598 166.72 47.9598 166.72" stroke="#7992CA" stroke-width="1.26" stroke-linecap="round" stroke-linejoin="round"/>
<path d="M230.03 165.07C230.03 165.07 230.67 161.65 232.75 159.79C231.83 161.56 231.65 166.23 231.65 166.23" fill="white"/>
<path d="M230.03 165.07C230.03 165.07 230.67 161.65 232.75 159.79C231.83 161.56 231.65 166.23 231.65 166.23" stroke="#7992CA" stroke-width="1.26" stroke-linecap="round" stroke-linejoin="round"/>
<path d="M227.81 164.92C227.81 164.92 227.19 160.33 229.03 157.13C228.61 159.74 230.33 165.7 230.33 165.7" fill="white"/>
<path d="M227.81 164.92C227.81 164.92 227.19 160.33 229.03 157.13C228.61 159.74 230.33 165.7 230.33 165.7" stroke="#7992CA" stroke-width="1.26" stroke-linecap="round" stroke-linejoin="round"/>
<path d="M212.78 40.11C208.16 40.11 206.2 44.04 206.96 46.94C206.97 47.53 208.69 50.24 208.69 50.24C208.69 50.24 209.44 51.91 209.24 52.46C209.04 53.01 209.34 57.56 214.18 59.26C219.02 60.95 223.12 56.38 223.12 56.38C223.12 56.38 224.13 56.31 224.6 57.15C225.07 57.99 227.8 60.52 228.46 60.44C229.12 60.36 231.51 57.44 232.08 56.63C232.65 55.82 232.36 55.21 231.36 54.89C230.36 54.57 227.63 53.31 226.68 53.04C225.73 52.77 226.03 52.25 226.83 52.04C227.63 51.83 231.8 51.16 234.62 46.68C237.43 42.2 236.57 36.48 236.57 36.48C236.57 36.48 236.79 34.78 235.17 35.97C233.55 37.16 223.35 45.59 223.35 45.59C223.35 45.59 225.96 37.84 222.34 35.29C219.21 38.6 217.21 41.57 217.32 42.43C215.27 40.13 212.78 40.11 212.78 40.11Z" fill="white"/>
<path d="M50.6602 101.12H130.85C130.85 101.12 128.13 95.1102 120.05 98.2602C123.75 90.0702 113.46 84.6002 107.77 88.5502C106.55 84.7402 102.16 73.0102 88.1302 72.2902C71.5802 71.4402 67.3402 87.6202 67.3402 87.6202C61.0802 84.3102 56.1902 91.7902 59.5302 94.4302C50.2102 92.7302 50.6602 101.12 50.6602 101.12Z" fill="white" stroke="#404F6F" stroke-width="1.3" stroke-linecap="round" stroke-linejoin="round"/>
<path d="M164.54 56.66C155.97 62.15 145.91 73.81 161.46 87.3C177.01 100.79 178.38 123.2 178.38 123.2L168.45 133.39L168.91 159.83C168.91 159.83 164.96 177.44 153.52 179.78C134.03 183.76 102.61 172.1 103.06 161.38C103.78 144.37 112.54 133.71 107.51 124.34C102.48 114.97 104.68 105.02 111.63 94.39C123.97 75.5 129.24 77.24 124.43 70.84C119.63 64.44 132.97 54.61 146.76 53.69C160.55 52.78 164.55 56.66 164.55 56.66H164.54Z" fill="white"/>
<path d="M154.65 77.1999C163.84 71.8999 170.24 61.63 169.99 50.8899C169.73 39.8699 163.71 27.77 153.65 22.57C148.5 19.91 141.5 19.25 135.78 19.47C129.98 19.69 124.66 21.21 119.56 23.93C110.72 28.65 103.77 38.96 104.05 49.4C104.67 71.92 118.72 75.8499 123.51 79.3899" fill="white"/>
<path d="M154.65 77.1999C163.84 71.8999 170.24 61.6299 169.99 50.8899C169.73 39.8699 163.71 27.77 153.65 22.57C148.5 19.91 141.5 19.25 135.78 19.47C129.98 19.69 124.66 21.21 119.56 23.93C110.72 28.65 103.77 38.96 104.05 49.4C104.67 71.92 118.72 75.8499 123.51 79.3899" stroke="#404F6F" stroke-width="1.3" stroke-linecap="round" stroke-linejoin="round"/>
<path d="M123.5 79.3895C123.5 79.3895 107.55 78.3395 100.37 94.1095C93.1802 109.88 91.6102 130.21 90.2002 132.49C88.8002 134.77 63.9002 133.08 59.8702 137.99C55.8402 142.9 57.0802 153.13 76.8802 149.82C96.6802 146.51 104.41 147.5 107.39 139.72C110.37 131.94 112.28 115.089 112.28 115.089" fill="white"/>
<path d="M123.5 79.3895C123.5 79.3895 107.55 78.3395 100.37 94.1095C93.1802 109.88 91.6102 130.21 90.2002 132.49C88.8002 134.77 63.9002 133.08 59.8702 137.99C55.8402 142.9 57.0802 153.13 76.8802 149.82C96.6802 146.51 104.41 147.5 107.39 139.72C110.37 131.94 112.28 115.089 112.28 115.089" stroke="#404F6F" stroke-width="1.3" stroke-linecap="round" stroke-linejoin="round"/>
<path d="M154.07 77.4803C154.07 77.4803 170.02 76.4303 177.2 92.2003C184.39 107.97 185.96 128.3 187.37 130.58C188.78 132.86 213.63 132.49 217.66 137.4C221.69 142.31 219.61 152.79 199.8 149.48C180 146.17 173.15 145.6 170.17 137.82C167.19 130.04 165.28 113.19 165.28 113.19" fill="white"/>
<path d="M154.07 77.4803C154.07 77.4803 170.02 76.4303 177.2 92.2003C184.39 107.97 185.96 128.3 187.37 130.58C188.78 132.86 213.63 132.49 217.66 137.4C221.69 142.31 219.61 152.79 199.8 149.48C180 146.17 173.15 145.6 170.17 137.82C167.19 130.04 165.28 113.19 165.28 113.19" stroke="#404F6F" stroke-width="1.3" stroke-linecap="round" stroke-linejoin="round"/>
<path d="M132.62 158.9C132.62 158.9 94.6704 146.33 80.5804 149.23C66.4904 152.13 72.5004 178.9 125.44 188.89C147.18 192.99 163.61 189.92 162.65 185.3C160.65 175.63 114.68 167.59 114.68 167.59" fill="white"/>
<path d="M132.62 158.9C132.62 158.9 94.6704 146.33 80.5804 149.23C66.4904 152.13 72.5004 178.9 125.44 188.89C147.18 192.99 163.61 189.92 162.65 185.3C160.65 175.63 114.68 167.59 114.68 167.59" stroke="#404F6F" stroke-width="1.3" stroke-linecap="round" stroke-linejoin="round"/>
<path d="M144.8 158.9C144.8 158.9 182.75 146.33 196.84 149.23C210.93 152.13 200.91 184.93 147.97 194.92C126.23 199.02 112.07 198.45 110.76 191.33C108.64 179.77 162.74 167.6 162.74 167.6" fill="white"/>
<path d="M144.8 158.9C144.8 158.9 182.75 146.33 196.84 149.23C210.93 152.13 200.91 184.93 147.97 194.92C126.23 199.02 112.07 198.45 110.76 191.33C108.64 179.77 162.74 167.6 162.74 167.6" stroke="#404F6F" stroke-width="1.3" stroke-linecap="round" stroke-linejoin="round"/>
<path d="M105.89 142.44C105.05 149.66 104.9 151.36 104.9 151.36L105.89 142.44Z" fill="white"/>
<path d="M105.89 142.44C105.05 149.66 104.9 151.36 104.9 151.36" stroke="#404F6F" stroke-width="1.3" stroke-linecap="round" stroke-linejoin="round"/>
<path d="M167.08 125.29C167.7 128.55 170.17 148.3 168.08 152.37L167.08 125.29Z" fill="white"/>
<path d="M167.08 125.29C167.7 128.55 170.17 148.3 168.08 152.37" stroke="#404F6F" stroke-width="1.3" stroke-linecap="round" stroke-linejoin="round"/>
<path d="M130.85 46.1099C128.03 45.7199 124.37 46.0099 124.37 46.0099L130.85 46.1099Z" fill="white"/>
<path d="M130.85 46.1099C128.03 45.7199 124.37 46.0099 124.37 46.0099" stroke="#404F6F" stroke-width="1.3" stroke-linecap="round" stroke-linejoin="round"/>
<path d="M144.94 46.1099C147.76 45.7199 151.42 46.0099 151.42 46.0099L144.94 46.1099Z" fill="white"/>
<path d="M144.94 46.1099C147.76 45.7199 151.42 46.0099 151.42 46.0099" stroke="#404F6F" stroke-width="1.3" stroke-linecap="round" stroke-linejoin="round"/>
<path d="M142.19 62.3604C137.64 64.3904 133.09 62.3604 133.09 62.3604H142.19Z" fill="white"/>
<path d="M142.19 62.3604C137.64 64.3904 133.09 62.3604 133.09 62.3604" stroke="#404F6F" stroke-width="1.3" stroke-linecap="round" stroke-linejoin="round"/>
<path d="M220.12 48.1202C224.59 44.2402 226.59 42.7602 235.61 35.2702C237.41 33.7802 239.47 52.4502 222.8 52.4502" stroke="#404F6F" stroke-width="1.1" stroke-linecap="round" stroke-linejoin="round"/>
<path d="M212.78 51.8904C209.53 51.8904 206.89 49.2504 206.89 46.0004C206.89 42.7504 209.53 40.1104 212.78 40.1104C216.03 40.1104 218.67 42.7504 218.67 46.0004" stroke="#404F6F" stroke-width="1.1" stroke-linecap="round" stroke-linejoin="round"/>
<path d="M209.07 50.6699C208.39 54.9199 211.28 58.9099 215.52 59.5999C219.76 60.2899 223.75 57.3999 224.43 53.1499" stroke="#404F6F" stroke-width="1.1" stroke-linecap="round" stroke-linejoin="round"/>
<path d="M208.37 45.5898L204.5 47.5198C204.2 47.6198 204.26 48.0698 204.58 48.0798L208.58 48.2798" fill="white"/>
<path d="M208.37 45.5898L204.5 47.5198C204.2 47.6198 204.26 48.0698 204.58 48.0798L208.58 48.2798" stroke="#404F6F" stroke-width="1.1" stroke-linecap="round" stroke-linejoin="round"/>
<path d="M212.78 46.0003C212.78 46.0003 213.89 44.7403 215.36 45.3503L212.78 46.0003Z" fill="white"/>
<path d="M212.78 46.0003C212.78 46.0003 213.89 44.7403 215.36 45.3503" stroke="#404F6F" stroke-width="1.1" stroke-linecap="round" stroke-linejoin="round"/>
<path d="M223.35 56.0407C223.35 56.0407 226.48 58.7607 227.41 59.7907C227.99 60.4207 228.95 60.4907 229.49 59.8407L231.88 56.9707C232.45 56.2807 232.24 55.1107 231.37 54.8907C229.7 54.4707 225.53 52.4707 225.53 52.4707" stroke="#404F6F" stroke-width="1.1" stroke-linecap="round" stroke-linejoin="round"/>
<path d="M217.08 41.9997C217.08 41.9997 220.33 37.2197 221.77 35.5397C223.21 33.8597 225.09 40.5797 223.59 44.6197" stroke="#404F6F" stroke-width="1.1" stroke-linecap="round" stroke-linejoin="round"/>
<path d="M245.83 41.47C249.03 41.98 253.88 44.08 249.54 45.59C245.2 47.1 249.54 40.32 254.52 41.47" stroke="#D0DAED" stroke-width="1.1" stroke-linecap="round" stroke-linejoin="round"/>
<path d="M193.93 37.5299C196.97 39.8299 200.54 33.8499 197 34.6899C193.46 35.5399 198.29 40.4299 200.84 40.0899" stroke="#D0DAED" stroke-width="1.1" stroke-linecap="round" stroke-linejoin="round"/>
<path d="M64.4199 48.4299C64.0899 46.1699 62.6199 44.1099 60.5899 43.0699C58.5599 42.0299 56.0299 42.0399 54.0099 43.0999C52.7499 39.7999 49.2799 37.4899 45.7499 37.6099C42.2199 37.7299 38.9099 40.2599 37.8699 43.6399C35.6499 43.5099 33.5599 45.6099 33.6899 47.8299C31.9999 47.0699 29.9699 49.0399 30.3699 50.8499C30.7699 52.6599 32.9399 53.6999 34.7399 53.2499C39.2499 56.5799 45.5899 57.2099 50.6699 54.8399C54.6999 57.5099 60.8899 55.9599 63.1899 51.7099C62.8899 52.2699 67.6999 53.1799 68.6399 51.1299C69.6899 48.8099 66.2099 47.4099 64.4299 48.4399L64.4199 48.4299Z" fill="white" stroke="#404F6F" stroke-width="1.3" stroke-linecap="round" stroke-linejoin="round"/>
<path d="M206.08 112.4L207.75 94.2998" stroke="#D0DAED" stroke-width="1.1" stroke-linecap="round" stroke-linejoin="round"/>
<path d="M230.64 127.24L246.77 116.52" stroke="#D0DAED" stroke-width="1.1" stroke-linecap="round" stroke-linejoin="round"/>
<path d="M223.68 113L226.95 108.45" stroke="#D0DAED" stroke-width="1.1" stroke-linecap="round" stroke-linejoin="round"/>
<path d="M241.31 140.08L246.99 138.14" stroke="#D0DAED" stroke-width="1.1" stroke-linecap="round" stroke-linejoin="round"/>
<path d="M240 153.63L250.08 154.91" stroke="#D0DAED" stroke-width="1.1" stroke-linecap="round" stroke-linejoin="round"/>
<path d="M188.05 111.59L186.27 106.75" stroke="#D0DAED" stroke-width="1.1" stroke-linecap="round" stroke-linejoin="round"/>
<defs>
<linearGradient id="paint0_linear_726_1812" x1="199.09" y1="116.78" x2="199.09" y2="163.38" gradientUnits="userSpaceOnUse">
<stop stop-color="#F16667" stop-opacity="0.5"/>
<stop offset="1" stop-color="#EEBC1C" stop-opacity="0"/>
</linearGradient>
</defs>
</svg>
