<svg width="287" height="214" viewBox="0 0 287 214" fill="none" xmlns="http://www.w3.org/2000/svg">
<path d="M17.5698 169.8C17.5698 169.8 75.4298 159.83 101.11 160.83C127.27 161.85 151.3 158.1 179.5 157.69C203.64 157.35 267.58 167.19 267.58 167.19" fill="white"/>
<path d="M17.5698 169.8C17.5698 169.8 75.4298 159.83 101.11 160.83C127.27 161.85 151.3 158.1 179.5 157.69C203.64 157.35 267.58 167.19 267.58 167.19" stroke="#7992CA" stroke-width="1.26" stroke-linecap="round" stroke-linejoin="round"/>
<path d="M47.3899 166.3C47.3899 166.3 46.3699 162.97 47.3399 160.36C47.3399 162.35 49.3599 166.57 49.3599 166.57" fill="white"/>
<path d="M47.3899 166.3C47.3899 166.3 46.3699 162.97 47.3399 160.36C47.3399 162.35 49.3599 166.57 49.3599 166.57" stroke="#7992CA" stroke-width="1.26" stroke-linecap="round" stroke-linejoin="round"/>
<path d="M45.3598 167.2C45.3598 167.2 42.6798 163.43 42.8198 159.74C43.6698 162.25 47.9598 166.72 47.9598 166.72" fill="white"/>
<path d="M45.3598 167.2C45.3598 167.2 42.6798 163.43 42.8198 159.74C43.6698 162.25 47.9598 166.72 47.9598 166.72" stroke="#7992CA" stroke-width="1.26" stroke-linecap="round" stroke-linejoin="round"/>
<path d="M230.03 165.07C230.03 165.07 230.67 161.65 232.75 159.79C231.83 161.56 231.65 166.23 231.65 166.23" fill="white"/>
<path d="M230.03 165.07C230.03 165.07 230.67 161.65 232.75 159.79C231.83 161.56 231.65 166.23 231.65 166.23" stroke="#7992CA" stroke-width="1.26" stroke-linecap="round" stroke-linejoin="round"/>
<path d="M227.81 164.92C227.81 164.92 227.19 160.33 229.03 157.13C228.61 159.74 230.33 165.7 230.33 165.7" fill="white"/>
<path d="M227.81 164.92C227.81 164.92 227.19 160.33 229.03 157.13C228.61 159.74 230.33 165.7 230.33 165.7" stroke="#7992CA" stroke-width="1.26" stroke-linecap="round" stroke-linejoin="round"/>
<path d="M164.54 56.66C155.97 62.15 145.91 73.81 161.46 87.3C177.01 100.79 178.38 123.2 178.38 123.2L168.45 133.39L168.91 159.83C168.91 159.83 164.96 177.44 153.52 179.78C134.03 183.76 102.61 172.1 103.06 161.38C103.78 144.37 112.54 133.71 107.51 124.34C102.48 114.97 104.68 105.02 111.63 94.39C123.97 75.5 129.24 77.24 124.43 70.84C119.63 64.44 132.97 54.61 146.76 53.69C160.55 52.78 164.55 56.66 164.55 56.66H164.54Z" fill="white"/>
<path d="M154.65 77.1999C163.84 71.8999 170.24 61.63 169.99 50.8899C169.73 39.8699 163.71 27.77 153.65 22.57C148.5 19.91 141.5 19.25 135.78 19.47C129.98 19.69 124.66 21.21 119.56 23.93C110.72 28.65 103.77 38.96 104.05 49.4C104.67 71.92 118.72 75.8499 123.51 79.3899" fill="white"/>
<path d="M154.65 77.1999C163.84 71.8999 170.24 61.6299 169.99 50.8899C169.73 39.8699 163.71 27.77 153.65 22.57C148.5 19.91 141.5 19.25 135.78 19.47C129.98 19.69 124.66 21.21 119.56 23.93C110.72 28.65 103.77 38.96 104.05 49.4C104.67 71.92 118.72 75.8499 123.51 79.3899" stroke="#404F6F" stroke-width="1.3" stroke-linecap="round" stroke-linejoin="round"/>
<path d="M123.5 79.3895C123.5 79.3895 107.55 78.3395 100.37 94.1095C93.1802 109.88 91.6102 130.21 90.2002 132.49C88.8002 134.77 63.9002 133.08 59.8702 137.99C55.8402 142.9 57.0802 153.13 76.8802 149.82C96.6802 146.51 104.41 147.5 107.39 139.72C110.37 131.94 112.28 115.089 112.28 115.089" fill="white"/>
<path d="M123.5 79.3895C123.5 79.3895 107.55 78.3395 100.37 94.1095C93.1802 109.88 91.6102 130.21 90.2002 132.49C88.8002 134.77 63.9002 133.08 59.8702 137.99C55.8402 142.9 57.0802 153.13 76.8802 149.82C96.6802 146.51 104.41 147.5 107.39 139.72C110.37 131.94 112.28 115.089 112.28 115.089" stroke="#404F6F" stroke-width="1.3" stroke-linecap="round" stroke-linejoin="round"/>
<path d="M154.07 77.4803C154.07 77.4803 170.02 76.4303 177.2 92.2003C184.39 107.97 185.96 128.3 187.37 130.58C188.78 132.86 213.63 132.49 217.66 137.4C221.69 142.31 219.61 152.79 199.8 149.48C180 146.17 173.15 145.6 170.17 137.82C167.19 130.04 165.28 113.19 165.28 113.19" fill="white"/>
<path d="M154.07 77.4803C154.07 77.4803 170.02 76.4303 177.2 92.2003C184.39 107.97 185.96 128.3 187.37 130.58C188.78 132.86 213.63 132.49 217.66 137.4C221.69 142.31 219.61 152.79 199.8 149.48C180 146.17 173.15 145.6 170.17 137.82C167.19 130.04 165.28 113.19 165.28 113.19" stroke="#404F6F" stroke-width="1.3" stroke-linecap="round" stroke-linejoin="round"/>
<path d="M132.62 158.9C132.62 158.9 94.6704 146.33 80.5804 149.23C66.4904 152.13 72.5004 178.9 125.44 188.89C147.18 192.99 163.61 189.92 162.65 185.3C160.65 175.63 114.68 167.59 114.68 167.59" fill="white"/>
<path d="M132.62 158.9C132.62 158.9 94.6704 146.33 80.5804 149.23C66.4904 152.13 72.5004 178.9 125.44 188.89C147.18 192.99 163.61 189.92 162.65 185.3C160.65 175.63 114.68 167.59 114.68 167.59" stroke="#404F6F" stroke-width="1.3" stroke-linecap="round" stroke-linejoin="round"/>
<path d="M144.8 158.9C144.8 158.9 182.75 146.33 196.84 149.23C210.93 152.13 200.91 184.93 147.97 194.92C126.23 199.02 112.07 198.45 110.76 191.33C108.64 179.77 162.74 167.6 162.74 167.6" fill="white"/>
<path d="M144.8 158.9C144.8 158.9 182.75 146.33 196.84 149.23C210.93 152.13 200.91 184.93 147.97 194.92C126.23 199.02 112.07 198.45 110.76 191.33C108.64 179.77 162.74 167.6 162.74 167.6" stroke="#404F6F" stroke-width="1.3" stroke-linecap="round" stroke-linejoin="round"/>
<path d="M105.89 142.44C105.05 149.66 104.9 151.36 104.9 151.36L105.89 142.44Z" fill="white"/>
<path d="M105.89 142.44C105.05 149.66 104.9 151.36 104.9 151.36" stroke="#404F6F" stroke-width="1.3" stroke-linecap="round" stroke-linejoin="round"/>
<path d="M167.08 125.29C167.7 128.55 170.17 148.3 168.08 152.37L167.08 125.29Z" fill="white"/>
<path d="M167.08 125.29C167.7 128.55 170.17 148.3 168.08 152.37" stroke="#404F6F" stroke-width="1.3" stroke-linecap="round" stroke-linejoin="round"/>
<path d="M130.85 46.1099C128.03 45.7199 124.37 46.0099 124.37 46.0099L130.85 46.1099Z" fill="white"/>
<path d="M130.85 46.1099C128.03 45.7199 124.37 46.0099 124.37 46.0099" stroke="#404F6F" stroke-width="1.3" stroke-linecap="round" stroke-linejoin="round"/>
<path d="M144.94 46.1099C147.76 45.7199 151.42 46.0099 151.42 46.0099L144.94 46.1099Z" fill="white"/>
<path d="M144.94 46.1099C147.76 45.7199 151.42 46.0099 151.42 46.0099" stroke="#404F6F" stroke-width="1.3" stroke-linecap="round" stroke-linejoin="round"/>
<path d="M142.19 62.3604C137.64 64.3904 133.09 62.3604 133.09 62.3604H142.19Z" fill="white"/>
<path d="M142.19 62.3604C137.64 64.3904 133.09 62.3604 133.09 62.3604" stroke="#404F6F" stroke-width="1.3" stroke-linecap="round" stroke-linejoin="round"/>
</svg>
