<svg width="287" height="214" viewBox="0 0 287 214" fill="none" xmlns="http://www.w3.org/2000/svg">
<path d="M17.5698 169.8C17.5698 169.8 75.4298 159.83 101.11 160.83C127.27 161.85 151.3 158.1 179.5 157.69C203.64 157.35 267.58 167.19 267.58 167.19" fill="white"/>
<path d="M17.5698 169.8C17.5698 169.8 75.4298 159.83 101.11 160.83C127.27 161.85 151.3 158.1 179.5 157.69C203.64 157.35 267.58 167.19 267.58 167.19" stroke="#7992CA" stroke-width="1.26" stroke-linecap="round" stroke-linejoin="round"/>
<path d="M47.3899 166.3C47.3899 166.3 46.3699 162.97 47.3399 160.36C47.3399 162.35 49.3599 166.57 49.3599 166.57" fill="white"/>
<path d="M47.3899 166.3C47.3899 166.3 46.3699 162.97 47.3399 160.36C47.3399 162.35 49.3599 166.57 49.3599 166.57" stroke="#7992CA" stroke-width="1.26" stroke-linecap="round" stroke-linejoin="round"/>
<path d="M45.3598 167.2C45.3598 167.2 42.6798 163.43 42.8198 159.74C43.6698 162.25 47.9598 166.72 47.9598 166.72" fill="white"/>
<path d="M45.3598 167.2C45.3598 167.2 42.6798 163.43 42.8198 159.74C43.6698 162.25 47.9598 166.72 47.9598 166.72" stroke="#7992CA" stroke-width="1.26" stroke-linecap="round" stroke-linejoin="round"/>
<path d="M230.03 165.07C230.03 165.07 230.67 161.65 232.75 159.79C231.83 161.56 231.65 166.23 231.65 166.23" fill="white"/>
<path d="M230.03 165.07C230.03 165.07 230.67 161.65 232.75 159.79C231.83 161.56 231.65 166.23 231.65 166.23" stroke="#7992CA" stroke-width="1.26" stroke-linecap="round" stroke-linejoin="round"/>
<path d="M227.81 164.92C227.81 164.92 227.19 160.33 229.03 157.13C228.61 159.74 230.33 165.7 230.33 165.7" fill="white"/>
<path d="M227.81 164.92C227.81 164.92 227.19 160.33 229.03 157.13C228.61 159.74 230.33 165.7 230.33 165.7" stroke="#7992CA" stroke-width="1.26" stroke-linecap="round" stroke-linejoin="round"/>
<path d="M164.54 56.66C155.97 62.15 145.91 73.81 161.46 87.3C177.01 100.79 178.38 123.2 178.38 123.2L168.45 133.39L168.91 159.83C168.91 159.83 164.96 177.44 153.52 179.78C134.03 183.76 102.61 172.1 103.06 161.38C103.78 144.37 112.54 133.71 107.51 124.34C102.48 114.97 104.68 105.02 111.63 94.39C123.97 75.5 129.24 77.24 124.43 70.84C119.63 64.44 132.97 54.61 146.76 53.69C160.55 52.78 164.55 56.66 164.55 56.66H164.54Z" fill="white"/>
<path d="M154.65 77.1999C163.84 71.8999 170.24 61.63 169.99 50.8899C169.73 39.8699 163.71 27.77 153.65 22.57C148.5 19.91 141.5 19.25 135.78 19.47C129.98 19.69 124.66 21.21 119.56 23.93C110.72 28.65 103.77 38.96 104.05 49.4C104.67 71.92 118.72 75.8499 123.51 79.3899" fill="white"/>
<path d="M154.65 77.1999C163.84 71.8999 170.24 61.6299 169.99 50.8899C169.73 39.8699 163.71 27.77 153.65 22.57C148.5 19.91 141.5 19.25 135.78 19.47C129.98 19.69 124.66 21.21 119.56 23.93C110.72 28.65 103.77 38.96 104.05 49.4C104.67 71.92 118.72 75.8499 123.51 79.3899" stroke="#404F6F" stroke-width="1.3" stroke-linecap="round" stroke-linejoin="round"/>
<path d="M123.5 79.3895C123.5 79.3895 107.55 78.3395 100.37 94.1095C93.1802 109.88 91.6102 130.21 90.2002 132.49C88.8002 134.77 63.9002 133.08 59.8702 137.99C55.8402 142.9 57.0802 153.13 76.8802 149.82C96.6802 146.51 104.41 147.5 107.39 139.72C110.37 131.94 112.28 115.089 112.28 115.089" fill="white"/>
<path d="M123.5 79.3895C123.5 79.3895 107.55 78.3395 100.37 94.1095C93.1802 109.88 91.6102 130.21 90.2002 132.49C88.8002 134.77 63.9002 133.08 59.8702 137.99C55.8402 142.9 57.0802 153.13 76.8802 149.82C96.6802 146.51 104.41 147.5 107.39 139.72C110.37 131.94 112.28 115.089 112.28 115.089" stroke="#404F6F" stroke-width="1.3" stroke-linecap="round" stroke-linejoin="round"/>
<path d="M154.07 77.4803C154.07 77.4803 170.02 76.4303 177.2 92.2003C184.39 107.97 185.96 128.3 187.37 130.58C188.78 132.86 213.63 132.49 217.66 137.4C221.69 142.31 219.61 152.79 199.8 149.48C180 146.17 173.15 145.6 170.17 137.82C167.19 130.04 165.28 113.19 165.28 113.19" fill="white"/>
<path d="M154.07 77.4803C154.07 77.4803 170.02 76.4303 177.2 92.2003C184.39 107.97 185.96 128.3 187.37 130.58C188.78 132.86 213.63 132.49 217.66 137.4C221.69 142.31 219.61 152.79 199.8 149.48C180 146.17 173.15 145.6 170.17 137.82C167.19 130.04 165.28 113.19 165.28 113.19" stroke="#404F6F" stroke-width="1.3" stroke-linecap="round" stroke-linejoin="round"/>
<path d="M132.62 158.9C132.62 158.9 94.6704 146.33 80.5804 149.23C66.4904 152.13 72.5004 178.9 125.44 188.89C147.18 192.99 163.61 189.92 162.65 185.3C160.65 175.63 114.68 167.59 114.68 167.59" fill="white"/>
<path d="M132.62 158.9C132.62 158.9 94.6704 146.33 80.5804 149.23C66.4904 152.13 72.5004 178.9 125.44 188.89C147.18 192.99 163.61 189.92 162.65 185.3C160.65 175.63 114.68 167.59 114.68 167.59" stroke="#404F6F" stroke-width="1.3" stroke-linecap="round" stroke-linejoin="round"/>
<path d="M144.8 158.9C144.8 158.9 182.75 146.33 196.84 149.23C210.93 152.13 200.91 184.93 147.97 194.92C126.23 199.02 112.07 198.45 110.76 191.33C108.64 179.77 162.74 167.6 162.74 167.6" fill="white"/>
<path d="M144.8 158.9C144.8 158.9 182.75 146.33 196.84 149.23C210.93 152.13 200.91 184.93 147.97 194.92C126.23 199.02 112.07 198.45 110.76 191.33C108.64 179.77 162.74 167.6 162.74 167.6" stroke="#404F6F" stroke-width="1.3" stroke-linecap="round" stroke-linejoin="round"/>
<path d="M105.89 142.44C105.05 149.66 104.9 151.36 104.9 151.36L105.89 142.44Z" fill="white"/>
<path d="M105.89 142.44C105.05 149.66 104.9 151.36 104.9 151.36" stroke="#404F6F" stroke-width="1.3" stroke-linecap="round" stroke-linejoin="round"/>
<path d="M167.08 125.29C167.7 128.55 170.17 148.3 168.08 152.37L167.08 125.29Z" fill="white"/>
<path d="M167.08 125.29C167.7 128.55 170.17 148.3 168.08 152.37" stroke="#404F6F" stroke-width="1.3" stroke-linecap="round" stroke-linejoin="round"/>
<path d="M130.85 46.1099C128.03 45.7199 124.37 46.0099 124.37 46.0099L130.85 46.1099Z" fill="white"/>
<path d="M130.85 46.1099C128.03 45.7199 124.37 46.0099 124.37 46.0099" stroke="#404F6F" stroke-width="1.3" stroke-linecap="round" stroke-linejoin="round"/>
<path d="M144.94 46.1099C147.76 45.7199 151.42 46.0099 151.42 46.0099L144.94 46.1099Z" fill="white"/>
<path d="M144.94 46.1099C147.76 45.7199 151.42 46.0099 151.42 46.0099" stroke="#404F6F" stroke-width="1.3" stroke-linecap="round" stroke-linejoin="round"/>
<path d="M142.19 62.3604C137.64 64.3904 133.09 62.3604 133.09 62.3604H142.19Z" fill="white"/>
<path d="M142.19 62.3604C137.64 64.3904 133.09 62.3604 133.09 62.3604" stroke="#404F6F" stroke-width="1.3" stroke-linecap="round" stroke-linejoin="round"/>
<path d="M74.4002 25.6497C77.3102 17.5197 73.7902 8.70974 66.4902 5.02974C66.2302 4.89974 66.3502 4.50974 66.6402 4.54974C68.5902 4.84974 70.5502 5.48974 72.4302 6.53974C79.8502 10.6997 83.3102 19.8497 80.4302 27.8497C77.1502 36.9597 67.1102 41.6897 57.9802 38.4297C56.7302 37.9797 55.5702 37.3997 54.5002 36.7197C54.2002 36.5297 54.3302 36.3497 54.6902 36.4397C62.8202 38.5497 71.4302 33.9597 74.4002 25.6597V25.6497Z" fill="#D0DAED"/>
<path d="M206.91 50.1604C207.39 50.4804 207.77 50.5704 208.28 50.5004C208.65 50.4504 208.9 50.2304 209.18 49.7004C209.39 49.3004 209.32 48.2104 209.04 47.6704C208.76 47.1204 208.18 46.8104 207.57 46.8904C207.35 46.9204 207.09 46.9504 207 46.9604C206.73 46.9804 206.29 47.5104 206.18 47.9504C205.94 48.8904 206.21 49.7004 206.91 50.1704V50.1604Z" fill="#D0DAED"/>
<path d="M77.7199 99.8302C77.8999 99.4702 78.0399 99.1202 78.0299 99.0602C77.9899 98.7702 77.8599 98.7002 77.4899 98.7502C76.9699 98.8302 76.7999 98.9402 76.2699 99.5902C76.0099 99.9002 75.7999 100.12 75.7899 100.07C75.7899 100.02 75.6599 99.8802 75.5099 99.7502C75.1899 99.4602 74.7799 99.4902 74.5199 99.8102C74.3599 100.01 74.3599 100.07 74.4999 100.72L74.6599 101.41L73.7999 102.02C73.1599 102.47 72.9399 102.68 72.9399 102.82C72.9399 102.97 72.9999 103.01 73.2799 103.01C73.4699 103.01 73.8799 102.98 74.1999 102.93C74.8599 102.83 74.8899 102.86 74.6899 103.43C74.5299 103.91 74.5099 104.36 74.6599 104.48C74.7799 104.58 75.3999 104.56 75.6499 104.43C75.7299 104.39 75.7999 104.23 75.7999 104.08C75.8199 103.68 76.1899 102.87 76.3399 102.91C76.6699 102.98 77.5699 102.98 77.7499 102.91C78.0699 102.78 77.9799 102.56 77.4599 102.19C76.7799 101.69 76.7699 101.68 77.0999 101.04C77.2599 100.73 77.5299 100.18 77.7099 99.8202L77.7199 99.8302Z" fill="#D0DAED"/>
<path d="M218.19 77.3102C219.1 77.2502 220.33 76.9602 220.64 76.7402C221.04 76.4602 220.76 76.3702 219.94 76.5102C219.52 76.5802 218.72 76.6602 218.16 76.6802C217.6 76.7002 217 76.7302 216.83 76.7602C216.57 76.8002 216.51 76.7702 216.44 76.5802C216.39 76.4602 216.39 76.3402 216.44 76.3302C216.6 76.2902 217.42 74.5802 217.44 74.2502C217.453 74.0369 217.393 73.9735 217.26 74.0602C217.15 74.1402 216.86 74.4602 216.62 74.7902L216.18 75.3802L215.69 73.2802C215 70.3402 214.66 69.6202 214.1 69.9202L213.89 70.0302L214.17 70.9702C214.54 72.1902 214.97 73.9702 215.18 75.1102L215.34 76.0202L214.88 75.4602C214.28 74.7302 213.45 74.1902 213.13 74.3402C213.01 74.3902 212.92 74.4602 212.93 74.5002C212.96 74.6102 214.5 76.3402 214.84 76.6402L215.19 76.9502L214.04 77.1802C212.75 77.4302 212.06 77.5202 211.09 77.5502C210.35 77.5702 210.2 77.6502 210.49 77.8502C210.95 78.1602 212.02 78.2102 213.3 77.9902C214.49 77.7802 214.51 77.7802 214.56 77.8402C214.63 77.9302 213.82 79.4102 213.63 79.5302L213.47 79.6302L213.68 79.7102C213.82 79.7702 213.96 79.7502 214.11 79.6702C214.23 79.6002 214.37 79.5302 214.43 79.5002C214.56 79.4402 214.71 79.2102 215.27 78.2802C215.49 77.9102 215.7 77.6402 215.73 77.6802C215.78 77.7302 216.18 79.1802 216.28 79.7202C216.32 79.9302 216.86 81.6302 217.17 82.5102C217.48 83.3902 217.71 83.7302 217.56 83.0502C217.51 82.8302 217.5 82.5902 217.53 82.5202C217.58 82.4102 217.04 79.3102 216.81 78.4302C216.76 78.2302 216.75 78.0602 216.79 78.0502C216.83 78.0402 216.87 78.0702 216.88 78.1102C216.89 78.1502 216.97 78.1902 217.06 78.2002C217.15 78.2002 217.59 78.3802 218.04 78.5902C218.49 78.8002 218.88 78.9402 218.91 78.9102C218.94 78.8802 218.94 78.7502 218.91 78.6302C218.87 78.4602 218.65 78.2902 217.99 77.9202C217.51 77.6502 217.18 77.4202 217.25 77.4002C217.32 77.3802 217.74 77.3402 218.18 77.3102H218.19Z" fill="#D0DAED"/>
<path d="M76.5701 73.2296C76.9301 73.1496 77.1001 73.0396 77.3901 72.7096C77.6301 72.4296 77.6401 72.2296 77.4101 71.9996C77.0701 71.6596 76.5101 71.5596 76.0401 71.7596C75.0401 72.1896 75.5001 73.4696 76.5701 73.2296Z" fill="#D0DAED"/>
<path d="M253.48 37.3996C253.19 37.2796 253.12 37.2796 252.8 37.3996C252.6 37.4796 252.35 37.6296 252.24 37.7496C252.07 37.9296 252.05 38.0296 252.08 38.4496C252.13 39.0996 252.41 39.3796 253.06 39.4396C253.45 39.4696 253.55 39.4396 253.79 39.2396C254.05 39.0196 254.07 38.9596 254.07 38.4596C254.07 37.8196 253.94 37.5896 253.47 37.3896L253.48 37.3996Z" fill="#D0DAED"/>
<path d="M49.4302 28.22C48.8002 28.36 48.6102 28.6 48.7102 29.14C48.7802 29.52 49.3702 30.06 49.7002 30.06C50.1102 30.06 50.5902 29.89 50.7302 29.69C50.8002 29.58 50.8602 29.41 50.8602 29.31C50.8602 28.78 49.9702 28.1 49.4302 28.22Z" fill="#D0DAED"/>
<path d="M194.32 76.9499C193.95 76.5899 193.95 76.5899 193.53 76.6799C193.24 76.7399 193.06 76.8399 192.94 77.0199C192.73 77.3199 192.73 77.4999 192.93 77.8499C193.05 78.0599 193.19 78.1399 193.58 78.2299C194.03 78.3399 194.1 78.3399 194.3 78.2099C194.42 78.1299 194.56 77.9799 194.6 77.8699C194.75 77.5099 194.69 77.3199 194.32 76.9599V76.9499Z" fill="#D0DAED"/>
<path d="M179.03 11.6296C178.74 11.5596 177.64 11.7996 177.32 12.0096C176.69 12.4196 176.53 13.0096 176.81 13.8696C177.1 14.7396 177.73 15.2196 178.59 15.2196C179.39 15.2196 179.81 14.8596 180.03 13.9796C180.26 13.0396 179.74 11.8096 179.03 11.6296Z" fill="#D0DAED"/>
<path d="M215.98 6.74977C215.38 6.47977 214.74 6.83977 214.83 7.39977C214.96 8.17977 215.78 8.69977 216.27 8.28977C216.36 8.20977 216.38 8.05977 216.34 7.65977C216.26 6.92977 216.24 6.85977 215.98 6.74977Z" fill="#D0DAED"/>
<path d="M242.8 92.2096C242.07 92.3196 241.62 93.0296 242.04 93.4096C242.27 93.6196 242.93 93.8296 243.14 93.7696C243.38 93.6996 243.63 93.4696 243.72 93.2496C243.83 92.9896 243.82 92.8796 243.67 92.5896C243.49 92.2296 243.26 92.1296 242.79 92.1996L242.8 92.2096Z" fill="#D0DAED"/>
<path d="M27.6498 51.5698C28.0198 51.5998 28.5898 51.4498 28.5998 51.3198C28.5998 51.2598 28.6998 51.0798 28.8098 50.9098C28.9698 50.6698 28.9998 50.5498 28.9398 50.3398C28.7998 49.8698 28.5798 49.7298 27.8698 49.6898C27.2598 49.6598 27.2198 49.6698 26.9998 49.9098C26.4998 50.4498 26.9298 51.4998 27.6698 51.5698H27.6498Z" fill="#D0DAED"/>
<path d="M52.13 83.0104C51.84 82.9404 50.74 83.1804 50.42 83.3904C49.79 83.8004 49.63 84.3904 49.91 85.2504C50.2 86.1204 50.83 86.6004 51.69 86.6004C52.49 86.6004 52.91 86.2404 53.13 85.3604C53.36 84.4204 52.84 83.1904 52.13 83.0104Z" fill="#D0DAED"/>
<path d="M232.25 55.7696C232.61 55.6896 232.78 55.5796 233.07 55.2496C233.31 54.9696 233.32 54.7696 233.09 54.5396C232.75 54.1996 232.19 54.0996 231.72 54.2996C230.72 54.7296 231.18 56.0096 232.25 55.7696Z" fill="#D0DAED"/>
<path d="M27.0301 28.76C27.3801 29.06 28.4101 29.62 28.7501 29.71C28.9401 29.76 28.9401 29.85 28.7601 31.56C28.6701 32.4 28.6701 32.42 28.8901 32.59C29.0501 32.72 29.1901 32.75 29.4101 32.72C29.6801 32.68 29.7601 32.6 30.1101 32.02L30.5101 31.36L30.7301 31.8C31.0701 32.47 31.3201 32.74 31.6501 32.76C32.0801 32.78 32.1601 32.63 32.1601 31.83V31.14L32.7401 31.48C33.2101 31.75 33.3801 31.81 33.6301 31.78C33.8001 31.76 33.9801 31.68 34.0301 31.6C34.0801 31.52 34.1301 31.4 34.1301 31.32C34.1501 31.09 33.7201 30.51 33.1501 29.96C32.3501 29.2 32.3701 29.26 32.8401 28.83C33.0601 28.62 33.4101 28.2 33.6001 27.89C33.7901 27.58 34.0101 27.26 34.0901 27.19C34.4201 26.84 33.8701 26.46 33.3601 26.69C33.2301 26.75 33.1001 26.79 33.0601 26.79C33.0201 26.79 32.7501 26.93 32.4701 27.1C31.7201 27.55 31.6701 27.54 31.3701 26.96C31.2301 26.69 31.0701 26.31 31.0201 26.12C30.9001 25.67 30.4901 25.42 30.1201 25.57C29.9801 25.63 29.7901 25.7 29.6901 25.74C29.5301 25.8 29.5001 25.91 29.4301 26.74C29.3901 27.25 29.3301 27.78 29.2901 27.91L29.2301 28.15L28.3601 28.1C27.7301 28.06 27.4101 28.09 27.2001 28.18C26.6601 28.41 26.6601 28.44 27.0401 28.77L27.0301 28.76Z" fill="#D0DAED"/>
</svg>
