<svg width="220" height="190" viewBox="0 0 220 190" fill="none" xmlns="http://www.w3.org/2000/svg">
<path d="M113.26 176.94C157.548 176.94 193.45 141.037 193.45 96.7496C193.45 52.4619 157.548 16.5596 113.26 16.5596C68.9724 16.5596 33.0701 52.4619 33.0701 96.7496C33.0701 141.037 68.9724 176.94 113.26 176.94Z" fill="#7993CB"/>
<path d="M113.26 176.94C157.548 176.94 193.45 141.037 193.45 96.7496C193.45 52.4619 157.548 16.5596 113.26 16.5596C68.9724 16.5596 33.0701 52.4619 33.0701 96.7496C33.0701 141.037 68.9724 176.94 113.26 176.94Z" stroke="#231F20" stroke-width="1.8" stroke-linecap="round" stroke-linejoin="round"/>
<path d="M114.67 50.3296C114.67 59.2896 110.96 69.2496 103.75 75.9696C108.59 77.1096 114.68 77.6496 118.28 80.1096C130.26 88.2696 150.14 106.3 157.87 126.15C158.85 128.66 131.43 123.66 128.1 122.84C128.45 123.88 129.66 127.69 130.36 130.79C134.41 148.73 137.27 172.32 137.27 172.32C137.27 172.32 128.81 175.19 120.25 175.75C112.94 176.23 108.36 175.93 104.02 175.5C79.3 173.13 64.0601 158.72 60.2001 155.71C59.1101 150.81 59.46 149.45 58.37 142.73C56.17 141.91 54.18 140.96 52.4701 139.87C42.7301 133.66 40.6101 123.91 40.6101 122.47C40.6101 107.11 60.92 87.6196 60.92 87.6196C60.92 87.6196 36.8 78.3296 36.8 55.2996C36.8 38.3996 47.54 16.5996 74.77 16.5996C94.23 16.5996 114.68 29.7396 114.68 50.3396L114.67 50.3296Z" fill="white"/>
<path d="M128.65 122.93C142.75 126.78 157.23 127.61 162.55 126.53C178.71 123.25 190.31 84.82 192.63 71.24C194.98 57.52 171.34 47.95 166.44 65.65C164.17 73.85 160.5 91.56 158.13 95.67L135.35 89.46" fill="white"/>
<path d="M128.65 122.93C142.75 126.78 157.23 127.61 162.55 126.53C178.71 123.25 190.31 84.82 192.63 71.24C194.98 57.52 171.34 47.95 166.44 65.65C164.17 73.85 160.5 91.56 158.13 95.67L135.35 89.46" stroke="#231F20" stroke-width="1.78" stroke-linecap="round" stroke-linejoin="round"/>
<path d="M141.86 88.8793C141.72 88.8993 138.39 89.2793 134.36 87.7793C130.67 86.3993 125.64 83.1093 122.62 75.2793C120.68 70.2393 120.72 65.0193 121.53 60.2993C122.59 54.1393 129.43 52.0393 133.2 57.1193C135.68 60.4593 138.09 60.5593 138.14 60.5793L136.83 63.7393C136.62 63.6493 133.72 62.4093 131.17 59.3093C129.18 56.8993 125.31 57.8793 124.8 60.9593C124.11 65.1293 124.15 69.7093 125.82 74.0493C130.64 86.5793 141.02 85.5393 141.46 85.4893L141.87 88.8793H141.86Z" fill="#ED8851"/>
<path d="M174.9 84.8096C175.04 84.7896 178.37 84.3596 181.91 81.9196C185.15 79.6796 189.24 75.2696 190.26 66.9396C190.92 61.5796 189.62 56.5196 187.69 52.1496C185.17 46.4296 178.02 46.0596 175.6 51.8996C174.01 55.7396 171.69 56.4296 171.65 56.4596L173.68 59.1996C173.86 59.0696 176.37 57.1596 178.1 53.5296C179.44 50.7096 183.44 50.7196 184.68 53.5796C186.36 57.4596 187.44 61.9096 186.87 66.5196C185.23 79.8396 174.91 81.3596 174.47 81.4196L174.9 84.8096Z" fill="#ED8851"/>
<path d="M162.799 95.192L157.181 95.8838L160.493 122.781L166.111 122.089L162.799 95.192Z" fill="#ED8851"/>
<path d="M173.68 44.4595C173.7 44.6495 173.67 44.8395 173.6 45.0295L177.56 77.1895C178.22 82.5795 176.64 87.7295 173.54 91.6995C170.44 95.6695 165.83 98.4595 160.44 99.1195C149.66 100.45 139.84 92.7795 138.51 81.9995L134.55 49.8395C134.43 49.6695 134.35 49.4895 134.33 49.2995C134.02 46.7895 142.58 43.6795 153.45 42.3395C164.32 40.9995 173.38 41.9495 173.69 44.4495L173.68 44.4595Z" fill="#ED8851"/>
<path d="M174.35 49.9091C174.37 50.0991 174.35 50.2891 174.27 50.4791L177.56 77.1991C178.22 82.5891 176.64 87.7391 173.54 91.7091C171.97 93.7191 170.01 95.4291 167.76 96.7091C165.92 97.7591 163.89 98.5191 161.71 98.9391C161.29 99.0191 160.86 99.0891 160.43 99.1391C149.65 100.469 139.83 92.7991 138.5 82.0191L135.21 55.2991C135.09 55.1291 135.01 54.9491 134.99 54.7691C134.97 54.5891 134.99 54.3791 135.07 54.1791C135.45 53.2191 136.99 52.1891 139.35 51.2391C140.82 50.6391 142.61 50.0691 144.63 49.5491C147.41 48.8391 150.64 48.2291 154.1 47.8091C164.14 46.5691 172.63 47.2891 174.12 49.3691C174.24 49.5391 174.32 49.7291 174.34 49.9191L174.35 49.9091Z" fill="#EEBB1C"/>
<path d="M174.13 124.69C174.14 124.79 174.13 124.89 174.09 125C173.6 126.26 169.34 127.71 164.04 128.37C158.75 129.02 154.27 128.65 153.48 127.54C153.41 127.45 153.37 127.35 153.36 127.25C153.35 127.15 153.36 127.05 153.4 126.95L153.23 125.56C153.05 124.12 153.18 122.71 153.56 121.4C154.68 117.53 158.01 114.5 162.26 113.98C165.11 113.63 167.83 114.47 169.92 116.1C170.95 116.91 171.84 117.91 172.51 119.06C173.2 120.24 173.66 121.57 173.84 123.01L174.01 124.4C174.07 124.49 174.11 124.58 174.13 124.68V124.69Z" fill="#EEBB1C"/>
<path d="M174.13 124.689C174.14 124.789 174.13 124.889 174.09 124.999C173.6 126.259 169.34 127.709 164.04 128.369C158.75 129.019 154.27 128.649 153.48 127.539C153.41 127.449 153.37 127.349 153.36 127.249C153.35 127.149 153.36 127.049 153.4 126.949L153.23 125.559C153.05 124.119 153.18 122.709 153.56 121.399L172.51 119.069C173.2 120.249 173.66 121.579 173.84 123.019L174.01 124.409C174.07 124.499 174.11 124.589 174.13 124.689Z" fill="#ED8851"/>
<path d="M153.07 123.45L173.64 120.92C174.94 120.76 176.18 121.52 176.63 122.75L181.06 134.86L149.12 138.8L150.63 125.92C150.78 124.63 151.79 123.61 153.08 123.46L153.07 123.45Z" fill="#EEBB1C"/>
<path d="M149.12 138.789L151.77 141.179L179.96 137.709L181.06 134.859L149.12 138.789Z" fill="#ED8851"/>
<path d="M139.01 90.4699C132.41 87.0299 121.09 79.2699 103.75 76.3799" stroke="#231F20" stroke-width="1.58" stroke-linecap="round" stroke-linejoin="round"/>
<path d="M59.4602 156.21C58.8402 149.19 58.2702 142.43 58.3802 142.66" stroke="#231F20" stroke-width="1.58" stroke-linecap="round" stroke-linejoin="round"/>
<path d="M86.1101 42.0693C87.1401 44.8493 87.5201 48.6393 87.5201 48.6393L86.1101 42.0693Z" fill="white"/>
<path d="M86.1101 42.0693C87.1401 44.8493 87.5201 48.6393 87.5201 48.6393" stroke="#231F20" stroke-width="1.67" stroke-linecap="round" stroke-linejoin="round"/>
<path d="M60.8301 47.0498C61.8601 49.8298 62.2401 53.6198 62.2401 53.6198L60.8301 47.0498Z" fill="white"/>
<path d="M60.8301 47.0498C61.8601 49.8298 62.2401 53.6198 62.2401 53.6198" stroke="#231F20" stroke-width="1.67" stroke-linecap="round" stroke-linejoin="round"/>
<path fill-rule="evenodd" clip-rule="evenodd" d="M90.0702 62.7795C84.6202 62.1295 71.6302 65.0895 65.9302 67.5395C69.5002 74.4095 87.0402 76.5995 90.0702 62.7795Z" fill="#231F20" stroke="#231F20" stroke-width="1.82" stroke-linecap="round" stroke-linejoin="round"/>
<path fill-rule="evenodd" clip-rule="evenodd" d="M90.0702 62.7795C84.6202 62.1295 71.6302 65.0895 65.9302 67.5395C66.4902 68.6095 67.3802 69.5595 68.5002 70.3595C74.6202 69.9595 83.5202 68.4395 88.9302 66.0995C89.4102 65.1195 89.7902 64.0095 90.0602 62.7795H90.0702Z" fill="white" stroke="#231F20" stroke-width="1.82" stroke-linecap="round" stroke-linejoin="round"/>
<path d="M103.75 76.3797C108.45 71.2397 112.11 65.0997 113.91 58.3297C115.32 53.0197 114.57 46.8097 113.32 41.5297C110.51 29.6397 100.35 21.9597 89.1401 18.5397C82.6701 16.5697 76.2201 16.0297 69.5201 17.0897C62.9101 18.1397 55.0301 20.4697 49.7201 24.6897C39.3401 32.9397 35.1801 48.1797 37.3701 60.8797C39.5101 73.2597 49.1801 83.5997 60.9201 87.5997" stroke="#231F20" stroke-width="1.58" stroke-linecap="round" stroke-linejoin="round"/>
<path d="M103.75 76.3797C108.45 71.2397 112.11 65.0997 113.91 58.3297C115.32 53.0197 114.57 46.8097 113.32 41.5297C110.51 29.6397 100.35 21.9597 89.1401 18.5397C82.6701 16.5697 76.2201 16.0297 69.5201 17.0897C62.9101 18.1397 55.0301 20.4697 49.7201 24.6897C39.3401 32.9397 35.1801 48.1797 37.3701 60.8797C39.5101 73.2597 49.1801 83.5997 60.9201 87.5997" stroke="#231F20" stroke-width="1.58" stroke-linecap="round" stroke-linejoin="round"/>
<path d="M60.91 87.6097C60.91 87.6097 50.36 98.9297 44.49 108.05C39.22 116.24 39.15 125.62 44.71 133.19C54.5 146.52 82.88 148.47 91.94 146.63C108.1 143.35 136.3 98.9097 143.14 81.6697C148.27 68.7297 130.49 64.3197 118.99 78.6297C110.41 89.2997 96.76 105.65 90.12 113.01C88.58 114.71 86.21 115.38 84.01 114.73L75.76 112.3" fill="white"/>
<path d="M60.91 87.6097C60.91 87.6097 50.36 98.9297 44.49 108.05C39.22 116.24 39.15 125.62 44.71 133.19C54.5 146.52 82.88 148.47 91.94 146.63C108.1 143.35 136.3 98.9097 143.14 81.6697C148.27 68.7297 130.49 64.3197 118.99 78.6297C110.41 89.2997 96.76 105.65 90.12 113.01C88.58 114.71 86.21 115.38 84.01 114.73L75.76 112.3" stroke="#231F20" stroke-width="1.78" stroke-linecap="round" stroke-linejoin="round"/>
<path d="M137.69 173.15C135.48 153.31 130.69 127.44 125.61 115.64" stroke="#231F20" stroke-width="1.58" stroke-linecap="round" stroke-linejoin="round"/>
</svg>
