<svg width="220" height="190" viewBox="0 0 220 190" fill="none" xmlns="http://www.w3.org/2000/svg">
<path d="M113.26 175.19C157.548 175.19 193.45 139.287 193.45 94.9996C193.45 50.7119 157.548 14.8096 113.26 14.8096C68.9724 14.8096 33.0701 50.7119 33.0701 94.9996C33.0701 139.287 68.9724 175.19 113.26 175.19Z" fill="#7993CB" stroke="#231F20" stroke-width="1.5" stroke-linecap="round" stroke-linejoin="round"/>
<path d="M87.0001 108.5C81.5001 131 78.43 165.64 78.43 165.64C99.52 176.3 121.48 177.5 144.5 167.25L139.52 124.42L141.5 102.5C141.5 102.5 146 100.001 146 84.5004C146 69 130 43.0002 97.5001 55.0002C65.0001 67.0002 75.9999 101 87.0001 108.5Z" fill="white"/>
<path d="M129.95 113.27C139.65 107.68 146.4 96.83 146.14 85.5C145.87 73.87 139.52 61.1 128.89 55.61C123.45 52.8 116.07 52.11 110.03 52.33C103.91 52.56 98.2899 54.16 92.8999 57.04C83.5699 62.02 75.9099 70.6 75.4999 81.62C75.3199 86.51 75.7299 92.14 77.9099 96.6C80.6899 102.28 84.9999 107.08 90.0599 110.81" stroke="#231F20" stroke-width="1.5" stroke-linecap="round" stroke-linejoin="round"/>
<path d="M98.3301 77.3301C98.0901 79.9901 98.6501 83.3901 98.6501 83.3901L98.3301 77.3301Z" fill="white"/>
<path d="M98.3301 77.3301C98.0901 79.9901 98.6501 83.3901 98.6501 83.3901" stroke="#231F20" stroke-width="2" stroke-linecap="round" stroke-linejoin="round"/>
<path d="M121.65 77.3301C121.35 79.9901 121.84 83.3901 121.84 83.3901L121.65 77.3301Z" fill="white"/>
<path d="M121.65 77.3301C121.35 79.9901 121.84 83.3901 121.84 83.3901" stroke="#231F20" stroke-width="2" stroke-linecap="round" stroke-linejoin="round"/>
<path fill-rule="evenodd" clip-rule="evenodd" d="M133.45 33.0801C133.53 33.4801 133.38 33.8801 133.06 34.1301C132.74 34.3801 132.31 34.4301 131.95 34.2501C128.65 32.6901 122.28 29.6601 122.28 29.6601L131.32 22.5801C131.32 22.5801 132.73 29.5001 133.46 33.0701L133.45 33.0801Z" fill="#EEBB1C"/>
<path fill-rule="evenodd" clip-rule="evenodd" d="M122.89 40.2396C122.92 40.6496 122.72 41.0296 122.37 41.2296C122.02 41.4396 121.59 41.4296 121.25 41.2096C118.18 39.2396 112.24 35.4196 112.24 35.4196L122.11 29.5596C122.11 29.5596 122.62 36.5996 122.88 40.2396H122.89Z" fill="#F06666"/>
<path fill-rule="evenodd" clip-rule="evenodd" d="M111.34 46.1698C111.3 46.5798 111.04 46.9198 110.66 47.0598C110.28 47.2098 109.86 47.1298 109.56 46.8498C106.86 44.3898 101.65 39.6398 101.65 39.6398L112.36 35.5098C112.36 35.5098 111.69 42.5398 111.34 46.1698Z" fill="#EEBB1C"/>
<path fill-rule="evenodd" clip-rule="evenodd" d="M98.8599 49.87C98.7599 50.26 98.4399 50.55 98.0399 50.63C97.6399 50.71 97.2399 50.56 96.9899 50.24C94.7499 47.36 90.4199 41.78 90.4199 41.78L101.68 39.54C101.68 39.54 99.8199 46.35 98.8599 49.87Z" fill="#F06666"/>
<path fill-rule="evenodd" clip-rule="evenodd" d="M85.9101 51.5396C85.7401 51.9096 85.3701 52.1396 84.9701 52.1396C84.5601 52.1396 84.1901 51.9297 84.0101 51.5597C82.3301 48.3197 79.0901 42.0496 79.0901 42.0496L90.5701 41.8896C90.5701 41.8896 87.5001 48.2497 85.9201 51.5396H85.9101Z" fill="#EEBB1C"/>
<path fill-rule="evenodd" clip-rule="evenodd" d="M134.6 17.9403C134.6 17.9403 107.65 53.0503 56.8701 37.9803C56.6801 37.9303 56.4701 38.0403 56.4101 38.2303C56.3501 38.4303 56.4701 38.6403 56.6601 38.6903C107.97 53.9103 135.18 18.3903 135.18 18.3903C135.31 18.2303 135.28 18.0003 135.11 17.8703C134.95 17.7503 134.72 17.7703 134.59 17.9403H134.6Z" fill="#7993CB" stroke="#231F20" stroke-linecap="round" stroke-linejoin="round"/>
<path fill-rule="evenodd" clip-rule="evenodd" d="M167.96 137.4L167.59 139.5L172.11 137.82L170.47 136.47C174.74 134 176.42 127.69 174.18 121.64C171.74 115.06 165.58 111.26 160.42 113.16C155.26 115.07 153.05 121.97 155.48 128.56C157.72 134.6 163.09 138.3 167.95 137.39L167.96 137.4Z" fill="#A1B3DB"/>
<path fill-rule="evenodd" clip-rule="evenodd" d="M60.5199 79.4104L60.8299 81.1804L57.0099 79.7604L58.3899 78.6204C54.7899 76.5304 53.3699 71.2104 55.2599 66.1104C57.3199 60.5504 62.5199 57.3504 66.8699 58.9604C71.2299 60.5704 73.0899 66.4004 71.0399 71.9604C69.1499 77.0604 64.6099 80.1804 60.5199 79.4104Z" fill="#A1B3DB"/>
<path fill-rule="evenodd" clip-rule="evenodd" d="M207.49 119.1L197.09 122.79C196.74 122.91 196.56 123.3 196.69 123.65C196.81 124 197.18 124.17 197.53 124.04L207.93 120.35C208.28 120.23 208.46 119.86 208.34 119.51C208.22 119.16 207.83 118.98 207.49 119.1Z" fill="#B073AF"/>
<path fill-rule="evenodd" clip-rule="evenodd" d="M15.4899 101.65C15.7799 101.01 15.9199 100.27 15.8799 99.4102C15.8299 98.4602 15.2299 97.6502 14.3699 97.1902C13.1399 96.5202 11.4199 96.5802 10.3899 97.9202C9.45994 99.1202 9.50994 101.16 10.8999 102.36C11.2199 102.64 11.6199 102.87 12.0899 103.03C11.7999 103.16 11.4899 103.28 11.1799 103.38C8.02994 104.39 4.00994 104 4.00994 104C3.63994 103.96 3.31994 104.23 3.27994 104.6C3.24994 104.97 3.50994 105.29 3.87994 105.33C3.87994 105.33 8.19994 105.74 11.5899 104.66C12.5999 104.33 13.5399 103.88 14.2699 103.26C14.3799 103.25 14.4899 103.24 14.6099 103.22C16.8999 102.9 20.2199 101.38 24.7299 97.5702C25.0099 97.3302 25.0499 96.9102 24.8099 96.6302C24.5699 96.3502 24.1499 96.3102 23.8699 96.5502C20.2999 99.5602 17.5499 101.09 15.4899 101.67V101.65ZM13.6899 101.94C14.2599 101.33 14.5999 100.53 14.5499 99.4802C14.5199 98.9902 14.1699 98.6002 13.7299 98.3602C13.0199 97.9702 12.0399 97.9702 11.4399 98.7402C10.8999 99.4402 10.9499 100.64 11.7699 101.34C12.1999 101.71 12.8399 101.94 13.6899 101.93V101.94Z" fill="#8AC650"/>
<path fill-rule="evenodd" clip-rule="evenodd" d="M70.23 18.9398L71.29 23.0698C71.29 23.0698 77.75 26.4698 83.53 24.0198L82.87 17.7998C82.87 17.7998 76.2 20.5398 70.23 18.9398Z" fill="#ED8851"/>
<path fill-rule="evenodd" clip-rule="evenodd" d="M187.47 19.8799L184.99 23.3599C184.99 23.3599 186.57 30.4899 192.17 33.3199L196.49 28.7999C196.49 28.7999 190.09 25.4799 187.46 19.8799H187.47Z" fill="#ED8851"/>
<path fill-rule="evenodd" clip-rule="evenodd" d="M10.1699 48.6804C10.1699 48.6804 15.5899 48.0604 20.5099 43.1504L22.3199 46.9604C22.3199 46.9604 20.3799 55.0804 12.8499 56.8304L10.1699 48.6704V48.6804Z" fill="#B073AF"/>
<path fill-rule="evenodd" clip-rule="evenodd" d="M142.43 52.0997C142.43 52.0997 140.53 46.9897 134.59 43.3897L137.86 40.7197C137.86 40.7197 146.21 40.6597 149.71 47.5497L142.43 52.0997Z" fill="#EEBB1C"/>
<path fill-rule="evenodd" clip-rule="evenodd" d="M154.11 11.5102L156.94 6.99023C156.94 6.99023 157.85 13.3802 162.98 15.9502L160.9 16.9802C160.9 16.9802 157.52 17.5402 154.11 11.5202V11.5102Z" fill="#7993CB"/>
<path fill-rule="evenodd" clip-rule="evenodd" d="M52.9701 23.8799C51.5101 23.8799 50.3401 25.0699 50.3401 26.5099C50.3401 27.9499 51.5101 29.1399 52.9701 29.1399C54.4301 29.1399 55.6001 27.9699 55.6001 26.5099C55.6001 25.0499 54.4101 23.8799 52.9701 23.8799ZM52.9701 25.2199C53.6701 25.2199 54.2501 25.7999 54.2501 26.4999C54.2501 27.1999 53.6701 27.7999 52.9701 27.7999C52.2701 27.7999 51.6701 27.2199 51.6701 26.4999C51.6701 25.7799 52.2501 25.2199 52.9701 25.2199Z" fill="#EEBB1C"/>
<path fill-rule="evenodd" clip-rule="evenodd" d="M206.85 74.71C205.39 74.71 204.22 75.9 204.22 77.34C204.22 78.78 205.39 79.97 206.85 79.97C208.31 79.97 209.48 78.8 209.48 77.34C209.48 75.88 208.29 74.71 206.85 74.71ZM206.85 76.05C207.55 76.05 208.13 76.63 208.13 77.33C208.13 78.03 207.55 78.63 206.85 78.63C206.15 78.63 205.55 78.05 205.55 77.33C205.55 76.61 206.13 76.05 206.85 76.05Z" fill="#EEBB1C"/>
<path fill-rule="evenodd" clip-rule="evenodd" d="M29.54 22.0699C29.59 22.1499 29.64 22.2399 29.69 22.3299C30.6 23.7899 32.64 25.5899 36.59 27.5199C36.77 27.6099 36.99 27.5299 37.08 27.3499C37.17 27.1699 37.09 26.9499 36.91 26.8599C33.53 25.2099 31.59 23.6799 30.61 22.3799C31.21 22.4399 31.84 22.3399 32.5 21.9999C33.09 21.6999 33.44 21.0799 33.49 20.3999C33.57 19.4099 33.04 18.3199 31.88 18.0299C30.84 17.7699 29.53 18.3899 29.15 19.6299C29.03 20.0099 29.01 20.4599 29.11 20.9499C28.82 20.7299 28.55 20.4699 28.3 20.1799C26.63 18.2999 25.67 15.3899 25.67 15.3899C25.61 15.1999 25.4 15.0999 25.21 15.1599C25.02 15.2199 24.92 15.4299 24.98 15.6199C24.98 15.6199 26 18.6799 27.76 20.6599C28.29 21.2599 28.88 21.7499 29.54 22.0599V22.0699ZM30.06 21.4999C30.7 21.7399 31.41 21.7399 32.17 21.3499C32.54 21.1599 32.73 20.7599 32.77 20.3399C32.82 19.6799 32.49 18.9299 31.71 18.7399C31 18.5599 30.11 18.9999 29.86 19.8499C29.72 20.2999 29.77 20.8599 30.07 21.4999H30.06Z" fill="#92B5B5"/>
<path fill-rule="evenodd" clip-rule="evenodd" d="M19.1899 128.55C19.1899 128.55 19.8499 128.89 19.8499 129.5C19.8499 129.77 19.7199 130.09 19.3799 130.45C18.5299 131.35 18.3799 132.08 18.5299 132.65C18.6899 133.22 19.1999 133.66 19.8199 133.96C20.3199 134.2 20.8399 134.64 20.8499 135.18C20.8499 135.53 20.6299 135.91 20.0999 136.29C19.3199 136.86 18.9999 137.52 18.9699 138.12C18.9299 139.05 19.5899 139.89 20.5699 140.23C20.7599 140.3 20.9599 140.2 21.0299 140.01C21.0999 139.82 20.9899 139.61 20.7999 139.55C20.1499 139.32 19.6699 138.78 19.6899 138.16C19.7099 137.73 19.9699 137.29 20.5199 136.89C21.3099 136.31 21.5799 135.7 21.5599 135.17C21.5399 134.37 20.8599 133.67 20.1299 133.32C19.7099 133.12 19.3299 132.85 19.2299 132.47C19.1199 132.08 19.3099 131.6 19.9099 130.97C20.4299 130.42 20.5899 129.92 20.5799 129.51C20.5699 128.52 19.5399 127.93 19.5399 127.93C19.3599 127.84 19.1399 127.9 19.0399 128.07C18.9399 128.25 19.0099 128.47 19.1899 128.56V128.55Z" fill="#FF7A3D"/>
<path d="M78.4301 165.64C78.4301 165.64 81.7701 136.79 81.5601 137.22C81.5601 137.22 39.4701 111.47 33.3501 56.1999C31.2101 36.8799 53.0201 39.6299 53.8701 51.2199C55.1401 68.5499 75.5601 104.06 90.0701 110.8" fill="white"/>
<path d="M78.4301 165.64C78.4301 165.64 81.7701 136.79 81.5601 137.22C81.5601 137.22 39.4701 111.47 33.3501 56.1999C31.2101 36.8799 53.0201 39.6299 53.8701 51.2199C55.1401 68.5499 75.5601 104.06 90.0701 110.8" stroke="#231F20" stroke-width="1.5" stroke-linecap="round" stroke-linejoin="round"/>
<path d="M129.95 113.27C144.35 106.31 166.36 69.8298 167.37 52.4798C168.05 40.8698 190.15 37.1398 186.8 62.6998C181.49 118.06 140.96 138.88 140.96 138.88C140.74 138.45 144.51 167.25 144.51 167.25" fill="white"/>
<path d="M129.95 113.27C144.35 106.31 166.36 69.8298 167.37 52.4798C168.05 40.8698 190.15 37.1398 186.8 62.6998C181.49 118.06 140.96 138.88 140.96 138.88C140.74 138.45 144.51 167.25 144.51 167.25" stroke="#231F20" stroke-width="1.5" stroke-linecap="round" stroke-linejoin="round"/>
<path fill-rule="evenodd" clip-rule="evenodd" d="M98.6299 96.6996C103.8 95.0196 116.98 95.4096 122.98 96.6996C120.82 104.05 104.21 109.54 98.6299 96.6996Z" fill="#231F20" stroke="#231F20" stroke-width="1.5" stroke-linecap="round" stroke-linejoin="round"/>
<path fill-rule="evenodd" clip-rule="evenodd" d="M98.6299 96.6996C103.8 95.0196 116.98 95.4096 122.98 96.6996C122.64 97.8396 121.96 98.9396 121.02 99.9296C115 100.72 106.06 100.94 100.37 99.6996C99.7199 98.8396 99.1299 97.8396 98.6299 96.6896V96.6996Z" fill="white" stroke="#231F20" stroke-width="1.5" stroke-linecap="round" stroke-linejoin="round"/>
</svg>
