<svg width="220" height="190" viewBox="0 0 220 190" fill="none" xmlns="http://www.w3.org/2000/svg">
<path d="M113.26 175.19C157.548 175.19 193.45 139.287 193.45 94.9996C193.45 50.7119 157.548 14.8096 113.26 14.8096C68.9724 14.8096 33.0701 50.7119 33.0701 94.9996C33.0701 139.287 68.9724 175.19 113.26 175.19Z" fill="#7993CB"/>
<mask id="mask0_783_1446" style="mask-type:luminance" maskUnits="userSpaceOnUse" x="33" y="14" width="161" height="162">
<path d="M113.26 175.19C157.548 175.19 193.45 139.287 193.45 94.9996C193.45 50.7119 157.548 14.8096 113.26 14.8096C68.9724 14.8096 33.0701 50.7119 33.0701 94.9996C33.0701 139.287 68.9724 175.19 113.26 175.19Z" fill="white"/>
</mask>
<g mask="url(#mask0_783_1446)">
<path d="M145.28 140.82C150.87 137 168.69 153.66 167.14 137.82C166.28 129.04 164.4 120.45 161.59 114.35C157.12 104.64 141.95 99.3 136.66 100.28C148.9 93.23 157.42 79.55 157.08 65.25C156.74 50.58 148.72 34.47 135.32 27.54C128.46 24 119.14 23.13 111.53 23.41C103.81 23.7 96.7201 25.72 89.9301 29.35C78.1601 35.63 68.5001 46.46 67.9801 60.35C67.7501 66.51 68.2801 73.62 71.0201 79.24C74.5201 86.41 79.9601 92.46 86.3401 97.17C78.3001 99.9 68.7701 109.24 61.2601 113.16L60.2201 143.64L75.6201 133.16L70.0301 175.06L146.93 174.15C147.17 162.73 147.01 151.47 145.29 140.82H145.28ZM165.5 156.49C174.19 150.56 169.46 131.46 161.58 114.35C157.11 104.64 141.94 99.3 136.65 100.28C148.89 93.23 157.41 79.55 157.07 65.25C156.73 50.58 148.71 34.47 135.31 27.54C128.45 24 119.13 23.13 111.52 23.41C103.8 23.7 96.7101 25.72 89.9201 29.35C78.1501 35.63 68.4901 46.46 67.9701 60.35C67.7401 66.51 68.2701 73.62 71.0101 79.24C74.5101 86.41 79.9501 92.46 86.3301 97.17C78.2901 99.9 68.7601 109.24 61.2501 113.16M139.17 166.22L58.3701 136.88L139.17 166.22Z" fill="white"/>
<path d="M72.8402 158.51C71.8502 167.01 71.6702 169.01 71.6702 169.01L72.8402 158.51Z" fill="white"/>
<path d="M72.8402 158.51C71.8502 167.01 71.6702 169.01 71.6702 169.01" stroke="#231F20" stroke-width="2.03" stroke-linecap="round" stroke-linejoin="round"/>
<path d="M144.88 138.31C145.61 142.15 148.52 165.4 146.06 170.19L144.88 138.31Z" fill="white"/>
<path d="M144.88 138.31C145.61 142.15 148.52 165.4 146.06 170.19" stroke="#231F20" stroke-width="2.03" stroke-linecap="round" stroke-linejoin="round"/>
<path d="M61.25 113.16C68.76 109.24 78.29 99.9 86.33 97.17C79.95 92.46 74.51 86.41 71.01 79.24C68.27 73.62 67.74 66.51 67.97 60.35C68.49 46.46 78.15 35.63 89.92 29.35C96.71 25.72 103.8 23.7 111.52 23.41C119.13 23.13 128.45 24 135.31 27.54C148.71 34.47 156.73 50.58 157.07 65.25C157.41 79.55 148.89 93.23 136.65 100.28C141.94 99.3 157.11 104.64 161.58 114.35C169.46 131.46 174.19 150.56 165.5 156.49H163.5M61.25 146V143.27C61.25 143.27 75.34 133.7 75.61 133.16C75.88 132.62 71.67 169.02 71.67 169.02" stroke="#231F20" stroke-width="1.8" stroke-linecap="round" stroke-linejoin="round"/>
<path d="M98.49 54.9502C97.95 58.2802 98.36 62.6002 98.36 62.6002L98.49 54.9502Z" fill="white"/>
<path d="M98.49 54.9502C97.95 58.2802 98.36 62.6002 98.36 62.6002" stroke="#231F20" stroke-width="1.91" stroke-linecap="round" stroke-linejoin="round"/>
<path d="M127.82 54.9502C127.28 58.2802 127.69 62.6002 127.69 62.6002L127.82 54.9502Z" fill="white"/>
<path d="M127.82 54.9502C127.28 58.2802 127.69 62.6002 127.69 62.6002" stroke="#231F20" stroke-width="1.91" stroke-linecap="round" stroke-linejoin="round"/>
</g>
<path d="M113.26 175.19C157.548 175.19 193.45 139.287 193.45 94.9996C193.45 50.7119 157.548 14.8096 113.26 14.8096C68.9724 14.8096 33.0701 50.7119 33.0701 94.9996C33.0701 139.287 68.9724 175.19 113.26 175.19Z" stroke="#231F20" stroke-width="1.8" stroke-linecap="round" stroke-linejoin="round"/>
<path fill-rule="evenodd" clip-rule="evenodd" d="M44.3101 158.01C47.5901 158.97 53.8101 159.55 56.8001 157.57C57.4801 157.12 58.0701 156.55 58.6001 155.93C59.3401 155.06 59.9201 154.11 60.5101 153.14C60.6901 152.84 61.2301 151.91 61.4901 151.69C61.8501 151.46 62.2401 151.27 62.6101 151.05C63.2401 150.67 63.8401 150.26 64.3801 149.77C65.9801 148.34 66.9101 146.52 67.2301 144.43C67.8101 140.66 66.9901 136.79 65.8701 133.22C65.8401 133.13 65.8201 133.04 65.8301 132.94C65.8701 132.59 66.3001 131.74 66.4501 131.39C67.0501 130 67.4401 128.61 67.7301 127.14C68.6601 122.31 65.8701 113.4 62.9601 109.55C62.1401 108.46 61.2601 107.46 60.3301 106.46C59.6601 105.74 58.9601 105.02 58.3701 104.24C58.0001 103.76 57.6801 103.25 57.4201 102.7C57.0101 101.85 56.7801 100.57 56.6401 99.6402C56.4101 98.1302 56.2901 96.5702 56.2301 95.0402C56.1701 93.5902 56.1601 92.1402 56.2101 90.6902C56.2501 89.6202 56.3101 88.4802 56.5001 87.4202C56.9401 84.9102 56.9001 81.6902 54.7201 79.9702C52.6601 78.3402 49.8201 78.9502 47.5701 79.9402C41.1601 82.7502 39.9501 88.2202 40.4001 94.5302C40.5801 97.0602 40.9701 99.6502 42.0401 101.95C42.8101 103.62 44.4901 107.77 43.6101 109.66C43.1801 110.02 41.4001 110.55 40.9001 110.7C39.0801 111.24 37.2601 111.72 35.4701 112.35C33.2001 113.14 30.6701 114.24 28.9601 115.98C26.8801 118.09 26.1801 120.75 26.7101 123.58C27.5601 129.1 30.3701 132.74 32.1201 137.37C33.2601 140.39 33.3101 144.66 34.4801 147.29C37.3601 153.74 41.4201 157.16 44.3101 158.01Z" fill="white" stroke="#231F20" stroke-width="2.08" stroke-linecap="round" stroke-linejoin="round"/>
<path fill-rule="evenodd" clip-rule="evenodd" d="M43.9102 118.93C46.8902 118.85 52.7602 116.89 53.6102 122.94C54.4602 128.99 53.8602 134.29 55.3402 139.68C56.8202 145.07 62.1902 146.63 60.5002 153.14" fill="white"/>
<path d="M43.9102 118.93C46.8902 118.85 52.7602 116.89 53.6102 122.94C54.4602 128.99 53.8602 134.29 55.3402 139.68C56.8202 145.07 62.1902 146.63 60.5002 153.14" stroke="#231F20" stroke-width="2.08" stroke-linecap="round" stroke-linejoin="round"/>
<path fill-rule="evenodd" clip-rule="evenodd" d="M162.08 162.57C159.16 162.77 153.85 162.11 151.72 159.91C151.23 159.41 150.84 158.83 150.52 158.21C150.06 157.35 149.75 156.44 149.44 155.53C149.34 155.25 149.07 154.37 148.89 154.14C148.63 153.89 148.34 153.65 148.07 153.4C147.61 152.97 147.19 152.51 146.82 152C145.74 150.51 145.3 148.82 145.41 147.01C145.61 143.75 147.01 140.66 148.6 137.88C148.64 137.81 148.68 137.73 148.68 137.65C148.71 137.35 148.51 136.56 148.45 136.24C148.21 134.97 148.13 133.74 148.16 132.45C148.27 128.24 152.23 121.3 155.37 118.61C156.26 117.85 157.18 117.17 158.14 116.51C158.83 116.03 159.55 115.56 160.18 115.01C160.58 114.67 160.93 114.31 161.26 113.9C161.76 113.27 162.18 112.24 162.47 111.49C162.94 110.27 163.32 108.99 163.66 107.72C163.98 106.52 164.25 105.3 164.47 104.08C164.63 103.18 164.79 102.21 164.83 101.29C164.92 99.1102 165.55 96.4202 167.69 95.3902C169.71 94.4102 171.98 95.4402 173.67 96.6702C178.52 100.19 178.53 104.99 176.99 110.19C176.38 112.27 175.57 114.37 174.26 116.1C173.31 117.35 171.15 120.52 171.53 122.26C171.82 122.64 173.21 123.41 173.6 123.63C175.02 124.42 176.45 125.15 177.84 126C179.6 127.08 181.51 128.46 182.62 130.23C183.97 132.37 184.07 134.73 183.11 137C181.39 141.46 178.37 143.99 176.06 147.54C174.55 149.85 173.73 153.42 172.27 155.4C168.68 160.27 164.66 162.38 162.09 162.57H162.08Z" fill="white" stroke="#231F20" stroke-width="1.78" stroke-linecap="round" stroke-linejoin="round"/>
<path fill-rule="evenodd" clip-rule="evenodd" d="M169.58 129.95C167.1 129.33 162.55 126.62 160.73 131.53C158.91 136.44 158.44 140.98 156.22 145.21C154.07 149.29 149.22 149.77 149.43 155.52" fill="white"/>
<path d="M169.58 129.95C167.1 129.33 162.55 126.62 160.73 131.53C158.91 136.44 158.44 140.98 156.22 145.21C154.07 149.29 149.22 149.77 149.43 155.52" stroke="#231F20" stroke-width="1.78" stroke-linecap="round" stroke-linejoin="round"/>
<path fill-rule="evenodd" clip-rule="evenodd" d="M98.6201 78.9698C104.56 77.0398 119.73 77.4898 126.63 78.9698C124.15 87.4298 105.04 93.7398 98.6201 78.9698Z" fill="#231F20" stroke="#231F20" stroke-width="2.08" stroke-linecap="round" stroke-linejoin="round"/>
<path fill-rule="evenodd" clip-rule="evenodd" d="M98.6201 78.9698C104.56 77.0398 119.73 77.4898 126.63 78.9698C126.24 80.2898 125.46 81.5498 124.38 82.6898C117.46 83.5898 107.18 83.8598 100.62 82.4298C99.8701 81.4398 99.1901 80.2898 98.6201 78.9698Z" fill="white" stroke="#231F20" stroke-width="2.08" stroke-linecap="round" stroke-linejoin="round"/>
</svg>
