<svg width="220" height="190" viewBox="0 0 220 190" fill="none" xmlns="http://www.w3.org/2000/svg">
<path d="M165.06 37.4896L175.68 35.3796C175.86 35.3396 175.8 35.0596 175.62 35.0996L165 37.2096C164.82 37.2496 164.88 37.5296 165.06 37.4896Z" fill="#92B5B5" stroke="#92B5B5" stroke-width="0.67" stroke-miterlimit="10"/>
<path d="M177.14 51.0605L180.62 40.8105C180.68 40.6405 180.41 40.5404 180.35 40.7204L176.87 50.9705C176.81 51.1405 177.08 51.2405 177.14 51.0605Z" fill="#92B5B5" stroke="#92B5B5" stroke-width="0.67" stroke-miterlimit="10"/>
<path d="M194.93 47.3805L187.8 39.2405C187.68 39.1005 187.46 39.2905 187.59 39.4305L194.72 47.5705C194.84 47.7105 195.06 47.5205 194.93 47.3805Z" fill="#92B5B5" stroke="#92B5B5" stroke-width="0.67" stroke-miterlimit="10"/>
<path d="M200.64 30.1396L190.02 32.2496C189.84 32.2896 189.9 32.5696 190.08 32.5296L200.7 30.4196C200.88 30.3796 200.82 30.0996 200.64 30.1396Z" fill="#92B5B5" stroke="#92B5B5" stroke-width="0.67" stroke-miterlimit="10"/>
<path d="M188.56 16.5798L185.08 26.8298C185.02 26.9998 185.29 27.0998 185.35 26.9198L188.83 16.6698C188.89 16.4998 188.62 16.3998 188.56 16.5798Z" fill="#92B5B5" stroke="#92B5B5" stroke-width="0.67" stroke-miterlimit="10"/>
<path d="M170.77 20.2498L177.9 28.3898C178.02 28.5298 178.24 28.3398 178.11 28.1998L170.98 20.0598C170.86 19.9198 170.64 20.1098 170.77 20.2498Z" fill="#92B5B5" stroke="#92B5B5" stroke-width="0.67" stroke-miterlimit="10"/>
<path d="M182.28 16.8996L182.44 23.0696C182.44 23.2496 182.73 23.2496 182.72 23.0696L182.56 16.8996C182.56 16.7196 182.27 16.7196 182.28 16.8996Z" fill="#92B5B5" stroke="#92B5B5" stroke-width="0.67" stroke-miterlimit="10"/>
<path d="M167.91 25.8503L173.33 28.8003C173.49 28.8903 173.63 28.6403 173.47 28.5503L168.05 25.6003C167.89 25.5103 167.75 25.7603 167.91 25.8503Z" fill="#92B5B5" stroke="#92B5B5" stroke-width="0.67" stroke-miterlimit="10"/>
<path d="M168.49 42.77L173.75 39.55C173.91 39.45 173.75 39.21 173.6 39.31L168.34 42.53C168.18 42.63 168.34 42.87 168.49 42.77Z" fill="#92B5B5" stroke="#92B5B5" stroke-width="0.67" stroke-miterlimit="10"/>
<path d="M184.06 64.2896L183.27 44.5696C183.27 44.3896 182.98 44.3896 182.99 44.5696L183.78 64.2896C183.78 64.4696 184.07 64.4696 184.06 64.2896Z" fill="#92B5B5" stroke="#92B5B5" stroke-width="0.67" stroke-miterlimit="10"/>
<path d="M197.79 41.7798L192.37 38.8298C192.21 38.7398 192.07 38.9898 192.23 39.0798L197.65 42.0298C197.81 42.1198 197.95 41.8698 197.79 41.7798Z" fill="#92B5B5" stroke="#92B5B5" stroke-width="0.67" stroke-miterlimit="10"/>
<path d="M197.22 24.8598L191.96 28.0798C191.8 28.1798 191.96 28.4198 192.11 28.3198L197.37 25.0998C197.53 24.9998 197.37 24.7598 197.22 24.8598Z" fill="#92B5B5" stroke="#92B5B5" stroke-width="0.67" stroke-miterlimit="10"/>
<path d="M168.76 31.7305L176.36 32.9305C176.54 32.9605 176.59 32.6805 176.4 32.6505L168.8 31.4505C168.62 31.4205 168.57 31.7005 168.76 31.7305Z" fill="#92B5B5" stroke="#92B5B5" stroke-width="0.67" stroke-miterlimit="10"/>
<path d="M165.57 31.2197L166.98 31.4397C167.16 31.4697 167.21 31.1897 167.02 31.1597L165.61 30.9397C165.43 30.9097 165.38 31.1897 165.57 31.2197Z" fill="#92B5B5" stroke="#92B5B5" stroke-width="0.67" stroke-miterlimit="10"/>
<path d="M174 44.9704L178.84 38.9904C178.96 38.8504 178.73 38.6704 178.62 38.8104L173.78 44.7904C173.66 44.9304 173.89 45.1104 174 44.9704Z" fill="#92B5B5" stroke="#92B5B5" stroke-width="0.67" stroke-miterlimit="10"/>
<path d="M171.97 47.4803L172.87 46.3703C172.99 46.2303 172.76 46.0503 172.65 46.1903L171.75 47.3003C171.63 47.4403 171.86 47.6203 171.97 47.4803Z" fill="#92B5B5" stroke="#92B5B5" stroke-width="0.67" stroke-miterlimit="10"/>
<path d="M188.09 47.06L185.33 39.88C185.26 39.71 185 39.81 185.06 39.98L187.82 47.16C187.89 47.33 188.15 47.23 188.09 47.06Z" fill="#92B5B5" stroke="#92B5B5" stroke-width="0.67" stroke-miterlimit="10"/>
<path d="M189.24 50.0801L188.73 48.7501C188.66 48.5801 188.4 48.6801 188.46 48.8501L188.97 50.1801C189.04 50.3501 189.3 50.2501 189.24 50.0801Z" fill="#92B5B5" stroke="#92B5B5" stroke-width="0.67" stroke-miterlimit="10"/>
<path d="M196.94 35.8995L189.34 34.6995C189.16 34.6695 189.11 34.9495 189.3 34.9795L196.9 36.1795C197.08 36.2095 197.13 35.9295 196.94 35.8995Z" fill="#92B5B5" stroke="#92B5B5" stroke-width="0.67" stroke-miterlimit="10"/>
<path d="M200.13 36.4097L198.72 36.1897C198.54 36.1597 198.49 36.4397 198.68 36.4697L200.09 36.6897C200.27 36.7197 200.32 36.4397 200.13 36.4097Z" fill="#92B5B5" stroke="#92B5B5" stroke-width="0.67" stroke-miterlimit="10"/>
<path d="M191.7 22.66L186.86 28.64C186.74 28.78 186.97 28.96 187.08 28.82L191.92 22.84C192.04 22.7 191.81 22.52 191.7 22.66Z" fill="#92B5B5" stroke="#92B5B5" stroke-width="0.67" stroke-miterlimit="10"/>
<path d="M193.73 20.1503L192.83 21.2603C192.71 21.4003 192.94 21.5803 193.05 21.4403L193.95 20.3303C194.07 20.1903 193.84 20.0103 193.73 20.1503Z" fill="#92B5B5" stroke="#92B5B5" stroke-width="0.67" stroke-miterlimit="10"/>
<path d="M177.61 20.5698L180.37 27.7498C180.44 27.9198 180.7 27.8198 180.64 27.6498L177.88 20.4698C177.81 20.2998 177.55 20.3998 177.61 20.5698Z" fill="#92B5B5" stroke="#92B5B5" stroke-width="0.67" stroke-miterlimit="10"/>
<path d="M71 108L87 107L93 130.5L71.5 121L71 108Z" fill="white"/>
<path d="M176.46 17.56L176.97 18.89C177.04 19.06 177.3 18.96 177.24 18.79L176.73 17.46C176.66 17.29 176.4 17.39 176.46 17.56Z" fill="#92B5B5" stroke="#92B5B5" stroke-width="0.67" stroke-miterlimit="10"/>
<path d="M26.4099 132.49C59.7599 133.79 170.06 131.06 206.01 130.55" stroke="#231F20" stroke-width="1.2" stroke-linecap="round" stroke-linejoin="round"/>
<path d="M64.96 143.83V64.1504" stroke="#231F20" stroke-width="1.2" stroke-miterlimit="10"/>
<path d="M170.52 161.85V67.4004" stroke="#231F20" stroke-width="1.2" stroke-miterlimit="10"/>
<path d="M64.96 90.3903C66.43 90.3903 130.14 94.9902 147.17 96.2803C164.2 97.5603 170.53 99.5103 170.53 99.5103V71.9003C128 69.0803 85.15 66.2103 64.96 67.4003V90.3903Z" fill="#7993CB" stroke="#231F20" stroke-width="1.2" stroke-miterlimit="10"/>
<path fill-rule="evenodd" clip-rule="evenodd" d="M23.8601 29.9002C24.1501 29.2602 24.2901 28.5202 24.2501 27.6602C24.2001 26.7102 23.6001 25.9002 22.7401 25.4402C21.5101 24.7702 19.7901 24.8302 18.7601 26.1702C17.8301 27.3702 17.8801 29.4102 19.2701 30.6102C19.5901 30.8902 19.9901 31.1202 20.4601 31.2802C20.1701 31.4102 19.8601 31.5302 19.5501 31.6302C16.4001 32.6402 12.3801 32.2502 12.3801 32.2502C12.0101 32.2102 11.6901 32.4802 11.6501 32.8502C11.6201 33.2202 11.8801 33.5402 12.2501 33.5802C12.2501 33.5802 16.5701 33.9902 19.9601 32.9102C20.9701 32.5802 21.9101 32.1302 22.6401 31.5102C22.7501 31.5002 22.8601 31.4902 22.9801 31.4702C25.2701 31.1502 28.5901 29.6302 33.1001 25.8202C33.3801 25.5802 33.4201 25.1602 33.1801 24.8802C32.9401 24.6002 32.5201 24.5602 32.2401 24.8002C28.6701 27.8102 25.9201 29.3402 23.8601 29.9202V29.9002ZM22.0601 30.1802C22.6301 29.5702 22.9701 28.7702 22.9201 27.7202C22.8901 27.2302 22.5401 26.8402 22.1001 26.6002C21.3901 26.2102 20.4101 26.2102 19.8101 26.9802C19.2701 27.6802 19.3201 28.8802 20.1401 29.5802C20.5701 29.9502 21.2101 30.1802 22.0601 30.1702V30.1802Z" fill="#8AC650"/>
<path fill-rule="evenodd" clip-rule="evenodd" d="M193.33 76.24C193.33 76.24 198.75 75.62 203.67 70.71L205.48 74.52C205.48 74.52 203.54 82.64 196.01 84.39L193.33 76.23V76.24Z" fill="#B073AF"/>
<path fill-rule="evenodd" clip-rule="evenodd" d="M125.78 24.6304C125.78 24.6304 126.44 24.9704 126.44 25.5804C126.44 25.8504 126.31 26.1704 125.97 26.5304C125.12 27.4304 124.97 28.1604 125.12 28.7304C125.28 29.3004 125.79 29.7404 126.41 30.0404C126.91 30.2804 127.43 30.7204 127.44 31.2604C127.44 31.6104 127.22 31.9904 126.69 32.3704C125.91 32.9404 125.59 33.6004 125.56 34.2004C125.52 35.1304 126.18 35.9704 127.16 36.3104C127.35 36.3804 127.55 36.2804 127.62 36.0904C127.69 35.9004 127.58 35.6904 127.39 35.6304C126.74 35.4004 126.26 34.8604 126.28 34.2404C126.3 33.8104 126.56 33.3704 127.11 32.9704C127.9 32.3904 128.17 31.7804 128.15 31.2504C128.13 30.4504 127.45 29.7504 126.72 29.4004C126.3 29.2004 125.92 28.9304 125.82 28.5504C125.71 28.1604 125.9 27.6804 126.5 27.0504C127.02 26.5004 127.18 26.0004 127.17 25.5904C127.16 24.6004 126.13 24.0104 126.13 24.0104C125.95 23.9204 125.73 23.9804 125.63 24.1504C125.53 24.3304 125.6 24.5504 125.78 24.6404V24.6304Z" fill="#FF7A3D"/>
<path d="M84.12 104.75C90.35 106.51 102.17 113.65 105.22 123.11C107.12 129 88.52 149.33 88.52 149.33C84.51 154.67 81.56 148.58 81.56 148.58C78.73 145.04 86.8799 130.86 88 128" fill="white"/>
<path d="M84.12 104.75C90.35 106.51 102.17 113.65 105.22 123.11C107.12 129 88.52 149.33 88.52 149.33C84.51 154.67 81.56 148.58 81.56 148.58C78.73 145.04 86.8799 130.86 88 128" stroke="#231F20" stroke-width="1.2" stroke-linecap="round" stroke-linejoin="round"/>
<path d="M78.1299 123.11L88.1099 128.13" stroke="#231F20" stroke-width="1.2" stroke-linecap="round" stroke-linejoin="round"/>
<path d="M57.1101 63.2596C64.7201 58.4796 77.3001 62.6896 80.7201 66.8096C86.2301 73.4396 87.7401 91.5396 86.7701 92.1396C86.5401 92.2796 85.6401 100.19 85.1601 105.28C84.8301 108.72 79.8301 122.02 78.1301 123.96C71.7301 131.26 64.8001 130.88 64.8001 130.88L57.1101 63.2796V63.2596Z" fill="white"/>
<path d="M80.73 66.81C81.59 65.95 85.42 62.5 86.47 61.17C87.19 60.25 93.92 51.33 96.42 41.03C98.09 34.14 110.3 34.39 108.27 46.07C106.42 56.73 97.78 75.64 84.23 80.27" fill="white"/>
<path d="M80.73 66.81C81.59 65.95 85.42 62.5 86.47 61.17C87.19 60.25 93.92 51.33 96.42 41.03C98.09 34.14 110.3 34.39 108.27 46.07C106.42 56.73 97.78 75.64 84.23 80.27" stroke="#231F20" stroke-width="1.2" stroke-linecap="round" stroke-linejoin="round"/>
<path d="M84.18 108.59C84.18 105.67 87.77 104.74 86.51 84.7098C85.41 72.6398 81.18 68.2898 80.73 66.7998" fill="white"/>
<path d="M84.18 108.59C84.18 105.67 87.77 104.74 86.51 84.7098C85.41 72.6398 81.18 68.2898 80.73 66.7998" stroke="#231F20" stroke-width="1.2" stroke-linecap="round" stroke-linejoin="round"/>
<path d="M80.7299 66.8105C97.5099 62.9405 97.7999 22.0705 68.1699 24.5305C40.1199 26.8605 43.1599 64.7305 62.6899 67.0005" fill="white"/>
<path d="M80.7299 66.8105C97.51 62.9405 97.7999 22.0705 68.1699 24.5305C40.1199 26.8605 43.1599 64.7305 62.6899 67.0005" stroke="#231F20" stroke-width="1.2" stroke-linecap="round" stroke-linejoin="round"/>
<path d="M86.85 42.4697C87.12 44.6197 87.24 46.7697 87.23 48.9297C87.23 50.0097 85.54 50.0097 85.55 48.9297C85.57 46.7697 85.44 44.6197 85.17 42.4697C85.04 41.3997 86.72 41.4097 86.85 42.4697Z" fill="#231F20"/>
<path d="M75.85 42.6003C76.14 44.6003 76.32 46.5903 76.32 48.6203C76.32 49.7003 74.64 49.7003 74.64 48.6203C74.64 46.7503 74.5 44.9003 74.23 43.0503C74.08 41.9903 75.7 41.5303 75.85 42.6003Z" fill="#231F20"/>
<path d="M62.6901 67.0004C62.6901 67.0004 57.1801 68.0204 53.6401 57.5904C53.2601 56.4804 49.8901 45.8304 50.9701 35.2904C51.6901 28.2404 40.1001 24.4104 38.1201 36.1004C36.0201 48.4904 37.7801 70.4104 52.9201 79.8904C57.8601 82.9804 57.9801 97.8304 58.2801 102.96C58.8201 112.37 52.4801 133.58 52.4801 133.58C51.7701 137.44 50.5401 141.19 48.8301 144.73L45.1601 152.32C43.6601 155.41 44.8301 159.13 47.8201 160.81C50.5601 162.35 54.0201 161.71 56.0201 159.28L58.9901 155.67C67.3201 145.56 76.4701 127.94 81.2801 115.76L78.8101 122.02" fill="white"/>
<path d="M62.6901 67.0004C62.6901 67.0004 57.1801 68.0204 53.6401 57.5904C53.2601 56.4804 49.8901 45.8304 50.9701 35.2904C51.6901 28.2404 40.1001 24.4104 38.1201 36.1004C36.0201 48.4904 37.7801 70.4104 52.9201 79.8904C57.8601 82.9804 57.9801 97.8304 58.2801 102.96C58.8201 112.37 52.4801 133.58 52.4801 133.58C51.7701 137.44 50.5401 141.19 48.8301 144.73L45.1601 152.32C43.6601 155.41 44.8301 159.13 47.8201 160.81C50.5601 162.35 54.0201 161.71 56.0201 159.28L58.9901 155.67C67.3201 145.56 76.4701 127.94 81.2801 115.76L78.8101 122.02" stroke="#231F20" stroke-width="1.2" stroke-linecap="round" stroke-linejoin="round"/>
<path d="M52.9199 79.8701C57.6499 83.5401 60.7699 83.5201 60.7699 83.5201L52.9199 79.8701Z" fill="white"/>
<path d="M52.9199 79.8701C57.6499 83.5401 60.7699 83.5201 60.7699 83.5201" stroke="#231F20" stroke-width="1.2" stroke-linecap="round" stroke-linejoin="round"/>
<path fill-rule="evenodd" clip-rule="evenodd" d="M86.0699 57.1701C83.7999 56.4301 78.0199 56.6001 75.3799 57.1701C76.3299 60.4001 83.6199 62.8001 86.0699 57.1701Z" fill="#231F20" stroke="#231F20" stroke-width="1.2" stroke-linecap="round" stroke-linejoin="round"/>
<path fill-rule="evenodd" clip-rule="evenodd" d="M86.0699 57.1701C83.7999 56.4301 78.0199 56.6001 75.3799 57.1701C75.5299 57.6701 75.8299 58.1501 76.2399 58.5901C78.8799 58.9401 82.7999 59.0301 85.3099 58.4901C85.5999 58.1101 85.8499 57.6701 86.0699 57.1701Z" fill="white" stroke="#231F20" stroke-width="1.2" stroke-linecap="round" stroke-linejoin="round"/>
</svg>
