<svg width="220" height="190" viewBox="0 0 220 190" fill="none" xmlns="http://www.w3.org/2000/svg">
<path d="M112.96 167.43C152.885 167.43 185.25 135.064 185.25 95.1396C185.25 55.2149 152.885 22.8496 112.96 22.8496C73.0353 22.8496 40.6699 55.2149 40.6699 95.1396C40.6699 135.064 73.0353 167.43 112.96 167.43Z" fill="#7993CB" stroke="#231F20" stroke-width="1.35" stroke-linecap="round" stroke-linejoin="round"/>
<path d="M89.3 78.8502C85.38 89.0502 74.49 155.59 74.49 155.59C96.77 169.42 124.11 171.25 148.86 157.19L143.46 110.83L132.78 73.9902L89.29 78.8602L89.3 78.8502Z" fill="white"/>
<path d="M132.62 98.1599C143.62 91.8199 151.29 79.5099 150.99 66.6499C150.68 53.4599 143.47 38.9699 131.42 32.7399C125.25 29.5499 116.87 28.7699 110.02 29.0199C103.07 29.2799 96.7 31.0999 90.59 34.3599C80 40.0099 71.32 49.7399 70.84 62.2499C70.63 67.7899 71.11 74.1899 73.58 79.2399C76.73 85.6899 81.62 91.1299 87.36 95.3599" fill="white"/>
<path d="M132.62 98.1599C143.62 91.8199 151.29 79.5099 150.99 66.6499C150.68 53.4599 143.47 38.9699 131.42 32.7399C125.25 29.5499 116.87 28.7699 110.02 29.0199C103.07 29.2799 96.7 31.0999 90.59 34.3599C80 40.0099 71.32 49.7399 70.84 62.2499C70.63 67.7899 71.11 74.1899 73.58 79.2399C76.73 85.6899 81.62 91.1299 87.36 95.3599" stroke="#231F20" stroke-width="1.7" stroke-linecap="round" stroke-linejoin="round"/>
<path d="M96.7401 57.3896C96.4601 60.4096 97.1001 64.2597 97.1001 64.2597L96.7401 57.3896Z" fill="white"/>
<path d="M96.7401 57.3896C96.4601 60.4096 97.1001 64.2597 97.1001 64.2597" stroke="#231F20" stroke-width="2.27" stroke-linecap="round" stroke-linejoin="round"/>
<path d="M123.19 57.3896C122.85 60.3996 123.4 64.2696 123.4 64.2696L123.19 57.3896Z" fill="white"/>
<path d="M123.19 57.3896C122.85 60.3996 123.4 64.2696 123.4 64.2696" stroke="#231F20" stroke-width="2.27" stroke-linecap="round" stroke-linejoin="round"/>
<path d="M74.3301 156.09C74.3301 156.09 77.9501 124.85 77.7001 125.34C77.7001 125.34 29.9501 96.1204 23.0001 33.4104C20.5701 11.4904 45.3201 14.6104 46.2801 27.7604C47.7201 47.4204 70.8901 87.7104 87.3501 95.3604" fill="white"/>
<path d="M74.3301 156.09C74.3301 156.09 77.9501 124.85 77.7001 125.34C77.7001 125.34 29.9501 96.1204 23.0001 33.4104C20.5701 11.4904 45.3201 14.6104 46.2801 27.7604C47.7201 47.4204 70.8901 87.7104 87.3501 95.3604" stroke="#231F20" stroke-width="1.7" stroke-linecap="round" stroke-linejoin="round"/>
<path d="M132.62 98.1603C148.96 90.2603 173.93 48.8703 175.07 29.1903C175.84 16.0203 200.92 11.7903 197.11 40.7803C191.09 103.59 145.1 127.22 145.1 127.22C144.85 126.74 148.87 157.18 148.87 157.18" fill="white"/>
<path d="M132.62 98.1603C148.96 90.2603 173.93 48.8703 175.07 29.1903C175.84 16.0203 200.92 11.7903 197.11 40.7803C191.09 103.59 145.1 127.22 145.1 127.22C144.85 126.74 148.87 157.18 148.87 157.18" stroke="#231F20" stroke-width="1.7" stroke-linecap="round" stroke-linejoin="round"/>
<path fill-rule="evenodd" clip-rule="evenodd" d="M97.0801 79.3601C102.94 77.4601 117.9 77.9001 124.71 79.3601C122.26 87.7001 103.41 93.9201 97.0801 79.3601Z" fill="#231F20" stroke="#231F20" stroke-width="1.7" stroke-linecap="round" stroke-linejoin="round"/>
<path fill-rule="evenodd" clip-rule="evenodd" d="M97.0801 79.3601C102.94 77.4601 117.9 77.9001 124.71 79.3601C124.33 80.6601 123.55 81.9001 122.49 83.0301C115.66 83.9201 105.52 84.1801 99.0601 82.7701C98.3201 81.7901 97.6501 80.6601 97.0901 79.3601H97.0801Z" fill="white" stroke="#231F20" stroke-width="1.7" stroke-linecap="round" stroke-linejoin="round"/>
<path d="M132.54 98.1602L123.4 101.6L106.49 143.85H115.75L132.54 98.1602Z" fill="#F06666" stroke="#231F20" stroke-width="1.35" stroke-linecap="round" stroke-linejoin="round"/>
<path d="M97.7201 99.3503L87.3501 95.3604L106.49 143.85H115.75L97.7201 99.3503Z" fill="#F06666" stroke="#231F20" stroke-width="1.35" stroke-linecap="round" stroke-linejoin="round"/>
<path d="M110.89 175.53C120.864 175.53 128.95 167.444 128.95 157.47C128.95 147.496 120.864 139.41 110.89 139.41C100.916 139.41 92.8301 147.496 92.8301 157.47C92.8301 167.444 100.916 175.53 110.89 175.53Z" fill="#EEBB1C"/>
<path d="M110.89 172.881C119.401 172.881 126.3 165.981 126.3 157.471C126.3 148.96 119.401 142.061 110.89 142.061C102.379 142.061 95.48 148.96 95.48 157.471C95.48 165.981 102.379 172.881 110.89 172.881Z" fill="#ED8851"/>
<path d="M110.89 168.36C116.904 168.36 121.78 163.484 121.78 157.47C121.78 151.456 116.904 146.58 110.89 146.58C104.876 146.58 100 151.456 100 157.47C100 163.484 104.876 168.36 110.89 168.36Z" fill="#EEBB1C"/>
<path d="M110.89 162.26L103.42 167.69L106.28 158.91L98.8 153.48H108.04L110.89 144.7L113.75 153.48H122.98L115.51 158.91L118.37 167.69L110.89 162.26Z" fill="#ED8851"/>
</svg>
