<svg width="86" height="86" viewBox="0 0 86 86" fill="none" xmlns="http://www.w3.org/2000/svg">
<rect x="0.5" y="0.5" width="85" height="85" rx="42.5" fill="white" fill-opacity="0.4"/>
<rect x="0.5" y="0.5" width="85" height="85" rx="42.5" stroke="white"/>
<path d="M66.1272 41.4415L33.7454 21.273C33.4728 21.1017 33.1602 21.0077 32.84 21.0004C32.5198 20.9932 32.2035 21.0732 31.9238 21.232C31.644 21.3908 31.4109 21.6227 31.2485 21.9039C31.0861 22.1851 31.0004 22.5053 31 22.8315V63.1685C31.0004 63.4947 31.0861 63.8149 31.2485 64.0961C31.4109 64.3773 31.644 64.6092 31.9238 64.768C32.2035 64.9268 32.5198 65.0068 32.84 64.9995C33.1602 64.9923 33.4728 64.8982 33.7454 64.727L66.1272 44.5585C66.3931 44.3983 66.6134 44.1704 66.7664 43.8971C66.9195 43.6238 67 43.3146 67 43C67 42.6854 66.9195 42.3762 66.7664 42.1029C66.6134 41.8296 66.3931 41.6017 66.1272 41.4415Z" fill="white"/>
</svg>
