<svg width="41" height="40" viewBox="0 0 41 40" fill="none" xmlns="http://www.w3.org/2000/svg">
<path fill-rule="evenodd" clip-rule="evenodd" d="M10.5 15C10.5 12.2386 12.7386 10 15.5 10H25.5C28.2614 10 30.5 12.2386 30.5 15V25C30.5 27.7614 28.2614 30 25.5 30H15.5C12.7386 30 10.5 27.7614 10.5 25V15ZM25.115 18.495L20.365 23.245C20.195 23.415 19.975 23.495 19.745 23.495C19.525 23.495 19.305 23.415 19.135 23.245L16.755 20.875C16.415 20.525 16.415 19.975 16.755 19.635C17.095 19.295 17.655 19.295 17.995 19.635L19.745 21.385L23.875 17.255C24.215 16.915 24.775 16.915 25.115 17.255C25.455 17.605 25.455 18.155 25.115 18.495Z" fill="#7992CA"/>
</svg>
