<svg width="24" height="24" viewBox="0 0 24 24" fill="none" xmlns="http://www.w3.org/2000/svg">
<path fill-rule="evenodd" clip-rule="evenodd" d="M3.05362 7.74112C4.9084 5.88634 7.83428 4 12 4C16.1657 4 19.0916 5.88634 20.9464 7.74112C21.8702 8.6649 22.5357 9.58652 22.9719 10.2793C23.1906 10.6267 23.3534 10.9193 23.4637 11.13C23.5189 11.2353 23.5611 11.3205 23.5907 11.3819C23.6055 11.4127 23.6172 11.4375 23.6258 11.456L23.6363 11.4791L23.6399 11.4869L23.6412 11.4899L23.6418 11.4912C23.642 11.4918 23.6423 11.4923 22.5 12C23.6423 12.5077 23.642 12.5082 23.6418 12.5088L23.6412 12.5101L23.6399 12.5131L23.6363 12.5209L23.6258 12.544C23.6172 12.5625 23.6055 12.5873 23.5907 12.6181C23.5611 12.6795 23.5189 12.7647 23.4637 12.87C23.3534 13.0807 23.1906 13.3733 22.9719 13.7207C22.5357 14.4135 21.8702 15.3351 20.9464 16.2589C19.0916 18.1137 16.1657 20 12 20C7.83428 20 4.9084 18.1137 3.05362 16.2589C2.12983 15.3351 1.46434 14.4135 1.02815 13.7207C0.809436 13.3733 0.646589 13.0807 0.536265 12.87C0.481057 12.7647 0.43886 12.6795 0.40927 12.6181C0.394471 12.5873 0.382812 12.5625 0.374243 12.544L0.363695 12.5209L0.360145 12.5131L0.358798 12.5101L0.358231 12.5088C0.357977 12.5082 0.357736 12.5077 1.5 12C0.357736 11.4923 0.357977 11.4918 0.358231 11.4912L0.358798 11.4899L0.360145 11.4869L0.363695 11.4791L0.374243 11.456C0.382812 11.4375 0.394471 11.4127 0.40927 11.3819C0.43886 11.3205 0.481057 11.2353 0.536265 11.13C0.646589 10.9193 0.809436 10.6267 1.02815 10.2793C1.46434 9.58652 2.12983 8.6649 3.05362 7.74112ZM1.5 12L0.357735 11.4923C0.214088 11.8155 0.214088 12.1845 0.357735 12.5077L1.5 12ZM2.91002 12C2.97561 12.1146 3.0534 12.2452 3.14373 12.3887C3.50441 12.9615 4.05767 13.7274 4.82138 14.4911C6.3416 16.0113 8.66572 17.5 12 17.5C15.3343 17.5 17.6584 16.0113 19.1786 14.4911C19.9423 13.7274 20.4956 12.9615 20.8563 12.3887C20.9466 12.2452 21.0244 12.1146 21.09 12C21.0244 11.8854 20.9466 11.7548 20.8563 11.6113C20.4956 11.0385 19.9423 10.2726 19.1786 9.50888C17.6584 7.98866 15.3343 6.5 12 6.5C8.66572 6.5 6.3416 7.98866 4.82138 9.50888C4.05767 10.2726 3.50441 11.0385 3.14373 11.6113C3.0534 11.7548 2.97561 11.8854 2.91002 12ZM22.5 12L23.6423 12.5077C23.7859 12.1845 23.7859 11.8155 23.6423 11.4923L22.5 12Z" fill="#404F6F"/>
<path fill-rule="evenodd" clip-rule="evenodd" d="M12 9.5C10.6193 9.5 9.5 10.6193 9.5 12C9.5 13.3807 10.6193 14.5 12 14.5C13.3807 14.5 14.5 13.3807 14.5 12C14.5 10.6193 13.3807 9.5 12 9.5ZM7 12C7 9.23858 9.23858 7 12 7C14.7614 7 17 9.23858 17 12C17 14.7614 14.7614 17 12 17C9.23858 17 7 14.7614 7 12Z" fill="#404F6F"/>
</svg>
