<svg width="220" height="190" viewBox="0 0 220 190" fill="none" xmlns="http://www.w3.org/2000/svg">
<path d="M185.88 19.6699L146.72 94.2699C145.99 95.6499 144.31 96.2199 142.89 95.5499L116.75 83.1699L94.9399 72.8499L113.14 62.2099L114.65 61.3199L185.89 19.6699H185.88Z" fill="white" stroke="#231F20" stroke-width="1.3" stroke-linecap="round" stroke-linejoin="round"/>
<path d="M185.88 19.6699L80.8801 65.1399L42.4001 56.4099C41.0101 56.0899 41.0001 54.1199 42.3901 53.7899L185.88 19.6699Z" fill="white" stroke="#231F20" stroke-width="1.3" stroke-linecap="round" stroke-linejoin="round"/>
<path d="M116.75 83.1696L94.9302 110.22V72.8496L116.75 83.1696Z" fill="white" stroke="#231F20" stroke-width="1.3" stroke-linecap="round" stroke-linejoin="round"/>
<path d="M185.88 19.6699L94.9299 72.8499V110.22L80.8799 65.1399L185.88 19.6699Z" fill="#7993CB" stroke="#231F20" stroke-width="1.3" stroke-linecap="round" stroke-linejoin="round"/>
<path d="M121.89 164.96C122.49 164.64 123.07 164.32 123.65 164.01" stroke="#231F20" stroke-width="1.3" stroke-linecap="round" stroke-linejoin="round"/>
<path d="M127.12 162.089C238.77 99.3594 -3.68996 134.729 48.81 166.739C62.39 175.019 91.92 169.489 90.93 149.469C89.95 129.589 29.55 108.429 75.48 90.8594" stroke="#231F20" stroke-width="1.3" stroke-linecap="round" stroke-linejoin="round"/>
<path d="M77.3398 90.1698C77.9498 89.9498 78.5799 89.7298 79.2299 89.5098" stroke="#231F20" stroke-width="1.3" stroke-linecap="round" stroke-linejoin="round"/>
</svg>
