<svg width="152" height="152" viewBox="0 0 152 152" fill="none" xmlns="http://www.w3.org/2000/svg">
<path d="M139.074 50.4325C134.795 51.5879 132.278 55.9854 133.436 60.2532C134.807 65.2991 135.504 70.5454 135.504 75.8389C135.504 91.6957 129.312 106.609 118.073 117.821C106.834 129.033 91.8836 135.211 75.9881 135.211C60.0927 135.211 45.1545 129.033 33.9036 117.821C22.6527 106.609 16.4717 91.6957 16.4717 75.8389C16.4717 59.982 22.6645 45.0801 33.9036 33.8565C45.1427 22.6447 60.0927 16.4671 75.9881 16.4671C83.9417 16.4671 91.659 17.9997 98.9272 21.0414C103.016 22.7509 107.708 20.8174 109.422 16.75C111.135 12.6709 109.197 7.99043 105.12 6.28096C95.8781 2.4258 86.0808 0.46875 75.9999 0.46875C65.919 0.46875 55.909 2.46117 46.5963 6.39885C37.6027 10.1951 29.519 15.63 22.5817 22.5504C15.6445 29.4709 10.1963 37.5231 6.39083 46.5066C2.44356 55.8085 0.446289 65.6763 0.446289 75.8389C0.446289 86.0014 2.44356 95.881 6.39083 105.171C10.1963 114.143 15.6445 122.207 22.5817 129.127C29.519 136.048 37.5908 141.483 46.5963 145.279C55.9208 149.217 65.8127 151.209 75.9999 151.209C86.1872 151.209 96.0908 149.217 105.404 145.279C114.397 141.483 122.481 136.048 129.418 129.127C136.355 122.207 141.804 114.155 145.609 105.171C149.556 95.8692 151.554 86.0014 151.554 75.8389C151.554 69.1306 150.667 62.4814 148.918 56.0679C147.76 51.8001 143.352 49.289 139.074 50.4443V50.4325Z" fill="white"/>
<path d="M50.9573 66.5494C47.8254 63.4252 42.7436 63.4252 39.6118 66.5494C36.48 69.6736 36.48 74.7431 39.6118 77.8673L66.3918 104.582C67.9045 106.091 69.9373 106.928 72.0645 106.928C72.2182 106.928 72.36 106.928 72.5136 106.917C74.7945 106.787 76.91 105.702 78.3282 103.922L135.575 32.4896C138.341 29.0353 137.774 24.0012 134.323 21.2425C130.86 18.4837 125.814 19.0496 123.048 22.4922L71.4027 86.9334L50.9573 66.5376V66.5494Z" fill="#7992CA"/>
</svg>
