<svg width="25" height="25" viewBox="0 0 25 25" fill="none" xmlns="http://www.w3.org/2000/svg">
<path d="M12.5 8V12.5" stroke="#D0DAED" stroke-width="1.5" stroke-linecap="round" stroke-linejoin="round"/>
<path d="M16.4 14.75L12.5 12.5" stroke="#D0DAED" stroke-width="1.5" stroke-linecap="round" stroke-linejoin="round"/>
<path d="M7.23145 9.84668H3.48145L3.48145 6.09668" stroke="#D0DAED" stroke-width="1.5" stroke-linecap="round" stroke-linejoin="round"/>
<path d="M6.66895 18.3313C7.82246 19.4857 9.29246 20.2721 10.893 20.591C12.4935 20.9099 14.1527 20.7469 15.6605 20.1227C17.1684 19.4984 18.4573 18.441 19.3641 17.0842C20.2709 15.7273 20.755 14.132 20.755 12.5C20.755 10.868 20.2709 9.2727 19.3641 7.91585C18.4573 6.559 17.1684 5.50158 15.6605 4.87735C14.1527 4.25313 12.4935 4.09014 10.893 4.40902C9.29246 4.72789 7.82246 5.5143 6.66895 6.66875L3.48145 9.84688" stroke="#D0DAED" stroke-width="1.5" stroke-linecap="round" stroke-linejoin="round"/>
</svg>
