<svg width="20" height="20" viewBox="0 0 20 20" fill="none" xmlns="http://www.w3.org/2000/svg">
<rect x="0.5" y="0.5" width="19" height="19" rx="9.5" stroke="#D0DAED"/>
<path d="M8.34531 14.125H6.25C6.15055 14.125 6.05516 14.0854 5.98484 14.0151C5.91451 13.9448 5.875 13.8494 5.875 13.75V11.6546C5.87483 11.606 5.88427 11.5577 5.90277 11.5127C5.92127 11.4676 5.94847 11.4267 5.98281 11.3921L11.6078 5.76715C11.6427 5.73171 11.6843 5.70358 11.7302 5.68437C11.776 5.66516 11.8253 5.65527 11.875 5.65527C11.9247 5.65527 11.974 5.66516 12.0198 5.68437C12.0657 5.70358 12.1073 5.73171 12.1422 5.76715L14.2328 7.85777C14.2682 7.89266 14.2964 7.93426 14.3156 7.98013C14.3348 8.026 14.3447 8.07523 14.3447 8.12496C14.3447 8.17469 14.3348 8.22392 14.3156 8.26979C14.2964 8.31566 14.2682 8.35725 14.2328 8.39215L8.60782 14.0171C8.5733 14.0515 8.53235 14.0787 8.4873 14.0972C8.44226 14.1157 8.39401 14.1251 8.34531 14.125V14.125Z" stroke="#D0DAED" stroke-linecap="round" stroke-linejoin="round"/>
<path d="M10.375 7L13 9.625" stroke="#D0DAED" stroke-linecap="round" stroke-linejoin="round"/>
</svg>
